<svg xmlns="http://www.w3.org/2000/svg" xmlns:xlink="http://www.w3.org/1999/xlink" width="512" zoomAndPan="magnify" viewBox="0 0 384 383.999986" height="512" preserveAspectRatio="xMidYMid meet" version="1.0"><defs><clipPath id="25f9c1bbae"><path d="M 90 0 L 294 0 C 317.871094 0 340.761719 9.480469 357.640625 26.359375 C 374.519531 43.238281 384 66.128906 384 90 L 384 294 C 384 343.707031 343.707031 384 294 384 L 90 384 C 40.292969 384 0 343.707031 0 294 L 0 90 C 0 40.292969 40.292969 0 90 0 Z M 90 0 " clip-rule="nonzero"/></clipPath><clipPath id="127cef31c0"><path d="M 45.949219 45.949219 L 337.699219 45.949219 L 337.699219 337.699219 L 45.949219 337.699219 Z M 45.949219 45.949219 " clip-rule="nonzero"/></clipPath></defs><g clip-path="url(#25f9c1bbae)"><rect x="-38.4" width="460.8" fill="#242938" y="-38.399999" height="460.799983" fill-opacity="1"/></g><g clip-path="url(#127cef31c0)"><path fill="#ffffff" d="M 333.488281 82.460938 L 232.234375 82.460938 C 230.34375 77.160156 225.328125 73.332031 219.382812 73.332031 L 196.199219 73.332031 C 193.972656 57.878906 180.675781 45.949219 164.613281 45.949219 C 147 45.949219 132.667969 60.28125 132.667969 77.894531 L 132.667969 82.460938 L 108.578125 82.460938 C 106.992188 79.746094 104.082031 77.898438 100.71875 77.898438 L 82.460938 77.898438 C 79.097656 77.898438 76.1875 79.746094 74.601562 82.460938 L 50.511719 82.460938 C 47.992188 82.460938 45.949219 84.503906 45.949219 87.027344 L 45.949219 105.28125 C 45.949219 107.800781 47.992188 109.847656 50.511719 109.847656 L 74.601562 109.847656 C 76.1875 112.5625 79.097656 114.410156 82.460938 114.410156 L 87.027344 114.410156 L 87.027344 123.539062 C 87.027344 138.640625 99.308594 150.921875 114.410156 150.921875 C 129.511719 150.921875 141.792969 138.640625 141.792969 123.539062 L 141.792969 109.847656 L 150.921875 109.847656 C 150.921875 114.878906 155.015625 118.972656 160.050781 118.972656 L 161.792969 118.972656 L 174.226562 143.835938 C 175 145.382812 176.578125 146.359375 178.308594 146.359375 L 178.308594 160.050781 C 178.308594 162.570312 180.351562 164.617188 182.871094 164.617188 L 187.097656 164.617188 C 185.871094 169.835938 181.203125 173.742188 175.613281 173.742188 L 173.742188 173.742188 C 166.191406 173.742188 160.050781 179.886719 160.050781 187.4375 C 160.050781 194.074219 164.800781 199.625 171.078125 200.867188 L 149.070312 210.652344 C 147.421875 211.382812 146.359375 213.015625 146.359375 214.820312 L 146.359375 233.078125 L 123.539062 233.078125 C 122.039062 233.078125 120.640625 233.8125 119.785156 235.042969 L 78.707031 294.375 C 78.179688 295.140625 77.898438 296.042969 77.898438 296.972656 L 77.898438 333.488281 C 77.898438 336.007812 79.941406 338.050781 82.460938 338.050781 L 301.539062 338.050781 C 304.058594 338.050781 306.101562 336.007812 306.101562 333.488281 L 306.101562 296.972656 C 306.101562 296.042969 305.820312 295.140625 305.289062 294.375 L 264.214844 235.042969 C 263.359375 233.8125 261.957031 233.078125 260.460938 233.078125 L 237.640625 233.078125 L 237.640625 214.820312 C 237.640625 213.015625 236.578125 211.382812 234.929688 210.652344 L 193.855469 192.394531 C 193.269531 192.132812 192.640625 192 192 192 L 173.742188 192 C 171.226562 192 169.179688 189.953125 169.179688 187.4375 C 169.179688 184.917969 171.226562 182.871094 173.742188 182.871094 L 175.613281 182.871094 C 186.242188 182.871094 194.953125 174.886719 196.292969 164.617188 L 201.128906 164.617188 C 203.648438 164.617188 205.691406 162.570312 205.691406 160.050781 L 205.691406 146.359375 C 207.421875 146.359375 209 145.382812 209.773438 143.835938 L 222.207031 118.972656 L 223.949219 118.972656 C 228.984375 118.972656 233.078125 114.878906 233.078125 109.847656 L 333.488281 109.847656 C 336.007812 109.847656 338.050781 107.800781 338.050781 105.28125 L 338.050781 87.027344 C 338.050781 84.503906 336.007812 82.460938 333.488281 82.460938 Z M 196.5625 236.042969 L 228.511719 221.84375 L 228.511719 257.496094 L 196.5625 271.695312 Z M 187.4375 271.695312 L 155.488281 257.496094 L 155.488281 221.847656 L 187.4375 236.042969 Z M 87.027344 328.921875 L 87.027344 301.539062 L 296.972656 301.539062 L 296.972656 328.921875 Z M 258.070312 242.203125 L 292.828125 292.410156 L 91.171875 292.410156 L 125.929688 242.203125 L 146.359375 242.203125 L 146.359375 260.460938 C 146.359375 262.265625 147.421875 263.898438 149.070312 264.628906 L 190.144531 282.886719 C 190.15625 282.890625 190.171875 282.890625 190.183594 282.894531 C 190.738281 283.136719 191.351562 283.28125 192 283.28125 C 192.648438 283.28125 193.257812 283.136719 193.816406 282.894531 C 193.828125 282.890625 193.84375 282.890625 193.855469 282.886719 L 234.929688 264.628906 C 236.578125 263.898438 237.640625 262.265625 237.640625 260.460938 L 237.640625 242.203125 Z M 191.835938 201.628906 C 191.890625 201.605469 191.945312 201.582031 191.996094 201.554688 L 221.839844 214.820312 L 192 228.082031 L 162.160156 214.820312 Z M 141.792969 77.894531 C 141.792969 65.3125 152.03125 55.078125 164.617188 55.078125 C 175.636719 55.078125 184.855469 62.929688 186.972656 73.332031 L 164.617188 73.332031 C 158.671875 73.332031 153.652344 77.160156 151.765625 82.460938 L 141.792969 82.460938 Z M 109.847656 91.589844 L 132.667969 91.589844 L 132.667969 100.71875 L 109.847656 100.71875 Z M 55.078125 91.589844 L 73.332031 91.589844 L 73.332031 100.71875 L 55.078125 100.71875 Z M 82.460938 87.027344 L 100.71875 87.027344 L 100.726562 105.25 C 100.726562 105.261719 100.71875 105.269531 100.71875 105.28125 L 82.460938 105.28125 Z M 132.667969 123.539062 C 132.667969 133.605469 124.476562 141.792969 114.410156 141.792969 C 104.34375 141.792969 96.152344 133.605469 96.152344 123.539062 L 96.152344 114.410156 L 100.71875 114.410156 C 104.082031 114.410156 106.992188 112.5625 108.578125 109.847656 L 132.667969 109.847656 Z M 141.792969 100.71875 L 141.792969 91.589844 L 150.921875 91.589844 L 150.921875 100.71875 Z M 196.5625 155.488281 L 187.4375 155.488281 L 187.4375 146.359375 L 196.5625 146.359375 Z M 202.871094 137.230469 L 181.128906 137.230469 L 172 118.972656 L 212 118.972656 Z M 219.382812 109.847656 L 160.050781 109.847656 L 160.050781 87.027344 C 160.050781 84.511719 162.097656 82.460938 164.617188 82.460938 L 219.382812 82.460938 C 221.902344 82.460938 223.949219 84.511719 223.949219 87.027344 L 223.953125 105.253906 C 223.953125 105.265625 223.949219 105.273438 223.949219 105.28125 C 223.949219 105.292969 223.953125 105.300781 223.953125 105.308594 L 223.957031 109.847656 Z M 328.921875 100.71875 L 233.078125 100.71875 L 233.078125 91.589844 L 328.921875 91.589844 Z M 328.921875 100.71875 " fill-opacity="1" fill-rule="nonzero"/></g><path fill="#ffffff" d="M 100.808594 310.667969 L 100.761719 310.667969 C 98.242188 310.667969 96.222656 312.710938 96.222656 315.230469 C 96.222656 317.75 98.289062 319.792969 100.808594 319.792969 C 103.328125 319.792969 105.375 317.75 105.375 315.230469 C 105.375 312.710938 103.328125 310.667969 100.808594 310.667969 Z M 100.808594 310.667969 " fill-opacity="1" fill-rule="nonzero"/><path fill="#ffffff" d="M 119.066406 310.667969 L 119.019531 310.667969 C 116.5 310.667969 114.480469 312.710938 114.480469 315.230469 C 114.480469 317.75 116.546875 319.792969 119.066406 319.792969 C 121.585938 319.792969 123.628906 317.75 123.628906 315.230469 C 123.628906 312.710938 121.585938 310.667969 119.066406 310.667969 Z M 119.066406 310.667969 " fill-opacity="1" fill-rule="nonzero"/><path fill="#ffffff" d="M 201.128906 310.667969 L 137.230469 310.667969 C 134.710938 310.667969 132.667969 312.710938 132.667969 315.230469 C 132.667969 317.75 134.710938 319.792969 137.230469 319.792969 L 201.128906 319.792969 C 203.648438 319.792969 205.691406 317.75 205.691406 315.230469 C 205.691406 312.710938 203.648438 310.667969 201.128906 310.667969 Z M 201.128906 310.667969 " fill-opacity="1" fill-rule="nonzero"/></svg>