<svg xmlns="http://www.w3.org/2000/svg" xmlns:xlink="http://www.w3.org/1999/xlink" width="512" zoomAndPan="magnify" viewBox="0 0 384 383.999986" height="512" preserveAspectRatio="xMidYMid meet" version="1.0"><path fill="#00979c" d="M 90 0 L 294 0 C 295.472656 0 296.945312 0.0351562 298.417969 0.109375 C 299.886719 0.179688 301.355469 0.289062 302.820312 0.433594 C 304.289062 0.578125 305.75 0.757812 307.207031 0.972656 C 308.664062 1.191406 310.113281 1.441406 311.558594 1.730469 C 313.003906 2.015625 314.4375 2.339844 315.867188 2.695312 C 317.296875 3.054688 318.714844 3.449219 320.125 3.875 C 321.535156 4.304688 322.933594 4.765625 324.320312 5.261719 C 325.707031 5.757812 327.082031 6.289062 328.441406 6.851562 C 329.800781 7.414062 331.148438 8.011719 332.480469 8.640625 C 333.8125 9.269531 335.125 9.933594 336.425781 10.628906 C 337.726562 11.320312 339.003906 12.046875 340.269531 12.804688 C 341.53125 13.5625 342.777344 14.347656 344 15.167969 C 345.226562 15.984375 346.429688 16.832031 347.613281 17.710938 C 348.796875 18.589844 349.957031 19.496094 351.09375 20.429688 C 352.234375 21.363281 353.347656 22.324219 354.441406 23.3125 C 355.53125 24.304688 356.597656 25.320312 357.640625 26.359375 C 358.679688 27.402344 359.695312 28.46875 360.6875 29.558594 C 361.675781 30.652344 362.636719 31.765625 363.570312 32.90625 C 364.503906 34.042969 365.410156 35.203125 366.289062 36.386719 C 367.167969 37.570312 368.015625 38.773438 368.832031 40 C 369.652344 41.222656 370.4375 42.46875 371.195312 43.730469 C 371.953125 44.992188 372.679688 46.273438 373.371094 47.574219 C 374.066406 48.875 374.730469 50.1875 375.359375 51.519531 C 375.988281 52.851562 376.585938 54.199219 377.148438 55.558594 C 377.710938 56.917969 378.242188 58.292969 378.738281 59.679688 C 379.234375 61.066406 379.695312 62.464844 380.125 63.875 C 380.550781 65.285156 380.945312 66.703125 381.304688 68.132812 C 381.660156 69.5625 381.984375 70.996094 382.269531 72.441406 C 382.558594 73.886719 382.808594 75.335938 383.027344 76.792969 C 383.242188 78.25 383.421875 79.710938 383.566406 81.179688 C 383.710938 82.644531 383.820312 84.113281 383.890625 85.582031 C 383.964844 87.054688 384 88.527344 384 90 L 384 294 C 384 295.472656 383.964844 296.945312 383.890625 298.417969 C 383.820312 299.886719 383.710938 301.355469 383.566406 302.820312 C 383.421875 304.289062 383.242188 305.75 383.027344 307.207031 C 382.808594 308.664062 382.558594 310.113281 382.269531 311.558594 C 381.984375 313.003906 381.660156 314.4375 381.304688 315.867188 C 380.945312 317.296875 380.550781 318.714844 380.125 320.125 C 379.695312 321.535156 379.234375 322.933594 378.738281 324.320312 C 378.242188 325.707031 377.710938 327.082031 377.148438 328.441406 C 376.585938 329.800781 375.988281 331.148438 375.359375 332.480469 C 374.730469 333.8125 374.066406 335.125 373.371094 336.425781 C 372.679688 337.726562 371.953125 339.003906 371.195312 340.269531 C 370.4375 341.53125 369.652344 342.777344 368.832031 344 C 368.015625 345.226562 367.167969 346.429688 366.289062 347.613281 C 365.410156 348.796875 364.503906 349.957031 363.570312 351.09375 C 362.636719 352.234375 361.675781 353.347656 360.6875 354.441406 C 359.695312 355.53125 358.679688 356.597656 357.640625 357.640625 C 356.597656 358.679688 355.53125 359.695312 354.441406 360.683594 C 353.347656 361.675781 352.234375 362.636719 351.09375 363.570312 C 349.957031 364.503906 348.796875 365.410156 347.613281 366.289062 C 346.429688 367.167969 345.226562 368.015625 344 368.832031 C 342.777344 369.652344 341.53125 370.4375 340.269531 371.195312 C 339.007812 371.953125 337.726562 372.679688 336.425781 373.371094 C 335.125 374.066406 333.8125 374.730469 332.480469 375.359375 C 331.148438 375.988281 329.800781 376.585938 328.441406 377.148438 C 327.082031 377.710938 325.707031 378.242188 324.320312 378.738281 C 322.933594 379.234375 321.535156 379.695312 320.125 380.125 C 318.714844 380.550781 317.296875 380.945312 315.867188 381.304688 C 314.4375 381.660156 313.003906 381.984375 311.558594 382.269531 C 310.113281 382.558594 308.664062 382.808594 307.207031 383.027344 C 305.75 383.242188 304.289062 383.421875 302.820312 383.566406 C 301.355469 383.710938 299.886719 383.820312 298.417969 383.890625 C 296.945312 383.964844 295.472656 384 294 384 L 90 384 C 88.527344 384 87.054688 383.964844 85.582031 383.890625 C 84.113281 383.820312 82.644531 383.710938 81.179688 383.566406 C 79.710938 383.421875 78.25 383.242188 76.792969 383.027344 C 75.335938 382.808594 73.886719 382.558594 72.441406 382.269531 C 70.996094 381.984375 69.5625 381.660156 68.132812 381.304688 C 66.703125 380.945312 65.285156 380.550781 63.875 380.125 C 62.464844 379.695312 61.066406 379.234375 59.679688 378.738281 C 58.292969 378.242188 56.917969 377.710938 55.558594 377.148438 C 54.199219 376.585938 52.851562 375.988281 51.519531 375.359375 C 50.1875 374.730469 48.875 374.066406 47.574219 373.371094 C 46.273438 372.679688 44.992188 371.953125 43.730469 371.195312 C 42.46875 370.4375 41.222656 369.652344 40 368.832031 C 38.773438 368.015625 37.570312 367.167969 36.386719 366.289062 C 35.203125 365.410156 34.042969 364.503906 32.90625 363.570312 C 31.765625 362.636719 30.652344 361.675781 29.558594 360.683594 C 28.46875 359.695312 27.402344 358.679688 26.359375 357.640625 C 25.320312 356.597656 24.304688 355.53125 23.3125 354.441406 C 22.324219 353.347656 21.363281 352.234375 20.429688 351.09375 C 19.496094 349.957031 18.589844 348.796875 17.710938 347.613281 C 16.832031 346.429688 15.984375 345.226562 15.167969 344 C 14.347656 342.777344 13.5625 341.53125 12.804688 340.269531 C 12.046875 339.003906 11.320312 337.726562 10.628906 336.425781 C 9.933594 335.125 9.269531 333.8125 8.640625 332.480469 C 8.011719 331.148438 7.414062 329.800781 6.851562 328.441406 C 6.289062 327.082031 5.757812 325.707031 5.261719 324.320312 C 4.765625 322.933594 4.304688 321.535156 3.875 320.125 C 3.449219 318.714844 3.054688 317.296875 2.695312 315.867188 C 2.339844 314.4375 2.015625 313.003906 1.730469 311.558594 C 1.441406 310.113281 1.191406 308.664062 0.972656 307.207031 C 0.757812 305.75 0.578125 304.289062 0.433594 302.820312 C 0.289062 301.355469 0.179688 299.886719 0.109375 298.417969 C 0.0351562 296.945312 0 295.472656 0 294 L 0 90 C 0 88.527344 0.0351562 87.054688 0.109375 85.582031 C 0.179688 84.113281 0.289062 82.644531 0.433594 81.179688 C 0.578125 79.710938 0.757812 78.25 0.972656 76.792969 C 1.191406 75.335938 1.441406 73.886719 1.730469 72.441406 C 2.015625 70.996094 2.339844 69.5625 2.695312 68.132812 C 3.054688 66.703125 3.449219 65.285156 3.875 63.875 C 4.304688 62.464844 4.765625 61.066406 5.261719 59.679688 C 5.757812 58.292969 6.289062 56.917969 6.851562 55.558594 C 7.414062 54.199219 8.011719 52.851562 8.640625 51.519531 C 9.269531 50.1875 9.933594 48.875 10.628906 47.574219 C 11.320312 46.273438 12.046875 44.992188 12.804688 43.730469 C 13.5625 42.46875 14.347656 41.222656 15.167969 40 C 15.984375 38.773438 16.832031 37.570312 17.710938 36.386719 C 18.589844 35.203125 19.496094 34.042969 20.429688 32.90625 C 21.363281 31.765625 22.324219 30.652344 23.3125 29.558594 C 24.304688 28.46875 25.320312 27.402344 26.359375 26.359375 C 27.402344 25.320312 28.46875 24.304688 29.558594 23.3125 C 30.652344 22.324219 31.765625 21.363281 32.90625 20.429688 C 34.042969 19.496094 35.203125 18.589844 36.386719 17.710938 C 37.570312 16.832031 38.773438 15.984375 40 15.167969 C 41.222656 14.347656 42.46875 13.5625 43.730469 12.804688 C 44.992188 12.046875 46.273438 11.320312 47.574219 10.628906 C 48.875 9.933594 50.1875 9.269531 51.519531 8.640625 C 52.851562 8.011719 54.199219 7.414062 55.558594 6.851562 C 56.917969 6.289062 58.292969 5.757812 59.679688 5.261719 C 61.066406 4.765625 62.464844 4.304688 63.875 3.875 C 65.285156 3.449219 66.703125 3.054688 68.132812 2.695312 C 69.5625 2.339844 70.996094 2.015625 72.441406 1.730469 C 73.886719 1.441406 75.335938 1.191406 76.792969 0.972656 C 78.25 0.757812 79.710938 0.578125 81.179688 0.433594 C 82.644531 0.289062 84.113281 0.179688 85.582031 0.109375 C 87.054688 0.0351562 88.527344 0 90 0 Z M 90 0 " fill-opacity="1" fill-rule="nonzero"/><path fill="#ffffff" d="M 28.5 204.769531 L 28.5 180.140625 C 29.015625 179.886719 29.015625 179.371094 29.015625 178.859375 C 36.761719 145.257812 57.929688 124.992188 91.492188 117.039062 C 94.332031 116.269531 97.429688 116.527344 100.269531 115.5 L 116.789062 115.5 C 117.046875 116.011719 117.824219 115.757812 118.339844 115.757812 C 134.863281 117.550781 149.835938 123.453125 163 133.714844 C 174.359375 142.179688 183.136719 152.953125 191.140625 164.496094 C 192.171875 166.035156 192.691406 166.035156 193.722656 164.496094 C 198.367188 157.824219 203.273438 151.414062 208.953125 145.511719 C 222.636719 130.890625 239.160156 120.628906 259.292969 117.039062 C 262.132812 116.269531 265.488281 116.527344 268.332031 115.5 L 284.335938 115.5 C 284.59375 116.011719 285.109375 115.757812 285.628906 115.757812 C 290.53125 116.269531 295.179688 117.296875 299.824219 118.578125 C 334.417969 128.582031 358.945312 160.132812 356.878906 195.789062 C 355.328125 225.804688 340.097656 247.351562 313.507812 260.945312 C 300.34375 268.128906 285.886719 269.925781 270.910156 269.667969 C 251.292969 269.410156 234.253906 262.742188 219.539062 249.917969 C 209.210938 240.9375 201.207031 230.164062 193.722656 218.878906 C 192.691406 217.339844 192.171875 217.59375 191.140625 219.132812 C 186.492188 226.058594 181.589844 232.984375 175.910156 239.65625 C 165.839844 250.941406 154.222656 260.175781 139.765625 265.050781 C 121.953125 271.207031 103.882812 271.464844 85.8125 266.589844 C 59.738281 259.152344 41.925781 242.734375 32.113281 217.59375 C 30.566406 213.492188 29.789062 208.875 28.5 204.769531 Z M 110.59375 242.476562 C 125.308594 242.988281 137.960938 238.117188 148.800781 228.113281 C 159.902344 217.851562 167.90625 205.023438 175.910156 192.457031 C 176.167969 191.6875 176.167969 191.171875 175.652344 190.402344 C 168.9375 179.886719 161.96875 169.371094 152.675781 160.648438 C 134.863281 143.71875 113.949219 138.074219 90.457031 145.511719 C 71.097656 151.925781 58.703125 165.519531 55.863281 186.042969 C 53.023438 205.28125 60.511719 220.671875 76 232.214844 C 86.328125 239.65625 97.945312 242.734375 110.59375 242.476562 Z M 274.265625 242.476562 C 279.945312 242.476562 285.628906 242.21875 291.046875 240.679688 C 311.441406 234.523438 324.867188 221.953125 328.738281 200.921875 C 332.613281 180.140625 324.609375 163.46875 307.054688 151.667969 C 287.691406 138.332031 259.550781 139.613281 239.933594 154.234375 C 226.765625 163.980469 217.988281 177.066406 209.210938 190.660156 C 208.695312 191.429688 208.953125 191.941406 209.210938 192.710938 C 216.179688 203.742188 223.152344 214.773438 232.1875 224.261719 C 243.546875 236.320312 257.230469 243.246094 274.265625 242.476562 Z M 274.265625 242.476562 " fill-opacity="1" fill-rule="evenodd"/><path fill="#ffffff" d="M 110.335938 184.246094 C 118.597656 184.246094 127.117188 184.503906 135.378906 184.246094 C 137.441406 184.246094 137.703125 184.757812 137.703125 186.8125 C 137.441406 189.121094 137.441406 191.429688 137.703125 193.738281 C 137.960938 195.789062 137.441406 196.304688 135.121094 196.304688 L 102.074219 196.304688 C 96.394531 196.304688 90.714844 196.046875 85.035156 196.304688 C 83.230469 196.304688 82.714844 195.789062 82.714844 193.738281 C 82.972656 191.429688 82.972656 189.121094 82.714844 186.554688 C 82.714844 184.757812 83.230469 184.246094 85.035156 184.246094 C 93.296875 184.503906 101.816406 184.246094 110.335938 184.246094 Z M 272.976562 167.828125 C 275.042969 167.828125 277.105469 168.085938 278.914062 167.828125 C 280.207031 167.828125 280.722656 168.34375 280.722656 169.625 C 280.464844 173.21875 280.722656 176.808594 280.464844 180.398438 C 280.464844 182.195312 280.980469 182.707031 282.789062 182.707031 C 286.144531 182.449219 289.757812 182.707031 293.371094 182.449219 C 294.921875 182.449219 295.4375 182.707031 295.4375 184.503906 L 295.4375 196.304688 C 295.4375 197.585938 294.921875 198.097656 293.628906 198.097656 C 290.015625 197.84375 286.402344 198.097656 282.53125 197.84375 C 280.980469 197.84375 280.464844 198.355469 280.464844 199.894531 C 280.722656 203.484375 280.464844 207.078125 280.722656 210.667969 C 280.722656 212.207031 280.207031 212.976562 278.65625 212.976562 C 274.785156 212.722656 270.910156 212.722656 267.039062 212.976562 C 265.492188 212.976562 264.972656 212.464844 264.972656 210.925781 C 265.230469 207.078125 264.972656 203.484375 265.230469 199.636719 C 265.230469 198.355469 264.714844 197.84375 263.425781 197.84375 C 259.808594 198.097656 256.195312 197.84375 252.582031 198.097656 C 250.515625 198.097656 250.257812 197.328125 250.257812 195.789062 C 250.257812 192.199219 250.515625 188.605469 250.257812 185.015625 C 250 182.964844 251.035156 182.449219 252.839844 182.449219 C 256.453125 182.707031 259.808594 182.449219 263.425781 182.707031 C 264.714844 182.707031 265.230469 182.195312 265.230469 180.910156 C 264.972656 177.320312 265.230469 173.472656 264.972656 169.882812 C 264.972656 168.34375 265.492188 167.828125 267.039062 167.828125 C 269.105469 168.085938 270.910156 167.828125 272.976562 167.828125 Z M 272.976562 167.828125 " fill-opacity="1" fill-rule="evenodd"/></svg>