<svg xmlns="http://www.w3.org/2000/svg" xmlns:xlink="http://www.w3.org/1999/xlink" width="512" zoomAndPan="magnify" viewBox="0 0 384 383.999986" height="512" preserveAspectRatio="xMidYMid meet" version="1.0"><path fill="#242938" d="M 90 0 L 294 0 C 295.472656 0 296.945312 0.0351562 298.417969 0.109375 C 299.886719 0.179688 301.355469 0.289062 302.820312 0.433594 C 304.289062 0.578125 305.75 0.757812 307.207031 0.972656 C 308.664062 1.191406 310.113281 1.441406 311.558594 1.730469 C 313.003906 2.015625 314.4375 2.339844 315.867188 2.695312 C 317.296875 3.054688 318.714844 3.449219 320.125 3.875 C 321.535156 4.304688 322.933594 4.765625 324.320312 5.261719 C 325.707031 5.757812 327.082031 6.289062 328.441406 6.851562 C 329.800781 7.414062 331.148438 8.011719 332.480469 8.640625 C 333.8125 9.269531 335.125 9.933594 336.425781 10.628906 C 337.726562 11.320312 339.003906 12.046875 340.269531 12.804688 C 341.53125 13.5625 342.777344 14.347656 344 15.167969 C 345.226562 15.984375 346.429688 16.832031 347.613281 17.710938 C 348.796875 18.589844 349.957031 19.496094 351.09375 20.429688 C 352.234375 21.363281 353.347656 22.324219 354.441406 23.3125 C 355.53125 24.304688 356.597656 25.320312 357.640625 26.359375 C 358.679688 27.402344 359.695312 28.46875 360.6875 29.558594 C 361.675781 30.652344 362.636719 31.765625 363.570312 32.90625 C 364.503906 34.042969 365.410156 35.203125 366.289062 36.386719 C 367.167969 37.570312 368.015625 38.773438 368.832031 40 C 369.652344 41.222656 370.4375 42.46875 371.195312 43.730469 C 371.953125 44.992188 372.679688 46.273438 373.371094 47.574219 C 374.066406 48.875 374.730469 50.1875 375.359375 51.519531 C 375.988281 52.851562 376.585938 54.199219 377.148438 55.558594 C 377.710938 56.917969 378.242188 58.292969 378.738281 59.679688 C 379.234375 61.066406 379.695312 62.464844 380.125 63.875 C 380.550781 65.285156 380.945312 66.703125 381.304688 68.132812 C 381.660156 69.5625 381.984375 70.996094 382.269531 72.441406 C 382.558594 73.886719 382.808594 75.335938 383.027344 76.792969 C 383.242188 78.25 383.421875 79.710938 383.566406 81.179688 C 383.710938 82.644531 383.820312 84.113281 383.890625 85.582031 C 383.964844 87.054688 384 88.527344 384 90 L 384 294 C 384 295.472656 383.964844 296.945312 383.890625 298.417969 C 383.820312 299.886719 383.710938 301.355469 383.566406 302.820312 C 383.421875 304.289062 383.242188 305.75 383.027344 307.207031 C 382.808594 308.664062 382.558594 310.113281 382.269531 311.558594 C 381.984375 313.003906 381.660156 314.4375 381.304688 315.867188 C 380.945312 317.296875 380.550781 318.714844 380.125 320.125 C 379.695312 321.535156 379.234375 322.933594 378.738281 324.320312 C 378.242188 325.707031 377.710938 327.082031 377.148438 328.441406 C 376.585938 329.800781 375.988281 331.148438 375.359375 332.480469 C 374.730469 333.8125 374.066406 335.125 373.371094 336.425781 C 372.679688 337.726562 371.953125 339.003906 371.195312 340.269531 C 370.4375 341.53125 369.652344 342.777344 368.832031 344 C 368.015625 345.226562 367.167969 346.429688 366.289062 347.613281 C 365.410156 348.796875 364.503906 349.957031 363.570312 351.09375 C 362.636719 352.234375 361.675781 353.347656 360.6875 354.441406 C 359.695312 355.53125 358.679688 356.597656 357.640625 357.640625 C 356.597656 358.679688 355.53125 359.695312 354.441406 360.683594 C 353.347656 361.675781 352.234375 362.636719 351.09375 363.570312 C 349.957031 364.503906 348.796875 365.410156 347.613281 366.289062 C 346.429688 367.167969 345.226562 368.015625 344 368.832031 C 342.777344 369.652344 341.53125 370.4375 340.269531 371.195312 C 339.007812 371.953125 337.726562 372.679688 336.425781 373.371094 C 335.125 374.066406 333.8125 374.730469 332.480469 375.359375 C 331.148438 375.988281 329.800781 376.585938 328.441406 377.148438 C 327.082031 377.710938 325.707031 378.242188 324.320312 378.738281 C 322.933594 379.234375 321.535156 379.695312 320.125 380.125 C 318.714844 380.550781 317.296875 380.945312 315.867188 381.304688 C 314.4375 381.660156 313.003906 381.984375 311.558594 382.269531 C 310.113281 382.558594 308.664062 382.808594 307.207031 383.027344 C 305.75 383.242188 304.289062 383.421875 302.820312 383.566406 C 301.355469 383.710938 299.886719 383.820312 298.417969 383.890625 C 296.945312 383.964844 295.472656 384 294 384 L 90 384 C 88.527344 384 87.054688 383.964844 85.582031 383.890625 C 84.113281 383.820312 82.644531 383.710938 81.179688 383.566406 C 79.710938 383.421875 78.25 383.242188 76.792969 383.027344 C 75.335938 382.808594 73.886719 382.558594 72.441406 382.269531 C 70.996094 381.984375 69.5625 381.660156 68.132812 381.304688 C 66.703125 380.945312 65.285156 380.550781 63.875 380.125 C 62.464844 379.695312 61.066406 379.234375 59.679688 378.738281 C 58.292969 378.242188 56.917969 377.710938 55.558594 377.148438 C 54.199219 376.585938 52.851562 375.988281 51.519531 375.359375 C 50.1875 374.730469 48.875 374.066406 47.574219 373.371094 C 46.273438 372.679688 44.992188 371.953125 43.730469 371.195312 C 42.46875 370.4375 41.222656 369.652344 40 368.832031 C 38.773438 368.015625 37.570312 367.167969 36.386719 366.289062 C 35.203125 365.410156 34.042969 364.503906 32.90625 363.570312 C 31.765625 362.636719 30.652344 361.675781 29.558594 360.683594 C 28.46875 359.695312 27.402344 358.679688 26.359375 357.640625 C 25.320312 356.597656 24.304688 355.53125 23.3125 354.441406 C 22.324219 353.347656 21.363281 352.234375 20.429688 351.09375 C 19.496094 349.957031 18.589844 348.796875 17.710938 347.613281 C 16.832031 346.429688 15.984375 345.226562 15.167969 344 C 14.347656 342.777344 13.5625 341.53125 12.804688 340.269531 C 12.046875 339.003906 11.320312 337.726562 10.628906 336.425781 C 9.933594 335.125 9.269531 333.8125 8.640625 332.480469 C 8.011719 331.148438 7.414062 329.800781 6.851562 328.441406 C 6.289062 327.082031 5.757812 325.707031 5.261719 324.320312 C 4.765625 322.933594 4.304688 321.535156 3.875 320.125 C 3.449219 318.714844 3.054688 317.296875 2.695312 315.867188 C 2.339844 314.4375 2.015625 313.003906 1.730469 311.558594 C 1.441406 310.113281 1.191406 308.664062 0.972656 307.207031 C 0.757812 305.75 0.578125 304.289062 0.433594 302.820312 C 0.289062 301.355469 0.179688 299.886719 0.109375 298.417969 C 0.0351562 296.945312 0 295.472656 0 294 L 0 90 C 0 88.527344 0.0351562 87.054688 0.109375 85.582031 C 0.179688 84.113281 0.289062 82.644531 0.433594 81.179688 C 0.578125 79.710938 0.757812 78.25 0.972656 76.792969 C 1.191406 75.335938 1.441406 73.886719 1.730469 72.441406 C 2.015625 70.996094 2.339844 69.5625 2.695312 68.132812 C 3.054688 66.703125 3.449219 65.285156 3.875 63.875 C 4.304688 62.464844 4.765625 61.066406 5.261719 59.679688 C 5.757812 58.292969 6.289062 56.917969 6.851562 55.558594 C 7.414062 54.199219 8.011719 52.851562 8.640625 51.519531 C 9.269531 50.1875 9.933594 48.875 10.628906 47.574219 C 11.320312 46.273438 12.046875 44.992188 12.804688 43.730469 C 13.5625 42.46875 14.347656 41.222656 15.167969 40 C 15.984375 38.773438 16.832031 37.570312 17.710938 36.386719 C 18.589844 35.203125 19.496094 34.042969 20.429688 32.90625 C 21.363281 31.765625 22.324219 30.652344 23.3125 29.558594 C 24.304688 28.46875 25.320312 27.402344 26.359375 26.359375 C 27.402344 25.320312 28.46875 24.304688 29.558594 23.3125 C 30.652344 22.324219 31.765625 21.363281 32.90625 20.429688 C 34.042969 19.496094 35.203125 18.589844 36.386719 17.710938 C 37.570312 16.832031 38.773438 15.984375 40 15.167969 C 41.222656 14.347656 42.46875 13.5625 43.730469 12.804688 C 44.992188 12.046875 46.273438 11.320312 47.574219 10.628906 C 48.875 9.933594 50.1875 9.269531 51.519531 8.640625 C 52.851562 8.011719 54.199219 7.414062 55.558594 6.851562 C 56.917969 6.289062 58.292969 5.757812 59.679688 5.261719 C 61.066406 4.765625 62.464844 4.304688 63.875 3.875 C 65.285156 3.449219 66.703125 3.054688 68.132812 2.695312 C 69.5625 2.339844 70.996094 2.015625 72.441406 1.730469 C 73.886719 1.441406 75.335938 1.191406 76.792969 0.972656 C 78.25 0.757812 79.710938 0.578125 81.179688 0.433594 C 82.644531 0.289062 84.113281 0.179688 85.582031 0.109375 C 87.054688 0.0351562 88.527344 0 90 0 Z M 90 0 " fill-opacity="1" fill-rule="nonzero"/><path fill="#ffffff" d="M 158.328125 205.925781 C 159.492188 185.105469 169.636719 166.761719 184.945312 153.757812 C 199.957031 140.984375 220.164062 133.179688 242.210938 133.179688 C 264.234375 133.179688 284.441406 140.984375 299.464844 153.757812 C 314.761719 166.761719 324.90625 185.105469 326.078125 205.902344 C 327.238281 227.296875 318.683594 247.167969 303.671875 261.898438 C 288.363281 276.886719 266.589844 286.289062 242.210938 286.289062 C 217.828125 286.289062 196.011719 276.886719 180.714844 261.898438 C 165.691406 247.167969 157.15625 227.296875 158.328125 205.925781 Z M 158.328125 205.925781 " fill-opacity="1" fill-rule="nonzero"/><path fill="#265787" d="M 199.171875 207.792969 C 199.769531 197.109375 204.976562 187.699219 212.828125 181.027344 C 220.53125 174.472656 230.898438 170.46875 242.210938 170.46875 C 253.511719 170.46875 263.882812 174.472656 271.589844 181.027344 C 279.4375 187.699219 284.644531 197.109375 285.246094 207.78125 C 285.839844 218.757812 281.449219 228.957031 273.75 236.515625 C 265.894531 244.203125 254.722656 249.027344 242.210938 249.027344 C 229.703125 249.027344 218.507812 244.203125 210.660156 236.515625 C 202.953125 228.957031 198.570312 218.757812 199.171875 207.792969 Z M 199.171875 207.792969 " fill-opacity="1" fill-rule="nonzero"/><path fill="#ea7600" d="M 130.636719 229.378906 C 130.707031 233.558594 132.035156 241.683594 134.027344 248.03125 C 138.207031 261.457031 145.304688 273.878906 155.175781 284.828125 C 165.308594 296.082031 177.785156 305.121094 192.195312 311.539062 C 207.34375 318.277344 223.753906 321.714844 240.800781 321.683594 C 257.820312 321.664062 274.230469 318.160156 289.378906 311.371094 C 303.789062 304.890625 316.253906 295.8125 326.367188 284.554688 C 336.234375 273.558594 343.320312 261.113281 347.515625 247.683594 C 349.621094 240.898438 350.953125 234.011719 351.488281 227.101562 C 352.011719 220.296875 351.792969 213.476562 350.832031 206.664062 C 348.953125 193.386719 344.382812 180.929688 337.34375 169.574219 C 330.90625 159.140625 322.605469 150.007812 312.738281 142.316406 L 312.761719 142.300781 L 213.183594 65.472656 C 213.09375 65.40625 213.019531 65.332031 212.925781 65.269531 C 206.390625 60.230469 195.40625 60.246094 188.21875 65.296875 C 180.957031 70.40625 180.125 78.851562 186.589844 84.179688 L 186.5625 84.207031 L 228.09375 118.140625 L 101.503906 118.277344 L 101.335938 118.277344 C 90.875 118.289062 80.816406 125.1875 78.824219 133.90625 C 76.777344 142.785156 83.886719 150.152344 94.765625 150.191406 L 94.746094 150.230469 L 158.910156 150.105469 L 44.414062 238.414062 C 44.269531 238.519531 44.113281 238.632812 43.976562 238.742188 C 33.175781 247.050781 29.683594 260.871094 36.488281 269.613281 C 43.390625 278.507812 58.074219 278.523438 68.984375 269.664062 L 131.472656 218.277344 C 131.472656 218.277344 130.5625 225.214844 130.636719 229.378906 Z M 291.207031 252.609375 C 278.332031 265.789062 260.304688 273.265625 240.800781 273.304688 C 221.269531 273.339844 203.242188 265.933594 190.367188 252.773438 C 184.078125 246.363281 179.453125 238.984375 176.605469 231.125 C 173.808594 223.402344 172.726562 215.203125 173.445312 206.933594 C 174.125 198.851562 176.519531 191.140625 180.34375 184.164062 C 184.097656 177.304688 189.273438 171.105469 195.660156 165.863281 C 208.175781 155.617188 224.109375 150.066406 240.773438 150.046875 C 257.453125 150.023438 273.375 155.519531 285.90625 165.734375 C 292.28125 170.953125 297.445312 177.128906 301.203125 183.976562 C 305.042969 190.945312 307.421875 198.628906 308.128906 206.738281 C 308.839844 214.996094 307.753906 223.183594 304.957031 230.910156 C 302.101562 238.792969 297.496094 246.167969 291.207031 252.609375 Z M 291.207031 252.609375 " fill-opacity="1" fill-rule="nonzero"/></svg>