<svg xmlns="http://www.w3.org/2000/svg" xmlns:xlink="http://www.w3.org/1999/xlink" width="512" zoomAndPan="magnify" viewBox="0 0 384 383.999986" height="512" preserveAspectRatio="xMidYMid meet" version="1.0"><path fill="#242938" d="M 90 0 L 294 0 C 295.472656 0 296.945312 0.0351562 298.417969 0.109375 C 299.886719 0.179688 301.355469 0.289062 302.820312 0.433594 C 304.289062 0.578125 305.75 0.757812 307.207031 0.972656 C 308.664062 1.191406 310.113281 1.441406 311.558594 1.730469 C 313.003906 2.015625 314.4375 2.339844 315.867188 2.695312 C 317.296875 3.054688 318.714844 3.449219 320.125 3.875 C 321.535156 4.304688 322.933594 4.765625 324.320312 5.261719 C 325.707031 5.757812 327.082031 6.289062 328.441406 6.851562 C 329.800781 7.414062 331.148438 8.011719 332.480469 8.640625 C 333.8125 9.269531 335.125 9.933594 336.425781 10.628906 C 337.726562 11.320312 339.003906 12.046875 340.269531 12.804688 C 341.53125 13.5625 342.777344 14.347656 344 15.167969 C 345.226562 15.984375 346.429688 16.832031 347.613281 17.710938 C 348.796875 18.589844 349.957031 19.496094 351.09375 20.429688 C 352.234375 21.363281 353.347656 22.324219 354.441406 23.3125 C 355.53125 24.304688 356.597656 25.320312 357.640625 26.359375 C 358.679688 27.402344 359.695312 28.46875 360.6875 29.558594 C 361.675781 30.652344 362.636719 31.765625 363.570312 32.90625 C 364.503906 34.042969 365.410156 35.203125 366.289062 36.386719 C 367.167969 37.570312 368.015625 38.773438 368.832031 40 C 369.652344 41.222656 370.4375 42.46875 371.195312 43.730469 C 371.953125 44.992188 372.679688 46.273438 373.371094 47.574219 C 374.066406 48.875 374.730469 50.1875 375.359375 51.519531 C 375.988281 52.851562 376.585938 54.199219 377.148438 55.558594 C 377.710938 56.917969 378.242188 58.292969 378.738281 59.679688 C 379.234375 61.066406 379.695312 62.464844 380.125 63.875 C 380.550781 65.285156 380.945312 66.703125 381.304688 68.132812 C 381.660156 69.5625 381.984375 70.996094 382.269531 72.441406 C 382.558594 73.886719 382.808594 75.335938 383.027344 76.792969 C 383.242188 78.25 383.421875 79.710938 383.566406 81.179688 C 383.710938 82.644531 383.820312 84.113281 383.890625 85.582031 C 383.964844 87.054688 384 88.527344 384 90 L 384 294 C 384 295.472656 383.964844 296.945312 383.890625 298.417969 C 383.820312 299.886719 383.710938 301.355469 383.566406 302.820312 C 383.421875 304.289062 383.242188 305.75 383.027344 307.207031 C 382.808594 308.664062 382.558594 310.113281 382.269531 311.558594 C 381.984375 313.003906 381.660156 314.4375 381.304688 315.867188 C 380.945312 317.296875 380.550781 318.714844 380.125 320.125 C 379.695312 321.535156 379.234375 322.933594 378.738281 324.320312 C 378.242188 325.707031 377.710938 327.082031 377.148438 328.441406 C 376.585938 329.800781 375.988281 331.148438 375.359375 332.480469 C 374.730469 333.8125 374.066406 335.125 373.371094 336.425781 C 372.679688 337.726562 371.953125 339.003906 371.195312 340.269531 C 370.4375 341.53125 369.652344 342.777344 368.832031 344 C 368.015625 345.226562 367.167969 346.429688 366.289062 347.613281 C 365.410156 348.796875 364.503906 349.957031 363.570312 351.09375 C 362.636719 352.234375 361.675781 353.347656 360.6875 354.441406 C 359.695312 355.53125 358.679688 356.597656 357.640625 357.640625 C 356.597656 358.679688 355.53125 359.695312 354.441406 360.683594 C 353.347656 361.675781 352.234375 362.636719 351.09375 363.570312 C 349.957031 364.503906 348.796875 365.410156 347.613281 366.289062 C 346.429688 367.167969 345.226562 368.015625 344 368.832031 C 342.777344 369.652344 341.53125 370.4375 340.269531 371.195312 C 339.007812 371.953125 337.726562 372.679688 336.425781 373.371094 C 335.125 374.066406 333.8125 374.730469 332.480469 375.359375 C 331.148438 375.988281 329.800781 376.585938 328.441406 377.148438 C 327.082031 377.710938 325.707031 378.242188 324.320312 378.738281 C 322.933594 379.234375 321.535156 379.695312 320.125 380.125 C 318.714844 380.550781 317.296875 380.945312 315.867188 381.304688 C 314.4375 381.660156 313.003906 381.984375 311.558594 382.269531 C 310.113281 382.558594 308.664062 382.808594 307.207031 383.027344 C 305.75 383.242188 304.289062 383.421875 302.820312 383.566406 C 301.355469 383.710938 299.886719 383.820312 298.417969 383.890625 C 296.945312 383.964844 295.472656 384 294 384 L 90 384 C 88.527344 384 87.054688 383.964844 85.582031 383.890625 C 84.113281 383.820312 82.644531 383.710938 81.179688 383.566406 C 79.710938 383.421875 78.25 383.242188 76.792969 383.027344 C 75.335938 382.808594 73.886719 382.558594 72.441406 382.269531 C 70.996094 381.984375 69.5625 381.660156 68.132812 381.304688 C 66.703125 380.945312 65.285156 380.550781 63.875 380.125 C 62.464844 379.695312 61.066406 379.234375 59.679688 378.738281 C 58.292969 378.242188 56.917969 377.710938 55.558594 377.148438 C 54.199219 376.585938 52.851562 375.988281 51.519531 375.359375 C 50.1875 374.730469 48.875 374.066406 47.574219 373.371094 C 46.273438 372.679688 44.992188 371.953125 43.730469 371.195312 C 42.46875 370.4375 41.222656 369.652344 40 368.832031 C 38.773438 368.015625 37.570312 367.167969 36.386719 366.289062 C 35.203125 365.410156 34.042969 364.503906 32.90625 363.570312 C 31.765625 362.636719 30.652344 361.675781 29.558594 360.683594 C 28.46875 359.695312 27.402344 358.679688 26.359375 357.640625 C 25.320312 356.597656 24.304688 355.53125 23.3125 354.441406 C 22.324219 353.347656 21.363281 352.234375 20.429688 351.09375 C 19.496094 349.957031 18.589844 348.796875 17.710938 347.613281 C 16.832031 346.429688 15.984375 345.226562 15.167969 344 C 14.347656 342.777344 13.5625 341.53125 12.804688 340.269531 C 12.046875 339.003906 11.320312 337.726562 10.628906 336.425781 C 9.933594 335.125 9.269531 333.8125 8.640625 332.480469 C 8.011719 331.148438 7.414062 329.800781 6.851562 328.441406 C 6.289062 327.082031 5.757812 325.707031 5.261719 324.320312 C 4.765625 322.933594 4.304688 321.535156 3.875 320.125 C 3.449219 318.714844 3.054688 317.296875 2.695312 315.867188 C 2.339844 314.4375 2.015625 313.003906 1.730469 311.558594 C 1.441406 310.113281 1.191406 308.664062 0.972656 307.207031 C 0.757812 305.75 0.578125 304.289062 0.433594 302.820312 C 0.289062 301.355469 0.179688 299.886719 0.109375 298.417969 C 0.0351562 296.945312 0 295.472656 0 294 L 0 90 C 0 88.527344 0.0351562 87.054688 0.109375 85.582031 C 0.179688 84.113281 0.289062 82.644531 0.433594 81.179688 C 0.578125 79.710938 0.757812 78.25 0.972656 76.792969 C 1.191406 75.335938 1.441406 73.886719 1.730469 72.441406 C 2.015625 70.996094 2.339844 69.5625 2.695312 68.132812 C 3.054688 66.703125 3.449219 65.285156 3.875 63.875 C 4.304688 62.464844 4.765625 61.066406 5.261719 59.679688 C 5.757812 58.292969 6.289062 56.917969 6.851562 55.558594 C 7.414062 54.199219 8.011719 52.851562 8.640625 51.519531 C 9.269531 50.1875 9.933594 48.875 10.628906 47.574219 C 11.320312 46.273438 12.046875 44.992188 12.804688 43.730469 C 13.5625 42.46875 14.347656 41.222656 15.167969 40 C 15.984375 38.773438 16.832031 37.570312 17.710938 36.386719 C 18.589844 35.203125 19.496094 34.042969 20.429688 32.90625 C 21.363281 31.765625 22.324219 30.652344 23.3125 29.558594 C 24.304688 28.46875 25.320312 27.402344 26.359375 26.359375 C 27.402344 25.320312 28.46875 24.304688 29.558594 23.3125 C 30.652344 22.324219 31.765625 21.363281 32.90625 20.429688 C 34.042969 19.496094 35.203125 18.589844 36.386719 17.710938 C 37.570312 16.832031 38.773438 15.984375 40 15.167969 C 41.222656 14.347656 42.46875 13.5625 43.730469 12.804688 C 44.992188 12.046875 46.273438 11.320312 47.574219 10.628906 C 48.875 9.933594 50.1875 9.269531 51.519531 8.640625 C 52.851562 8.011719 54.199219 7.414062 55.558594 6.851562 C 56.917969 6.289062 58.292969 5.757812 59.679688 5.261719 C 61.066406 4.765625 62.464844 4.304688 63.875 3.875 C 65.285156 3.449219 66.703125 3.054688 68.132812 2.695312 C 69.5625 2.339844 70.996094 2.015625 72.441406 1.730469 C 73.886719 1.441406 75.335938 1.191406 76.792969 0.972656 C 78.25 0.757812 79.710938 0.578125 81.179688 0.433594 C 82.644531 0.289062 84.113281 0.179688 85.582031 0.109375 C 87.054688 0.0351562 88.527344 0 90 0 Z M 90 0 " fill-opacity="1" fill-rule="nonzero"/><path fill="#ffffff" d="M 134.667969 290.890625 C 123.808594 282.347656 112.226562 274.164062 104.3125 262.632812 C 87.660156 242.300781 74.839844 218.761719 66.074219 194.027344 C 60.777344 177.941406 58.960938 160.699219 52.132812 145.234375 C 44.988281 134.003906 53.355469 121.726562 65.65625 118.15625 C 71.136719 117.105469 80.765625 111.9375 69.140625 115.632812 C 58.71875 123.277344 57.710938 108.691406 68.398438 107.765625 C 75.691406 106.796875 78.375 100.824219 75.882812 95.449219 C 68.050781 90.34375 94.867188 84.734375 81.375 77.117188 C 67.320312 61.953125 101.035156 59.035156 92.714844 76.253906 C 90.726562 89.496094 116.273438 73.828125 110.347656 89.121094 C 116.371094 96.464844 132.910156 90.792969 132.5 101.09375 C 141.277344 101.695312 144.289062 109.082031 152.527344 109.648438 C 161.066406 113.503906 176.546875 116.542969 179.453125 126.167969 C 170.980469 132.875 151.363281 112.3125 150.421875 130.878906 C 152.980469 158.304688 152.328125 186.558594 162.363281 212.675781 C 167.109375 228.492188 178.617188 240.941406 189.007812 253.257812 C 198.949219 265.320312 212.417969 273.816406 226.144531 280.964844 C 238.183594 286.644531 251.164062 290.410156 264.289062 292.773438 C 269.613281 288.703125 279.007812 273.566406 287.3125 279.949219 C 287.707031 287.121094 270.832031 294.941406 286.519531 294.148438 C 295.730469 291.367188 302.117188 301.273438 309.703125 292.339844 C 316.691406 300.617188 338.75 287.050781 333.777344 303.96875 C 327.054688 308.308594 317.246094 305.6875 310.511719 311.652344 C 299.410156 306.109375 290.570312 316.617188 278.277344 315.289062 C 264.625 317.734375 250.738281 318.71875 236.898438 318.742188 C 214.191406 316.945312 191.003906 316.191406 169.402344 308.285156 C 157.234375 304.75 145.359375 297.820312 134.667969 290.890625 Z M 153.84375 299.199219 C 165.722656 304.335938 177.34375 309.75 190.363281 311.386719 C 211.023438 314.257812 232.359375 318.679688 253.09375 314.648438 C 243.707031 310.410156 234.007812 316.296875 224.65625 311.617188 C 213.445312 314.03125 201.414062 311.003906 190.015625 309.511719 C 177.054688 303.738281 163.066406 299.769531 150.929688 292.273438 C 135.761719 286.734375 158.773438 299.378906 162.867188 300.402344 C 172.351562 305.785156 152.441406 297.644531 149.636719 295.40625 C 141.695312 290.953125 140.683594 291.882812 148.847656 296.40625 C 150.492188 297.367188 152.121094 298.378906 153.84375 299.199219 Z M 131.234375 283.21875 C 142.746094 287.484375 131.183594 275.125 125.90625 275.839844 C 123.570312 271.785156 116.976562 269.222656 121.625 267.046875 C 113.261719 269.949219 112.863281 256 108.929688 257.992188 C 100.078125 255.199219 105.484375 245.296875 94.941406 239.21875 C 93.980469 232.8125 84.46875 227.257812 81.433594 217.59375 C 80.09375 212.644531 70.6875 198.4375 76.464844 211.660156 C 81.386719 224.390625 90.042969 235.289062 97.246094 246.175781 C 102.839844 256.542969 109.445312 267.378906 119.632812 273.847656 C 123.066406 277.140625 126.382812 282.1875 131.234375 283.21875 Z M 98.0625 246.800781 C 98.464844 245.0625 100.171875 250.566406 98.0625 246.800781 Z M 145.023438 288.332031 C 147.570312 287.191406 141.355469 286.894531 145.023438 288.332031 Z M 151.273438 290.613281 C 150.625 287.464844 148.417969 292.371094 151.273438 290.613281 Z M 159.097656 293.875 C 162.820312 290.328125 153.355469 291.640625 159.097656 293.875 Z M 172.507812 301.351562 C 174.769531 298.003906 165.261719 300.085938 172.507812 301.351562 Z M 146.757812 283.398438 C 152.539062 279.65625 139.285156 283.347656 146.757812 283.398438 Z M 152.625 286.324219 C 152.460938 284.347656 150.535156 287.210938 152.625 286.324219 Z M 181.960938 304.636719 C 186.671875 307.609375 209.496094 311.15625 195.207031 305.855469 C 192.816406 306.359375 168.707031 299.035156 181.960938 304.636719 Z M 135.390625 268.367188 C 134.933594 266.382812 128.070312 266.175781 135.390625 268.367188 Z M 149.046875 276.324219 C 152.601562 273.847656 141.671875 274.414062 149.046875 276.324219 Z M 160.53125 283.367188 C 165.632812 281.445312 152.261719 281.4375 160.53125 283.367188 Z M 129.835938 262.316406 C 135.367188 266.558594 152.148438 262.859375 138.308594 259.78125 C 132.007812 256.421875 117.808594 254.125 127.488281 261.808594 Z M 168.3125 285.800781 C 170.617188 281.871094 158.648438 283.558594 168.3125 285.800781 Z M 156.621094 276.507812 C 170.152344 280.335938 145.242188 267.949219 153.28125 275.097656 L 155.0625 275.90625 Z M 180.0625 290.054688 C 192.878906 290.179688 168.488281 288.289062 180.0625 290.054688 Z M 124.902344 254.902344 C 124.402344 252.515625 121.742188 255.101562 124.902344 254.902344 Z M 201.738281 302.214844 C 202.078125 297.90625 197.558594 305.421875 201.738281 302.214844 Z M 146.773438 268.292969 C 145.996094 266.023438 142.769531 268.199219 146.773438 268.292969 Z M 126.121094 253.402344 C 133.476562 252.960938 116.046875 250.164062 126.121094 253.402344 Z M 101.652344 237.589844 C 100.738281 234.0625 93.648438 231.25 101.652344 237.589844 Z M 165.882812 278.351562 C 164.535156 276.8125 165.246094 278.6875 165.882812 278.351562 Z M 205.859375 302.882812 C 205.730469 300.535156 203.683594 303.769531 205.859375 302.882812 Z M 162.34375 274.695312 C 163.0625 271.671875 156.070312 273.78125 162.34375 274.695312 Z M 132.5625 255.820312 C 138.035156 255.234375 123.792969 252.121094 132.5625 255.820312 Z M 182.941406 287.128906 C 191.46875 283.746094 174.628906 285.476562 182.941406 287.128906 Z M 156.734375 269.339844 C 166.566406 270.605469 145.039062 262.652344 154.578125 268.625 Z M 190.894531 290.34375 C 200.074219 284.855469 197.046875 303.1875 206.464844 291.890625 C 215.753906 285.109375 198.441406 300.277344 209.890625 293.101562 C 218.171875 287.5625 230.402344 295.726562 238.128906 298.390625 C 243.683594 298.117188 249.085938 303.195312 254.78125 300.105469 C 265.746094 297.152344 233.339844 295.726562 241.835938 290.484375 C 231.800781 293.40625 224.390625 287.003906 219.453125 280.578125 C 208.199219 277.976562 195.1875 272.226562 189.570312 262.265625 C 187.28125 258.527344 192.878906 262.792969 187.59375 256.679688 C 180.8125 250.648438 177.425781 243.804688 172.875 236.472656 C 167.4375 233.570312 166.804688 225.03125 166.253906 236.183594 C 166.296875 229.144531 159.6875 224.40625 158.074219 226.378906 C 158.046875 219.597656 165.148438 222.996094 160.175781 217.980469 C 159.105469 210.953125 155.582031 203.632812 154.523438 195.699219 C 152.878906 191.875 154.292969 183.683594 148.90625 192.339844 C 146.945312 201.492188 148.257812 181.097656 151.304688 187.824219 C 155.3125 180.960938 149.871094 181.765625 149.648438 182.71875 C 152.253906 176.929688 151.296875 168.71875 148.964844 171.851562 C 150.355469 165.714844 151.164062 149.265625 146.886719 152.183594 C 149.476562 145.765625 151.800781 122.820312 140.550781 131.566406 C 135.992188 131.632812 128.09375 133.222656 124.363281 135.078125 C 136.066406 141.53125 123.183594 137.410156 118.421875 136.382812 C 117.800781 142.351562 113.082031 139.773438 107.1875 139.828125 C 116.601562 140.996094 102.601562 149.460938 97.199219 146.171875 C 90.1875 149.523438 103.253906 157.894531 97.339844 160.480469 C 98.070312 164.382812 86.59375 159.070312 87.496094 168.082031 C 80.6875 165.214844 86.558594 178.765625 89.964844 174.183594 C 101.546875 177.320312 98.121094 184.464844 98.414062 191.253906 C 96.527344 195.210938 89.097656 181.957031 96.757812 182.570312 C 90.714844 172.75 90.074219 179.019531 85.050781 183.582031 C 83.878906 183.914062 97.863281 190.074219 89.089844 193.121094 C 96.808594 194.3125 97.027344 201.066406 98.597656 205.339844 C 103.238281 210.175781 102.289062 200.003906 107.839844 205.8125 C 104.328125 200.636719 89.230469 191.234375 101.386719 194.25 C 101.320312 189.042969 99.1875 184.84375 102.910156 184.945312 C 106.597656 178.265625 99.050781 201.410156 107.363281 192.925781 C 109.664062 191.917969 110.234375 186.238281 114.367188 193.460938 C 120.375 199.371094 116.539062 203.652344 108.0625 198.238281 C 109.582031 203.382812 119.398438 205.222656 117.554688 213.265625 C 119.511719 220.335938 122.246094 217.734375 124.632812 217.324219 C 126.503906 224.195312 127.566406 219.140625 127.65625 215.871094 C 136.226562 217.707031 134.21875 222.769531 136.898438 226.308594 C 142.804688 228.976562 128.449219 208.242188 138.585938 220.074219 C 149.25 229.707031 142.585938 233.726562 133.011719 232.183594 C 139.070312 231.691406 141.023438 240.371094 148.601562 240.066406 C 155.511719 243.355469 160.191406 255.980469 148.28125 250.722656 C 144.148438 247 129.53125 242.40625 141.46875 249.488281 C 152.496094 254.59375 161.257812 257.652344 171.890625 264.058594 C 179.503906 269.496094 182.792969 275.71875 185.675781 276.949219 C 179.28125 280.003906 166.398438 274.511719 175.964844 272.824219 C 169.996094 271.738281 163.285156 268.722656 169.003906 276.15625 C 173.859375 280.214844 186.21875 279.78125 188.433594 280.242188 C 186.554688 284.378906 183.332031 284.707031 188.507812 285.03125 C 182.734375 288.109375 190.359375 288.582031 190.894531 290.34375 Z M 179.085938 256.992188 C 175.570312 253.316406 174.664062 246.433594 178.460938 252.421875 C 180.410156 253.203125 184.703125 263.671875 179.085938 256.992188 Z M 217.546875 281.421875 C 219.738281 281.28125 217.609375 283.085938 217.546875 281.421875 Z M 173.539062 247.980469 C 173.402344 242.425781 174.808594 252.265625 173.539062 247.980469 Z M 169.714844 242.839844 C 165.296875 234.296875 175.285156 245.257812 169.714844 242.839844 Z M 123.390625 210.867188 C 125.988281 210.171875 124.667969 215.308594 123.390625 210.867188 Z M 160.261719 230.847656 C 161.855469 224.859375 162.132812 235.875 160.261719 230.847656 Z M 134.214844 212.738281 C 132.378906 209.433594 138.054688 215.839844 134.214844 212.738281 Z M 156.566406 219.90625 C 152.378906 210.523438 159.53125 214.777344 157.492188 221.441406 Z M 118.019531 194.195312 C 116.148438 191.121094 113.050781 182.089844 114.046875 179.332031 C 114.949219 183.820312 123.59375 198.652344 118.289062 185.476562 C 112.425781 174.429688 125.296875 189.0625 126.621094 191.816406 C 127.238281 194.558594 123.003906 191.066406 125.875 197.496094 C 120.640625 190.175781 122.785156 201.535156 118.019531 194.195312 Z M 106.105469 185.988281 C 106.597656 178.832031 108.832031 190.894531 106.105469 185.988281 Z M 111.464844 187.832031 C 114.019531 182.429688 115.800781 195.363281 111.464844 187.832031 Z M 98.574219 177.859375 C 94.136719 173.453125 90.929688 169.390625 98.78125 175.125 C 101.808594 175.242188 92.058594 165.886719 99.511719 172.152344 C 107.34375 173.582031 103.378906 185 98.574219 177.859375 Z M 105.34375 177.683594 C 107.921875 175.132812 106.710938 180.195312 105.34375 177.683594 Z M 109.511719 179.019531 C 105.605469 171.699219 114.25 182.089844 109.511719 179.019531 Z M 101.230469 171.101562 C 88.335938 159.628906 117.429688 177.101562 103.335938 173.230469 Z M 138.171875 192.570312 C 132.59375 189.222656 136.691406 169.015625 138.597656 182.835938 C 144.019531 181.082031 138.296875 189.972656 142.34375 189.890625 C 141.703125 195.5 139.894531 197.519531 138.171875 192.570312 Z M 151.835938 200.644531 C 152.382812 194.554688 152.988281 204.808594 151.835938 200.644531 Z M 149.464844 198.296875 C 150.078125 195.699219 149.527344 201.363281 149.464844 198.296875 Z M 103.757812 167.332031 C 95.476562 155.902344 127.832031 178.894531 109.0625 170.230469 C 107.101562 169.71875 104.742188 169.535156 103.757812 167.332031 Z M 130.070312 181.285156 C 129.289062 171.660156 131.820312 182.878906 130.070312 181.285156 Z M 150.050781 194.101562 C 151.59375 188.617188 150.164062 197.726562 150.050781 194.101562 Z M 105.027344 162.96875 C 109.949219 161.917969 125.429688 171.617188 111.214844 165.742188 C 109.636719 163.992188 106.269531 164.785156 105.027344 162.96875 Z M 147.304688 184.042969 C 147.832031 174.203125 150.242188 178.164062 147.324219 185.449219 Z M 108.691406 159.546875 C 110.699219 156.605469 103.367188 146.242188 109.75 155.832031 C 112.507812 158.023438 117.734375 159.5 113.117188 160.421875 C 120.375 166.824219 111.347656 162.15625 108.691406 159.546875 Z M 145.214844 180.96875 C 146.597656 169.757812 146.433594 187.535156 145.214844 180.96875 Z M 104.503906 149.195312 C 106.035156 148.539062 105.3125 151.234375 104.503906 149.195312 Z M 114.027344 154.863281 C 116.480469 149.71875 118.550781 160.601562 114.027344 154.863281 Z M 140.898438 169.8125 C 140.875 167.835938 141.40625 172.6875 140.898438 169.8125 Z M 139.34375 166.367188 C 135.613281 157.164062 142.8125 171.238281 139.34375 166.367188 Z M 137.054688 160.332031 C 136.425781 156.53125 139.179688 165.109375 137.054688 160.332031 Z M 140.78125 154.273438 C 138.222656 149.765625 144.011719 134.398438 144.660156 143.929688 C 141.957031 151.355469 143.878906 155.507812 145.765625 145.546875 C 149.242188 137.710938 145.011719 161.015625 140.78125 154.273438 Z M 144.609375 131.425781 C 145.726562 130.054688 144.859375 133.074219 144.609375 131.425781 Z M 138.214844 257.457031 C 136.699219 256.132812 138.40625 258.300781 138.214844 257.457031 Z M 151.390625 264.121094 C 158.71875 266.003906 158.683594 262.980469 152.058594 262.085938 C 148.496094 258.769531 137.253906 255.253906 147.316406 261.671875 C 147.980469 263.359375 150.085938 263.320312 151.390625 264.121094 Z M 125.367188 246.839844 C 129.40625 249.847656 140.578125 255.371094 131.121094 247.984375 C 134.308594 244.28125 125.015625 242.308594 128.097656 239.832031 C 120.261719 235.035156 121.914062 235.460938 127.40625 235.609375 C 117.984375 231.398438 128.769531 231.714844 128.261719 229.558594 C 124.628906 228.839844 110.214844 223.152344 118.695312 230.023438 C 110.074219 225.628906 116.640625 231.660156 114.035156 231.023438 C 105.222656 228.621094 121.882812 237.734375 112.636719 235.472656 C 117.691406 239.480469 126.246094 245.734375 114.773438 239.714844 C 113.261719 241.886719 122.980469 245.1875 125.367188 246.839844 Z M 139.148438 254.753906 C 155.90625 260.152344 130.933594 248.160156 139.148438 254.753906 Z M 209.691406 297.492188 C 209.910156 294.167969 207.402344 300.328125 209.691406 297.492188 Z M 216.945312 300.542969 C 220.808594 296.796875 217.101562 306.511719 223.351562 299.625 C 223.417969 294.699219 223.15625 291.785156 216.167969 297.773438 C 214.242188 298.839844 213.382812 303.382812 216.945312 300.542969 Z M 101.847656 228.261719 C 100.660156 223.59375 93.527344 223.617188 101.847656 228.261719 Z M 109.589844 233.332031 C 106.714844 228.566406 99.332031 229.019531 109.589844 233.332031 Z M 153.636719 259.898438 C 157.9375 263.714844 173.386719 262.699219 158.859375 260.367188 C 156.707031 257.183594 145.195312 257.953125 153.636719 259.898438 Z M 214.1875 297.289062 C 220.804688 291.738281 207.773438 299.769531 214.1875 297.289062 Z M 227.949219 306.75 C 227.992188 304.96875 225.097656 307.53125 227.949219 306.75 Z M 227.972656 304.253906 C 235.300781 296.488281 220.871094 304.714844 227.972656 304.253906 Z M 82.804688 212.316406 C 76.558594 203.40625 78.921875 199.398438 72.898438 192.121094 C 71.757812 186.554688 62.5625 173.925781 68.144531 187.304688 C 73.253906 195.128906 74.769531 207.246094 82.804688 212.316406 Z M 225.671875 301.785156 C 239.15625 293.070312 220.136719 297.988281 225.671875 301.785156 Z M 235.964844 305.820312 C 242.71875 300.019531 231.695312 304.605469 235.964844 305.820312 Z M 99.554688 218.410156 C 101.484375 215.535156 94.5625 218.039062 99.554688 218.410156 Z M 233.816406 303.066406 C 240.355469 298.851562 232.3125 299.496094 232.632812 303.453125 Z M 145.089844 247.140625 C 144.863281 244.292969 141.636719 247.382812 145.089844 247.140625 Z M 150.570312 250.292969 C 148.828125 246.769531 147.890625 250.847656 150.570312 250.292969 Z M 244.308594 305.914062 C 252.683594 299.871094 239.230469 304.757812 242.550781 307.058594 Z M 241.101562 304.363281 C 247.925781 298.648438 233.898438 306.898438 241.101562 304.363281 Z M 257.488281 315.277344 C 262.070312 312.210938 251.921875 314.285156 257.488281 315.277344 Z M 103.753906 216.335938 C 109.894531 217.710938 128.296875 231.457031 117.441406 217.285156 C 111.878906 215.640625 115.214844 202.050781 109.542969 204.457031 C 113.351562 210.816406 112.675781 213.519531 104.683594 209.511719 C 94.640625 204.609375 99.039062 211.941406 101.003906 213.964844 C 98.328125 214.570312 104.542969 216.285156 103.753906 216.335938 Z M 75.777344 194.238281 C 76.875 189.691406 65.652344 169.222656 70.476562 183.984375 C 72.21875 187.074219 72.042969 192.933594 75.777344 194.238281 Z M 127.128906 225.898438 C 123.964844 223.253906 126.976562 225.523438 127.128906 225.898438 Z M 134.914062 227.710938 C 134.910156 222.894531 126.308594 225.757812 134.914062 227.710938 Z M 202.398438 270.253906 C 201.109375 266.960938 197.308594 270.175781 202.398438 270.253906 Z M 205.636719 272.617188 C 205.15625 270.777344 203.765625 272.972656 205.636719 272.617188 Z M 232.382812 289.464844 C 234.957031 287.566406 229.171875 289.222656 232.382812 289.464844 Z M 89.75 197.808594 C 97.109375 194.957031 81.867188 195.777344 89.75 197.808594 Z M 196.453125 265.03125 C 196.375 260.269531 191.765625 266.210938 196.453125 265.03125 Z M 86.84375 191.03125 C 91.570312 189.4375 82.472656 189.980469 86.84375 191.03125 Z M 100.5625 197.679688 C 100.476562 196.113281 99.113281 198.269531 100.5625 197.679688 Z M 267.890625 300.285156 C 273.96875 299.054688 287.816406 303.378906 290.054688 298.675781 C 282.675781 298.492188 264.519531 293.464844 263.660156 299.875 L 265.277344 300.128906 Z M 104.921875 198.777344 C 105.027344 193.949219 101.160156 198.597656 104.921875 198.777344 Z M 68.855469 173.757812 C 67.214844 164.558594 62.625 172.363281 68.855469 173.757812 Z M 77.453125 175.917969 C 77.5625 172.964844 69.582031 173.261719 77.453125 175.917969 Z M 82.371094 178.332031 C 80.949219 177.179688 81.257812 179.785156 82.371094 178.332031 Z M 113.300781 198.171875 C 114.753906 196.835938 109.851562 197.183594 113.300781 198.171875 Z M 79.097656 172.886719 C 78.265625 165.941406 69.132812 171.847656 79.097656 172.886719 Z M 61.460938 161.445312 C 61.210938 158.238281 59.742188 162.65625 61.460938 161.445312 Z M 64.085938 159.464844 C 63.65625 155.664062 61.832031 159.949219 64.085938 159.464844 Z M 78.578125 168.117188 C 84.707031 165.707031 67.414062 163.136719 77.324219 167.660156 Z M 272.539062 287.921875 C 276.464844 284.328125 267.554688 286.8125 272.539062 287.921875 Z M 295.972656 300.070312 C 297.546875 295.421875 292.015625 300.683594 295.972656 300.070312 Z M 80.058594 160.519531 C 80.703125 156.023438 75.199219 161.410156 80.058594 160.519531 Z M 59.441406 146.703125 C 58.332031 140.355469 58.484375 129.207031 69.078125 132.976562 C 54.9375 135.785156 78.867188 150.554688 75.84375 138.890625 C 81.792969 139.183594 87.476562 135.378906 84.355469 141.152344 C 96.074219 139.859375 104.195312 129.699219 115.515625 131.121094 C 124.332031 129.957031 133.96875 129.070312 143.46875 125.523438 C 151.28125 124.960938 158.800781 116.550781 154.519531 111.566406 C 143.867188 110.664062 132.714844 111.996094 120.941406 114.335938 C 107.894531 117.050781 96.046875 122.203125 82.882812 124.414062 C 70.050781 126.136719 85.464844 129.164062 81.789062 129.835938 C 75.09375 132.160156 89.773438 133.726562 80.921875 136.175781 C 75.453125 135.136719 69.761719 133.257812 72.097656 127.496094 C 59.808594 129.089844 49.007812 134.191406 58.71875 146.699219 Z M 89.054688 131.621094 C 91.9375 121.003906 104.496094 140.355469 93.777344 133.03125 C 92.5 132.074219 90.394531 131.292969 89.054688 131.621094 Z M 89.617188 126.472656 C 93.773438 123.375 91.828125 128.210938 89.617188 126.472656 Z M 94.898438 126.558594 C 95.273438 121.671875 106.988281 129.144531 96.828125 128.316406 Z M 102.121094 123.652344 C 104.757812 120.570312 102.878906 126.394531 102.121094 123.652344 Z M 103.96875 122.417969 C 108.363281 117.136719 128.847656 119.046875 113.851562 121.902344 C 109.832031 118.875 106.753906 123.683594 103.96875 122.417969 Z M 130.703125 118.296875 C 130.03125 103.878906 143.980469 123.417969 130.703125 118.296875 Z M 138.285156 118.253906 C 141.058594 110.988281 149.046875 115.339844 139.570312 116.792969 C 139.777344 117.566406 139.292969 120.546875 138.285156 118.253906 Z M 77.066406 156.789062 C 85.355469 151.714844 68.273438 152.386719 77.066406 156.789062 Z M 83.195312 158.492188 C 86.101562 155.402344 76.882812 157.238281 83.195312 158.492188 Z M 65.144531 145.679688 C 69.878906 142.042969 59.539062 144.296875 65.144531 145.679688 Z M 309.804688 298.742188 C 309.941406 294.523438 306.1875 300.640625 309.804688 298.742188 Z M 284.945312 281.773438 C 285.652344 276.917969 281.75 282.199219 284.945312 281.773438 Z M 316.640625 300.375 C 323.261719 300.398438 336.699219 298.320312 322.292969 298.328125 C 320.035156 298.679688 309.125 298.605469 316.640625 300.375 Z M 88.582031 155.515625 C 93.941406 155.148438 96.964844 149.605469 87.546875 149.921875 C 72.953125 148.414062 100.425781 154.921875 85.675781 153.058594 C 83.691406 154.371094 88.46875 155.878906 88.582031 155.515625 Z M 93.300781 157.902344 C 92.742188 154.460938 91.644531 159.730469 93.300781 157.902344 Z M 98.898438 142.980469 C 101.222656 140.09375 95.683594 142.207031 98.898438 142.980469 Z M 81.082031 113.199219 C 90.644531 109.945312 103.71875 106.289062 108.230469 114.800781 C 103.636719 109.269531 106.378906 103.824219 110.71875 111.910156 C 116.851562 120.089844 119.925781 108.191406 115.933594 105.445312 C 120.480469 111.097656 125.65625 113.765625 118.980469 105.804688 C 126.234375 97.078125 104.453125 106.945312 99.503906 106.847656 C 97.121094 107.914062 74.914062 112.511719 81.082031 113.199219 Z M 86.683594 102.464844 C 92.136719 98.351562 105.542969 104.914062 96.941406 98.375 C 96.101562 97.632812 78.101562 103.335938 86.683594 102.464844 Z M 106.5625 103.285156 C 112.945312 103.449219 103.8125 94.714844 111.417969 98.671875 C 110.167969 94.59375 102.5625 93.828125 98.84375 92.199219 C 96.742188 95.929688 103.125 103.335938 106.5625 103.285156 Z M 90.171875 85.242188 C 92.378906 82.25 86.300781 86.757812 90.171875 85.242188 Z M 98.296875 87.1875 C 108.578125 85.824219 95.675781 82.757812 96.222656 87.078125 Z M 83.125 75.316406 C 75.882812 65.863281 96.742188 76.90625 89.386719 67.007812 C 83.195312 62.078125 77.242188 72.554688 83.125 75.316406 Z M 176.054688 125.371094 C 179.375 119.480469 162.34375 117.433594 173.816406 123.28125 C 174.871094 123.636719 174.632812 125.777344 176.054688 125.371094 Z M 176.054688 125.371094 " fill-opacity="1" fill-rule="nonzero"/></svg>