<svg xmlns="http://www.w3.org/2000/svg" xmlns:xlink="http://www.w3.org/1999/xlink" width="512" zoomAndPan="magnify" viewBox="0 0 384 383.999986" height="512" preserveAspectRatio="xMidYMid meet" version="1.0"><path fill="#242938" d="M 90 0 L 294 0 C 295.472656 0 296.945312 0.0351562 298.417969 0.109375 C 299.886719 0.179688 301.355469 0.289062 302.820312 0.433594 C 304.289062 0.578125 305.75 0.757812 307.207031 0.972656 C 308.664062 1.191406 310.113281 1.441406 311.558594 1.730469 C 313.003906 2.015625 314.4375 2.339844 315.867188 2.695312 C 317.296875 3.054688 318.714844 3.449219 320.125 3.875 C 321.535156 4.304688 322.933594 4.765625 324.320312 5.261719 C 325.707031 5.757812 327.082031 6.289062 328.441406 6.851562 C 329.800781 7.414062 331.148438 8.011719 332.480469 8.640625 C 333.8125 9.269531 335.125 9.933594 336.425781 10.628906 C 337.726562 11.320312 339.003906 12.046875 340.269531 12.804688 C 341.53125 13.5625 342.777344 14.347656 344 15.167969 C 345.226562 15.984375 346.429688 16.832031 347.613281 17.710938 C 348.796875 18.589844 349.957031 19.496094 351.09375 20.429688 C 352.234375 21.363281 353.347656 22.324219 354.441406 23.3125 C 355.53125 24.304688 356.597656 25.320312 357.640625 26.359375 C 358.679688 27.402344 359.695312 28.46875 360.6875 29.558594 C 361.675781 30.652344 362.636719 31.765625 363.570312 32.90625 C 364.503906 34.042969 365.410156 35.203125 366.289062 36.386719 C 367.167969 37.570312 368.015625 38.773438 368.832031 40 C 369.652344 41.222656 370.4375 42.46875 371.195312 43.730469 C 371.953125 44.992188 372.679688 46.273438 373.371094 47.574219 C 374.066406 48.875 374.730469 50.1875 375.359375 51.519531 C 375.988281 52.851562 376.585938 54.199219 377.148438 55.558594 C 377.710938 56.917969 378.242188 58.292969 378.738281 59.679688 C 379.234375 61.066406 379.695312 62.464844 380.125 63.875 C 380.550781 65.285156 380.945312 66.703125 381.304688 68.132812 C 381.660156 69.5625 381.984375 70.996094 382.269531 72.441406 C 382.558594 73.886719 382.808594 75.335938 383.027344 76.792969 C 383.242188 78.25 383.421875 79.710938 383.566406 81.179688 C 383.710938 82.644531 383.820312 84.113281 383.890625 85.582031 C 383.964844 87.054688 384 88.527344 384 90 L 384 294 C 384 295.472656 383.964844 296.945312 383.890625 298.417969 C 383.820312 299.886719 383.710938 301.355469 383.566406 302.820312 C 383.421875 304.289062 383.242188 305.75 383.027344 307.207031 C 382.808594 308.664062 382.558594 310.113281 382.269531 311.558594 C 381.984375 313.003906 381.660156 314.4375 381.304688 315.867188 C 380.945312 317.296875 380.550781 318.714844 380.125 320.125 C 379.695312 321.535156 379.234375 322.933594 378.738281 324.320312 C 378.242188 325.707031 377.710938 327.082031 377.148438 328.441406 C 376.585938 329.800781 375.988281 331.148438 375.359375 332.480469 C 374.730469 333.8125 374.066406 335.125 373.371094 336.425781 C 372.679688 337.726562 371.953125 339.003906 371.195312 340.269531 C 370.4375 341.53125 369.652344 342.777344 368.832031 344 C 368.015625 345.226562 367.167969 346.429688 366.289062 347.613281 C 365.410156 348.796875 364.503906 349.957031 363.570312 351.09375 C 362.636719 352.234375 361.675781 353.347656 360.6875 354.441406 C 359.695312 355.53125 358.679688 356.597656 357.640625 357.640625 C 356.597656 358.679688 355.53125 359.695312 354.441406 360.683594 C 353.347656 361.675781 352.234375 362.636719 351.09375 363.570312 C 349.957031 364.503906 348.796875 365.410156 347.613281 366.289062 C 346.429688 367.167969 345.226562 368.015625 344 368.832031 C 342.777344 369.652344 341.53125 370.4375 340.269531 371.195312 C 339.007812 371.953125 337.726562 372.679688 336.425781 373.371094 C 335.125 374.066406 333.8125 374.730469 332.480469 375.359375 C 331.148438 375.988281 329.800781 376.585938 328.441406 377.148438 C 327.082031 377.710938 325.707031 378.242188 324.320312 378.738281 C 322.933594 379.234375 321.535156 379.695312 320.125 380.125 C 318.714844 380.550781 317.296875 380.945312 315.867188 381.304688 C 314.4375 381.660156 313.003906 381.984375 311.558594 382.269531 C 310.113281 382.558594 308.664062 382.808594 307.207031 383.027344 C 305.75 383.242188 304.289062 383.421875 302.820312 383.566406 C 301.355469 383.710938 299.886719 383.820312 298.417969 383.890625 C 296.945312 383.964844 295.472656 384 294 384 L 90 384 C 88.527344 384 87.054688 383.964844 85.582031 383.890625 C 84.113281 383.820312 82.644531 383.710938 81.179688 383.566406 C 79.710938 383.421875 78.25 383.242188 76.792969 383.027344 C 75.335938 382.808594 73.886719 382.558594 72.441406 382.269531 C 70.996094 381.984375 69.5625 381.660156 68.132812 381.304688 C 66.703125 380.945312 65.285156 380.550781 63.875 380.125 C 62.464844 379.695312 61.066406 379.234375 59.679688 378.738281 C 58.292969 378.242188 56.917969 377.710938 55.558594 377.148438 C 54.199219 376.585938 52.851562 375.988281 51.519531 375.359375 C 50.1875 374.730469 48.875 374.066406 47.574219 373.371094 C 46.273438 372.679688 44.992188 371.953125 43.730469 371.195312 C 42.46875 370.4375 41.222656 369.652344 40 368.832031 C 38.773438 368.015625 37.570312 367.167969 36.386719 366.289062 C 35.203125 365.410156 34.042969 364.503906 32.90625 363.570312 C 31.765625 362.636719 30.652344 361.675781 29.558594 360.683594 C 28.46875 359.695312 27.402344 358.679688 26.359375 357.640625 C 25.320312 356.597656 24.304688 355.53125 23.3125 354.441406 C 22.324219 353.347656 21.363281 352.234375 20.429688 351.09375 C 19.496094 349.957031 18.589844 348.796875 17.710938 347.613281 C 16.832031 346.429688 15.984375 345.226562 15.167969 344 C 14.347656 342.777344 13.5625 341.53125 12.804688 340.269531 C 12.046875 339.003906 11.320312 337.726562 10.628906 336.425781 C 9.933594 335.125 9.269531 333.8125 8.640625 332.480469 C 8.011719 331.148438 7.414062 329.800781 6.851562 328.441406 C 6.289062 327.082031 5.757812 325.707031 5.261719 324.320312 C 4.765625 322.933594 4.304688 321.535156 3.875 320.125 C 3.449219 318.714844 3.054688 317.296875 2.695312 315.867188 C 2.339844 314.4375 2.015625 313.003906 1.730469 311.558594 C 1.441406 310.113281 1.191406 308.664062 0.972656 307.207031 C 0.757812 305.75 0.578125 304.289062 0.433594 302.820312 C 0.289062 301.355469 0.179688 299.886719 0.109375 298.417969 C 0.0351562 296.945312 0 295.472656 0 294 L 0 90 C 0 88.527344 0.0351562 87.054688 0.109375 85.582031 C 0.179688 84.113281 0.289062 82.644531 0.433594 81.179688 C 0.578125 79.710938 0.757812 78.25 0.972656 76.792969 C 1.191406 75.335938 1.441406 73.886719 1.730469 72.441406 C 2.015625 70.996094 2.339844 69.5625 2.695312 68.132812 C 3.054688 66.703125 3.449219 65.285156 3.875 63.875 C 4.304688 62.464844 4.765625 61.066406 5.261719 59.679688 C 5.757812 58.292969 6.289062 56.917969 6.851562 55.558594 C 7.414062 54.199219 8.011719 52.851562 8.640625 51.519531 C 9.269531 50.1875 9.933594 48.875 10.628906 47.574219 C 11.320312 46.273438 12.046875 44.992188 12.804688 43.730469 C 13.5625 42.46875 14.347656 41.222656 15.167969 40 C 15.984375 38.773438 16.832031 37.570312 17.710938 36.386719 C 18.589844 35.203125 19.496094 34.042969 20.429688 32.90625 C 21.363281 31.765625 22.324219 30.652344 23.3125 29.558594 C 24.304688 28.46875 25.320312 27.402344 26.359375 26.359375 C 27.402344 25.320312 28.46875 24.304688 29.558594 23.3125 C 30.652344 22.324219 31.765625 21.363281 32.90625 20.429688 C 34.042969 19.496094 35.203125 18.589844 36.386719 17.710938 C 37.570312 16.832031 38.773438 15.984375 40 15.167969 C 41.222656 14.347656 42.46875 13.5625 43.730469 12.804688 C 44.992188 12.046875 46.273438 11.320312 47.574219 10.628906 C 48.875 9.933594 50.1875 9.269531 51.519531 8.640625 C 52.851562 8.011719 54.199219 7.414062 55.558594 6.851562 C 56.917969 6.289062 58.292969 5.757812 59.679688 5.261719 C 61.066406 4.765625 62.464844 4.304688 63.875 3.875 C 65.285156 3.449219 66.703125 3.054688 68.132812 2.695312 C 69.5625 2.339844 70.996094 2.015625 72.441406 1.730469 C 73.886719 1.441406 75.335938 1.191406 76.792969 0.972656 C 78.25 0.757812 79.710938 0.578125 81.179688 0.433594 C 82.644531 0.289062 84.113281 0.179688 85.582031 0.109375 C 87.054688 0.0351562 88.527344 0 90 0 Z M 90 0 " fill-opacity="1" fill-rule="nonzero"/><path fill="#eceff1" d="M 128.925781 299.890625 L 165.71875 320.320312 L 221.363281 320.320312 L 273.417969 281.238281 L 296.75 219.949219 L 242.902344 155.109375 L 227.644531 118.691406 L 153.15625 121.355469 L 154.054688 141.785156 L 139.695312 168.429688 L 117.257812 211.953125 L 112.769531 248.371094 Z M 128.925781 299.890625 " fill-opacity="1" fill-rule="nonzero"/><path fill="#263238" d="M 280.597656 171.984375 C 266.238281 151.554688 254.570312 139.121094 248.289062 113.359375 C 242.003906 87.601562 250.082031 94.707031 244.699219 72.503906 C 242.003906 60.953125 237.515625 52.960938 233.03125 46.742188 C 227.644531 40.527344 221.363281 36.972656 217.773438 36.085938 C 209.695312 31.644531 190.847656 24.539062 167.515625 36.972656 C 143.285156 49.40625 145.976562 76.054688 150.464844 130.238281 C 150.464844 133.789062 149.566406 138.230469 147.769531 141.785156 C 144.179688 149.777344 137.898438 156.882812 132.515625 163.101562 C 126.230469 171.984375 119.949219 180.867188 115.460938 190.636719 C 104.691406 211.066406 94.820312 236.824219 97.511719 246.59375 C 102 245.707031 158.539062 330.976562 158.539062 332.753906 C 162.128906 331.867188 177.386719 331.867188 190.847656 331.867188 C 209.695312 330.976562 220.464844 330.089844 235.722656 333.640625 C 235.722656 330.976562 234.824219 328.3125 234.824219 325.648438 C 234.824219 320.320312 235.722656 315.878906 236.621094 309.660156 C 237.515625 305.21875 238.414062 300.777344 239.3125 295.449219 C 230.339844 303.441406 214.183594 312.324219 198.925781 314.988281 C 185.464844 317.652344 163.027344 313.214844 152.257812 299.890625 C 153.15625 299.890625 154.949219 299.890625 155.847656 299 C 158.539062 298.113281 161.234375 297.226562 162.128906 295.449219 C 164.824219 291.007812 163.027344 286.566406 161.234375 283.902344 C 159.4375 281.238281 145.976562 271.464844 139.695312 266.136719 C 133.410156 260.808594 129.820312 258.140625 126.230469 254.589844 C 126.230469 254.589844 120.847656 249.261719 119.050781 247.484375 C 117.257812 245.707031 116.359375 243.929688 115.460938 243.042969 C 113.667969 238.601562 112.769531 233.273438 113.667969 226.167969 C 114.5625 216.394531 118.152344 208.402344 122.640625 199.519531 C 124.4375 195.964844 128.925781 188.859375 128.925781 188.859375 C 128.925781 188.859375 113.667969 226.167969 121.746094 237.714844 C 121.746094 237.714844 122.640625 226.167969 126.230469 214.621094 C 128.925781 206.625 133.410156 195.078125 138.796875 188.859375 C 144.179688 182.644531 157.640625 159.550781 158.539062 145.335938 C 158.539062 139.121094 159.4375 132.902344 159.4375 128.460938 C 155.847656 124.90625 218.671875 116.027344 222.261719 125.796875 C 223.15625 129.347656 235.722656 161.324219 242.902344 178.203125 C 246.492188 186.195312 250.980469 193.300781 253.671875 202.183594 C 256.363281 211.953125 258.160156 225.277344 258.160156 238.601562 C 258.160156 241.265625 258.160156 245.707031 257.261719 250.148438 C 259.058594 250.148438 294.058594 212.84375 252.777344 181.753906 C 252.777344 181.753906 277.902344 193.300781 278.800781 216.394531 C 279.699219 235.046875 271.621094 250.148438 269.828125 252.8125 C 270.722656 252.8125 288.671875 260.808594 289.570312 260.808594 C 293.160156 260.808594 300.339844 258.140625 300.339844 258.140625 C 301.238281 255.476562 303.929688 248.371094 303.929688 245.707031 C 310.214844 225.277344 294.957031 192.414062 280.597656 171.984375 Z M 280.597656 171.984375 " fill-opacity="1" fill-rule="nonzero"/><path fill="#eceff1" d="M 166.617188 113.359375 C 173.0625 113.359375 178.285156 105.40625 178.285156 95.597656 C 178.285156 85.785156 173.0625 77.832031 166.617188 77.832031 C 160.175781 77.832031 154.949219 85.785156 154.949219 95.597656 C 154.949219 105.40625 160.175781 113.359375 166.617188 113.359375 Z M 166.617188 113.359375 " fill-opacity="1" fill-rule="nonzero"/><path fill="#eceff1" d="M 207.003906 115.136719 C 215.429688 115.136719 222.261719 105.992188 222.261719 94.707031 C 222.261719 83.425781 215.429688 74.277344 207.003906 74.277344 C 198.578125 74.277344 191.746094 83.425781 191.746094 94.707031 C 191.746094 105.992188 198.578125 115.136719 207.003906 115.136719 Z M 207.003906 115.136719 " fill-opacity="1" fill-rule="nonzero"/><path fill="#212121" d="M 173.136719 96.8125 C 172.390625 90.972656 168.996094 86.585938 165.550781 87.015625 C 162.109375 87.449219 159.925781 92.53125 160.671875 98.371094 C 161.417969 104.210938 164.8125 108.597656 168.253906 108.164062 C 171.695312 107.734375 173.882812 102.652344 173.136719 96.8125 Z M 173.136719 96.8125 " fill-opacity="1" fill-rule="nonzero"/><path fill="#212121" d="M 206.105469 109.808594 C 211.0625 109.808594 215.082031 104.636719 215.082031 98.261719 C 215.082031 91.882812 211.0625 86.714844 206.105469 86.714844 C 201.148438 86.714844 197.132812 91.882812 197.132812 98.261719 C 197.132812 104.636719 201.148438 109.808594 206.105469 109.808594 Z M 206.105469 109.808594 " fill-opacity="1" fill-rule="nonzero"/><path fill="#ffc107" d="M 325.46875 293.671875 C 321.878906 291.894531 315.597656 289.230469 310.210938 281.238281 C 307.519531 276.796875 308.417969 264.359375 303.929688 259.03125 C 301.238281 255.476562 297.648438 257.253906 296.75 257.253906 C 288.671875 259.03125 269.824219 271.464844 257.261719 257.253906 C 255.464844 255.476562 252.773438 252.8125 248.289062 252.8125 C 243.800781 252.8125 242.003906 254.589844 240.210938 258.140625 C 238.414062 261.695312 238.414062 264.359375 238.414062 273.242188 C 238.414062 280.347656 238.414062 288.34375 237.515625 294.558594 C 235.722656 309.660156 233.03125 318.542969 233.03125 327.425781 C 233.03125 337.195312 235.722656 343.414062 239.3125 346.078125 C 242.003906 348.742188 246.492188 350.519531 256.363281 350.519531 C 266.238281 350.519531 272.519531 346.964844 278.800781 340.746094 C 283.289062 336.308594 286.878906 334.53125 299.445312 325.648438 C 309.316406 319.429688 324.574219 311.4375 327.265625 308.773438 C 329.058594 306.996094 331.753906 306.105469 331.753906 300.777344 C 331.753906 296.335938 328.164062 294.558594 325.46875 293.671875 Z M 325.46875 293.671875 " fill-opacity="1" fill-rule="nonzero"/><path fill="#ffc107" d="M 145.078125 296.335938 C 136.105469 282.125 135.207031 279.460938 128.921875 270.578125 C 123.539062 261.695312 111.871094 244.820312 104.691406 244.820312 C 99.308594 244.820312 96.613281 247.484375 93.023438 251.035156 C 89.433594 254.589844 85.84375 262.582031 79.5625 267.027344 C 74.179688 271.464844 58.921875 270.578125 55.332031 275.90625 C 51.742188 281.238281 58.921875 289.230469 58.921875 302.554688 C 58.921875 307.882812 54.433594 311.4375 53.535156 314.988281 C 52.640625 319.429688 51.742188 322.09375 53.535156 325.648438 C 57.125 330.976562 61.613281 332.753906 92.128906 338.972656 C 108.28125 342.523438 123.539062 351.40625 133.410156 352.296875 C 143.285156 353.183594 160.335938 352.296875 160.335938 328.3125 C 161.234375 314.101562 153.15625 310.546875 145.078125 296.335938 Z M 145.078125 296.335938 " fill-opacity="1" fill-rule="nonzero"/><path fill="#ffc107" d="M 162.128906 135.566406 C 156.746094 132.011719 152.257812 128.460938 152.257812 123.132812 C 152.257812 117.800781 155.847656 116.027344 161.234375 111.585938 C 162.128906 110.695312 172.003906 101.8125 181.875 101.8125 C 191.746094 101.8125 203.414062 108.03125 207.902344 109.808594 C 215.980469 111.585938 224.054688 113.359375 223.15625 119.578125 C 222.261719 128.460938 221.363281 130.238281 212.386719 134.679688 C 206.105469 136.453125 194.4375 146.226562 186.363281 146.226562 C 182.773438 146.226562 177.386719 146.226562 173.796875 145.335938 C 171.105469 144.449219 166.617188 140.007812 162.128906 135.566406 Z M 162.128906 135.566406 " fill-opacity="1" fill-rule="nonzero"/><path fill="#634703" d="M 160.335938 128.460938 C 162.128906 130.238281 164.824219 132.011719 167.515625 132.902344 C 169.308594 133.789062 172.003906 134.679688 172.003906 134.679688 C 175.59375 134.679688 178.285156 134.679688 180.078125 134.679688 C 184.566406 134.679688 190.847656 132.902344 197.132812 129.347656 C 203.414062 126.683594 204.3125 124.90625 208.796875 123.132812 C 213.285156 120.464844 217.773438 117.800781 215.980469 116.914062 C 214.183594 116.027344 212.386719 116.914062 206.105469 120.464844 C 200.722656 124.019531 196.234375 125.796875 190.847656 128.460938 C 188.15625 129.347656 184.566406 131.125 181.875 131.125 C 179.183594 131.125 176.488281 131.125 173.796875 131.125 C 171.105469 131.125 169.308594 130.238281 166.617188 129.347656 C 164.824219 128.460938 163.925781 127.574219 163.027344 127.574219 C 161.234375 126.683594 157.640625 123.132812 155.847656 122.242188 C 155.847656 122.242188 154.054688 122.242188 154.949219 123.132812 C 157.640625 125.796875 158.539062 126.683594 160.335938 128.460938 Z M 160.335938 128.460938 " fill-opacity="1" fill-rule="nonzero"/><path fill="#634703" d="M 187.261719 108.917969 C 188.15625 110.695312 189.953125 110.695312 190.847656 111.585938 C 191.746094 112.472656 192.644531 112.472656 192.644531 112.472656 C 193.542969 111.585938 192.644531 109.808594 191.746094 109.808594 C 191.746094 108.03125 187.261719 108.03125 187.261719 108.917969 Z M 187.261719 108.917969 " fill-opacity="1" fill-rule="nonzero"/><path fill="#634703" d="M 172.902344 110.695312 C 172.902344 111.585938 174.695312 112.472656 174.695312 111.585938 C 175.59375 110.695312 176.488281 109.808594 177.386719 109.808594 C 179.183594 108.917969 178.285156 108.03125 175.59375 108.03125 C 173.796875 108.917969 173.796875 109.808594 172.902344 110.695312 Z M 172.902344 110.695312 " fill-opacity="1" fill-rule="nonzero"/><path fill="#455a64" d="M 259.953125 267.914062 C 259.953125 268.800781 259.953125 269.691406 259.953125 270.578125 C 261.75 274.132812 266.238281 275.019531 269.824219 275.019531 C 275.210938 275.019531 280.597656 271.464844 283.289062 267.914062 C 283.289062 267.027344 284.183594 266.136719 285.085938 265.246094 C 286.878906 262.582031 287.777344 260.808594 288.671875 259.917969 C 288.671875 259.917969 287.777344 259.03125 287.777344 258.140625 C 286.878906 256.367188 284.183594 254.589844 280.597656 253.699219 C 277.902344 252.8125 273.417969 251.925781 271.621094 251.925781 C 263.542969 251.035156 259.058594 253.699219 256.363281 256.367188 C 256.363281 256.367188 257.261719 256.367188 257.261719 257.253906 C 259.058594 259.03125 259.953125 260.808594 259.953125 263.472656 C 260.851562 265.246094 259.953125 266.136719 259.953125 267.914062 Z M 259.953125 267.914062 " fill-opacity="1" fill-rule="nonzero"/></svg>