<svg xmlns="http://www.w3.org/2000/svg" xmlns:xlink="http://www.w3.org/1999/xlink" width="512" zoomAndPan="magnify" viewBox="0 0 384 383.999986" height="512" preserveAspectRatio="xMidYMid meet" version="1.0"><path fill="#242938" d="M 90 0 L 294 0 C 295.472656 0 296.945312 0.0351562 298.417969 0.109375 C 299.886719 0.179688 301.355469 0.289062 302.820312 0.433594 C 304.289062 0.578125 305.75 0.757812 307.207031 0.972656 C 308.664062 1.191406 310.113281 1.441406 311.558594 1.730469 C 313.003906 2.015625 314.4375 2.339844 315.867188 2.695312 C 317.296875 3.054688 318.714844 3.449219 320.125 3.875 C 321.535156 4.304688 322.933594 4.765625 324.320312 5.261719 C 325.707031 5.757812 327.082031 6.289062 328.441406 6.851562 C 329.800781 7.414062 331.148438 8.011719 332.480469 8.640625 C 333.8125 9.269531 335.125 9.933594 336.425781 10.628906 C 337.726562 11.320312 339.003906 12.046875 340.269531 12.804688 C 341.53125 13.5625 342.777344 14.347656 344 15.167969 C 345.226562 15.984375 346.429688 16.832031 347.613281 17.710938 C 348.796875 18.589844 349.957031 19.496094 351.09375 20.429688 C 352.234375 21.363281 353.347656 22.324219 354.441406 23.3125 C 355.53125 24.304688 356.597656 25.320312 357.640625 26.359375 C 358.679688 27.402344 359.695312 28.46875 360.6875 29.558594 C 361.675781 30.652344 362.636719 31.765625 363.570312 32.90625 C 364.503906 34.042969 365.410156 35.203125 366.289062 36.386719 C 367.167969 37.570312 368.015625 38.773438 368.832031 40 C 369.652344 41.222656 370.4375 42.46875 371.195312 43.730469 C 371.953125 44.992188 372.679688 46.273438 373.371094 47.574219 C 374.066406 48.875 374.730469 50.1875 375.359375 51.519531 C 375.988281 52.851562 376.585938 54.199219 377.148438 55.558594 C 377.710938 56.917969 378.242188 58.292969 378.738281 59.679688 C 379.234375 61.066406 379.695312 62.464844 380.125 63.875 C 380.550781 65.285156 380.945312 66.703125 381.304688 68.132812 C 381.660156 69.5625 381.984375 70.996094 382.269531 72.441406 C 382.558594 73.886719 382.808594 75.335938 383.027344 76.792969 C 383.242188 78.25 383.421875 79.710938 383.566406 81.179688 C 383.710938 82.644531 383.820312 84.113281 383.890625 85.582031 C 383.964844 87.054688 384 88.527344 384 90 L 384 294 C 384 295.472656 383.964844 296.945312 383.890625 298.417969 C 383.820312 299.886719 383.710938 301.355469 383.566406 302.820312 C 383.421875 304.289062 383.242188 305.75 383.027344 307.207031 C 382.808594 308.664062 382.558594 310.113281 382.269531 311.558594 C 381.984375 313.003906 381.660156 314.4375 381.304688 315.867188 C 380.945312 317.296875 380.550781 318.714844 380.125 320.125 C 379.695312 321.535156 379.234375 322.933594 378.738281 324.320312 C 378.242188 325.707031 377.710938 327.082031 377.148438 328.441406 C 376.585938 329.800781 375.988281 331.148438 375.359375 332.480469 C 374.730469 333.8125 374.066406 335.125 373.371094 336.425781 C 372.679688 337.726562 371.953125 339.003906 371.195312 340.269531 C 370.4375 341.53125 369.652344 342.777344 368.832031 344 C 368.015625 345.226562 367.167969 346.429688 366.289062 347.613281 C 365.410156 348.796875 364.503906 349.957031 363.570312 351.09375 C 362.636719 352.234375 361.675781 353.347656 360.6875 354.441406 C 359.695312 355.53125 358.679688 356.597656 357.640625 357.640625 C 356.597656 358.679688 355.53125 359.695312 354.441406 360.683594 C 353.347656 361.675781 352.234375 362.636719 351.09375 363.570312 C 349.957031 364.503906 348.796875 365.410156 347.613281 366.289062 C 346.429688 367.167969 345.226562 368.015625 344 368.832031 C 342.777344 369.652344 341.53125 370.4375 340.269531 371.195312 C 339.007812 371.953125 337.726562 372.679688 336.425781 373.371094 C 335.125 374.066406 333.8125 374.730469 332.480469 375.359375 C 331.148438 375.988281 329.800781 376.585938 328.441406 377.148438 C 327.082031 377.710938 325.707031 378.242188 324.320312 378.738281 C 322.933594 379.234375 321.535156 379.695312 320.125 380.125 C 318.714844 380.550781 317.296875 380.945312 315.867188 381.304688 C 314.4375 381.660156 313.003906 381.984375 311.558594 382.269531 C 310.113281 382.558594 308.664062 382.808594 307.207031 383.027344 C 305.75 383.242188 304.289062 383.421875 302.820312 383.566406 C 301.355469 383.710938 299.886719 383.820312 298.417969 383.890625 C 296.945312 383.964844 295.472656 384 294 384 L 90 384 C 88.527344 384 87.054688 383.964844 85.582031 383.890625 C 84.113281 383.820312 82.644531 383.710938 81.179688 383.566406 C 79.710938 383.421875 78.25 383.242188 76.792969 383.027344 C 75.335938 382.808594 73.886719 382.558594 72.441406 382.269531 C 70.996094 381.984375 69.5625 381.660156 68.132812 381.304688 C 66.703125 380.945312 65.285156 380.550781 63.875 380.125 C 62.464844 379.695312 61.066406 379.234375 59.679688 378.738281 C 58.292969 378.242188 56.917969 377.710938 55.558594 377.148438 C 54.199219 376.585938 52.851562 375.988281 51.519531 375.359375 C 50.1875 374.730469 48.875 374.066406 47.574219 373.371094 C 46.273438 372.679688 44.992188 371.953125 43.730469 371.195312 C 42.46875 370.4375 41.222656 369.652344 40 368.832031 C 38.773438 368.015625 37.570312 367.167969 36.386719 366.289062 C 35.203125 365.410156 34.042969 364.503906 32.90625 363.570312 C 31.765625 362.636719 30.652344 361.675781 29.558594 360.683594 C 28.46875 359.695312 27.402344 358.679688 26.359375 357.640625 C 25.320312 356.597656 24.304688 355.53125 23.3125 354.441406 C 22.324219 353.347656 21.363281 352.234375 20.429688 351.09375 C 19.496094 349.957031 18.589844 348.796875 17.710938 347.613281 C 16.832031 346.429688 15.984375 345.226562 15.167969 344 C 14.347656 342.777344 13.5625 341.53125 12.804688 340.269531 C 12.046875 339.003906 11.320312 337.726562 10.628906 336.425781 C 9.933594 335.125 9.269531 333.8125 8.640625 332.480469 C 8.011719 331.148438 7.414062 329.800781 6.851562 328.441406 C 6.289062 327.082031 5.757812 325.707031 5.261719 324.320312 C 4.765625 322.933594 4.304688 321.535156 3.875 320.125 C 3.449219 318.714844 3.054688 317.296875 2.695312 315.867188 C 2.339844 314.4375 2.015625 313.003906 1.730469 311.558594 C 1.441406 310.113281 1.191406 308.664062 0.972656 307.207031 C 0.757812 305.75 0.578125 304.289062 0.433594 302.820312 C 0.289062 301.355469 0.179688 299.886719 0.109375 298.417969 C 0.0351562 296.945312 0 295.472656 0 294 L 0 90 C 0 88.527344 0.0351562 87.054688 0.109375 85.582031 C 0.179688 84.113281 0.289062 82.644531 0.433594 81.179688 C 0.578125 79.710938 0.757812 78.25 0.972656 76.792969 C 1.191406 75.335938 1.441406 73.886719 1.730469 72.441406 C 2.015625 70.996094 2.339844 69.5625 2.695312 68.132812 C 3.054688 66.703125 3.449219 65.285156 3.875 63.875 C 4.304688 62.464844 4.765625 61.066406 5.261719 59.679688 C 5.757812 58.292969 6.289062 56.917969 6.851562 55.558594 C 7.414062 54.199219 8.011719 52.851562 8.640625 51.519531 C 9.269531 50.1875 9.933594 48.875 10.628906 47.574219 C 11.320312 46.273438 12.046875 44.992188 12.804688 43.730469 C 13.5625 42.46875 14.347656 41.222656 15.167969 40 C 15.984375 38.773438 16.832031 37.570312 17.710938 36.386719 C 18.589844 35.203125 19.496094 34.042969 20.429688 32.90625 C 21.363281 31.765625 22.324219 30.652344 23.3125 29.558594 C 24.304688 28.46875 25.320312 27.402344 26.359375 26.359375 C 27.402344 25.320312 28.46875 24.304688 29.558594 23.3125 C 30.652344 22.324219 31.765625 21.363281 32.90625 20.429688 C 34.042969 19.496094 35.203125 18.589844 36.386719 17.710938 C 37.570312 16.832031 38.773438 15.984375 40 15.167969 C 41.222656 14.347656 42.46875 13.5625 43.730469 12.804688 C 44.992188 12.046875 46.273438 11.320312 47.574219 10.628906 C 48.875 9.933594 50.1875 9.269531 51.519531 8.640625 C 52.851562 8.011719 54.199219 7.414062 55.558594 6.851562 C 56.917969 6.289062 58.292969 5.757812 59.679688 5.261719 C 61.066406 4.765625 62.464844 4.304688 63.875 3.875 C 65.285156 3.449219 66.703125 3.054688 68.132812 2.695312 C 69.5625 2.339844 70.996094 2.015625 72.441406 1.730469 C 73.886719 1.441406 75.335938 1.191406 76.792969 0.972656 C 78.25 0.757812 79.710938 0.578125 81.179688 0.433594 C 82.644531 0.289062 84.113281 0.179688 85.582031 0.109375 C 87.054688 0.0351562 88.527344 0 90 0 Z M 90 0 " fill-opacity="1" fill-rule="nonzero"/><path fill="#ffffff" d="M 305.703125 267.316406 C 291.015625 266.90625 279.625 268.410156 270.078125 272.429688 C 267.328125 273.53125 262.914062 273.53125 262.550781 276.992188 C 264.023438 278.445312 264.199219 280.820312 265.488281 282.832031 C 267.6875 286.488281 271.550781 291.40625 275.035156 293.960938 L 286.785156 302.355469 C 293.949219 306.730469 302.027344 309.289062 309.003906 313.667969 C 313.042969 316.226562 317.082031 319.511719 321.121094 322.25 C 323.179688 323.710938 324.425781 326.089844 327 326.996094 L 327 326.445312 C 325.714844 324.808594 325.34375 322.433594 324.066406 320.601562 L 318.550781 315.3125 C 313.230469 308.199219 306.613281 301.988281 299.453125 296.882812 C 293.578125 292.867188 280.726562 287.394531 278.339844 280.644531 L 277.976562 280.234375 C 282.011719 279.828125 286.785156 278.40625 290.644531 277.3125 C 296.894531 275.675781 302.582031 276.035156 309.003906 274.394531 L 317.824219 271.839844 L 317.824219 270.203125 C 314.515625 266.917969 312.128906 262.539062 308.644531 259.4375 C 299.28125 251.410156 288.992188 243.558594 278.339844 236.992188 C 272.648438 233.34375 265.300781 230.964844 259.242188 227.871094 C 257.035156 226.773438 253.367188 226.226562 252.082031 224.402344 C 248.769531 220.394531 246.9375 215.09375 244.550781 210.347656 L 229.496094 178.597656 C 226.191406 171.476562 224.164062 164.359375 220.132812 157.792969 C 201.214844 126.769531 180.648438 107.972656 149.0625 89.539062 C 142.273438 85.707031 134.191406 84.058594 125.601562 82.054688 L 111.832031 81.320312 C 108.890625 80.042969 105.953125 76.574219 103.382812 74.929688 C 92.917969 68.359375 65.921875 54.128906 58.203125 72.882812 C 53.246094 84.746094 65.550781 96.421875 69.726562 102.449219 C 72.855469 106.644531 76.890625 111.390625 79.101562 116.132812 C 80.335938 119.234375 80.746094 122.523438 82.035156 125.808594 C 84.96875 133.835938 87.726562 142.78125 91.582031 150.265625 C 93.640625 154.097656 95.800781 158.121094 98.375 161.585938 C 99.84375 163.628906 102.414062 164.503906 102.960938 167.789062 C 100.390625 171.441406 100.214844 176.910156 98.742188 181.480469 C 92.128906 202.101562 94.703125 227.648438 104.066406 242.832031 C 107.007812 247.390625 113.941406 257.433594 123.351562 253.597656 C 131.617188 250.3125 129.773438 239.910156 132.160156 230.785156 C 132.714844 228.597656 132.34375 227.136719 133.445312 225.671875 L 133.445312 226.082031 L 140.976562 241.226562 C 146.667969 250.171875 156.585938 259.480469 164.84375 265.6875 C 169.25 268.972656 172.738281 274.632812 178.246094 276.636719 L 178.246094 276.085938 L 177.886719 276.085938 C 176.78125 274.449219 175.125 273.710938 173.65625 272.4375 C 170.351562 269.152344 166.679688 265.136719 164.109375 261.488281 C 156.402344 251.269531 149.609375 239.953125 143.546875 228.273438 C 140.605469 222.617188 138.03125 216.414062 135.652344 210.757812 C 134.542969 208.566406 134.542969 205.273438 132.710938 204.1875 C 129.953125 208.195312 125.917969 211.671875 123.890625 216.597656 C 120.402344 224.441406 120.039062 234.117188 118.753906 244.152344 C 118.015625 244.335938 118.34375 244.152344 118.015625 244.5625 C 112.144531 243.105469 110.121094 237.078125 107.917969 231.972656 C 102.410156 219.015625 101.488281 198.210938 106.261719 183.246094 C 107.546875 179.414062 113.0625 167.367188 110.859375 163.71875 C 109.75 160.25 106.085938 158.246094 104.0625 155.507812 C 101.675781 152.039062 99.109375 147.660156 97.457031 143.828125 C 93.050781 133.601562 90.851562 122.292969 86.070312 112.074219 C 83.863281 107.328125 80.007812 102.398438 76.886719 98.023438 C 73.394531 93.09375 69.546875 89.625 66.789062 83.789062 C 65.871094 81.742188 64.585938 78.496094 66.058594 76.304688 C 66.417969 74.84375 67.160156 74.257812 68.621094 73.933594 C 71.007812 71.886719 77.808594 74.480469 80.195312 75.566406 C 86.984375 78.308594 92.675781 80.859375 98.371094 84.6875 C 100.941406 86.511719 103.699219 89.980469 107.003906 90.898438 L 110.863281 90.898438 C 116.742188 92.175781 123.347656 91.308594 128.851562 92.941406 C 138.582031 96.050781 147.394531 100.609375 155.296875 105.539062 C 179.351562 120.6875 199.1875 142.222656 212.585938 167.957031 C 214.789062 172.152344 215.707031 175.984375 217.734375 180.367188 C 221.59375 189.3125 226.367188 198.433594 230.214844 207.199219 C 234.078125 215.773438 237.746094 224.539062 243.253906 231.65625 C 246.011719 235.488281 257.023438 237.492188 261.980469 239.503906 C 265.65625 241.136719 271.34375 242.613281 274.65625 244.617188 C 280.894531 248.449219 287.140625 252.828125 293.011719 257.023438 C 295.945312 259.207031 305.132812 263.773438 305.679688 267.414062 Z M 118.4375 108.730469 C 115.902344 108.707031 113.371094 109.015625 110.914062 109.644531 L 110.914062 110.050781 L 111.277344 110.050781 C 112.746094 112.972656 115.316406 114.980469 117.152344 117.539062 L 121.378906 126.296875 L 121.742188 125.890625 C 124.316406 124.066406 125.601562 121.144531 125.601562 116.769531 C 124.5 115.492188 124.320312 114.210938 123.402344 112.9375 C 122.296875 111.113281 119.910156 110.195312 118.4375 108.738281 Z M 118.4375 108.730469 " fill-opacity="1" fill-rule="evenodd"/></svg>