<svg xmlns="http://www.w3.org/2000/svg" xmlns:xlink="http://www.w3.org/1999/xlink" width="512" zoomAndPan="magnify" viewBox="0 0 384 383.999986" height="512" preserveAspectRatio="xMidYMid meet" version="1.0"><path fill="#242938" d="M 90 0 L 294 0 C 295.472656 0 296.945312 0.0351562 298.417969 0.109375 C 299.886719 0.179688 301.355469 0.289062 302.820312 0.433594 C 304.289062 0.578125 305.75 0.757812 307.207031 0.972656 C 308.664062 1.191406 310.113281 1.441406 311.558594 1.730469 C 313.003906 2.015625 314.4375 2.339844 315.867188 2.695312 C 317.296875 3.054688 318.714844 3.449219 320.125 3.875 C 321.535156 4.304688 322.933594 4.765625 324.320312 5.261719 C 325.707031 5.757812 327.082031 6.289062 328.441406 6.851562 C 329.800781 7.414062 331.148438 8.011719 332.480469 8.640625 C 333.8125 9.269531 335.125 9.933594 336.425781 10.628906 C 337.726562 11.320312 339.003906 12.046875 340.269531 12.804688 C 341.53125 13.5625 342.777344 14.347656 344 15.167969 C 345.226562 15.984375 346.429688 16.832031 347.613281 17.710938 C 348.796875 18.589844 349.957031 19.496094 351.09375 20.429688 C 352.234375 21.363281 353.347656 22.324219 354.441406 23.3125 C 355.53125 24.304688 356.597656 25.320312 357.640625 26.359375 C 358.679688 27.402344 359.695312 28.46875 360.6875 29.558594 C 361.675781 30.652344 362.636719 31.765625 363.570312 32.90625 C 364.503906 34.042969 365.410156 35.203125 366.289062 36.386719 C 367.167969 37.570312 368.015625 38.773438 368.832031 40 C 369.652344 41.222656 370.4375 42.46875 371.195312 43.730469 C 371.953125 44.992188 372.679688 46.273438 373.371094 47.574219 C 374.066406 48.875 374.730469 50.1875 375.359375 51.519531 C 375.988281 52.851562 376.585938 54.199219 377.148438 55.558594 C 377.710938 56.917969 378.242188 58.292969 378.738281 59.679688 C 379.234375 61.066406 379.695312 62.464844 380.125 63.875 C 380.550781 65.285156 380.945312 66.703125 381.304688 68.132812 C 381.660156 69.5625 381.984375 70.996094 382.269531 72.441406 C 382.558594 73.886719 382.808594 75.335938 383.027344 76.792969 C 383.242188 78.25 383.421875 79.710938 383.566406 81.179688 C 383.710938 82.644531 383.820312 84.113281 383.890625 85.582031 C 383.964844 87.054688 384 88.527344 384 90 L 384 294 C 384 295.472656 383.964844 296.945312 383.890625 298.417969 C 383.820312 299.886719 383.710938 301.355469 383.566406 302.820312 C 383.421875 304.289062 383.242188 305.75 383.027344 307.207031 C 382.808594 308.664062 382.558594 310.113281 382.269531 311.558594 C 381.984375 313.003906 381.660156 314.4375 381.304688 315.867188 C 380.945312 317.296875 380.550781 318.714844 380.125 320.125 C 379.695312 321.535156 379.234375 322.933594 378.738281 324.320312 C 378.242188 325.707031 377.710938 327.082031 377.148438 328.441406 C 376.585938 329.800781 375.988281 331.148438 375.359375 332.480469 C 374.730469 333.8125 374.066406 335.125 373.371094 336.425781 C 372.679688 337.726562 371.953125 339.003906 371.195312 340.269531 C 370.4375 341.53125 369.652344 342.777344 368.832031 344 C 368.015625 345.226562 367.167969 346.429688 366.289062 347.613281 C 365.410156 348.796875 364.503906 349.957031 363.570312 351.09375 C 362.636719 352.234375 361.675781 353.347656 360.6875 354.441406 C 359.695312 355.53125 358.679688 356.597656 357.640625 357.640625 C 356.597656 358.679688 355.53125 359.695312 354.441406 360.683594 C 353.347656 361.675781 352.234375 362.636719 351.09375 363.570312 C 349.957031 364.503906 348.796875 365.410156 347.613281 366.289062 C 346.429688 367.167969 345.226562 368.015625 344 368.832031 C 342.777344 369.652344 341.53125 370.4375 340.269531 371.195312 C 339.007812 371.953125 337.726562 372.679688 336.425781 373.371094 C 335.125 374.066406 333.8125 374.730469 332.480469 375.359375 C 331.148438 375.988281 329.800781 376.585938 328.441406 377.148438 C 327.082031 377.710938 325.707031 378.242188 324.320312 378.738281 C 322.933594 379.234375 321.535156 379.695312 320.125 380.125 C 318.714844 380.550781 317.296875 380.945312 315.867188 381.304688 C 314.4375 381.660156 313.003906 381.984375 311.558594 382.269531 C 310.113281 382.558594 308.664062 382.808594 307.207031 383.027344 C 305.75 383.242188 304.289062 383.421875 302.820312 383.566406 C 301.355469 383.710938 299.886719 383.820312 298.417969 383.890625 C 296.945312 383.964844 295.472656 384 294 384 L 90 384 C 88.527344 384 87.054688 383.964844 85.582031 383.890625 C 84.113281 383.820312 82.644531 383.710938 81.179688 383.566406 C 79.710938 383.421875 78.25 383.242188 76.792969 383.027344 C 75.335938 382.808594 73.886719 382.558594 72.441406 382.269531 C 70.996094 381.984375 69.5625 381.660156 68.132812 381.304688 C 66.703125 380.945312 65.285156 380.550781 63.875 380.125 C 62.464844 379.695312 61.066406 379.234375 59.679688 378.738281 C 58.292969 378.242188 56.917969 377.710938 55.558594 377.148438 C 54.199219 376.585938 52.851562 375.988281 51.519531 375.359375 C 50.1875 374.730469 48.875 374.066406 47.574219 373.371094 C 46.273438 372.679688 44.992188 371.953125 43.730469 371.195312 C 42.46875 370.4375 41.222656 369.652344 40 368.832031 C 38.773438 368.015625 37.570312 367.167969 36.386719 366.289062 C 35.203125 365.410156 34.042969 364.503906 32.90625 363.570312 C 31.765625 362.636719 30.652344 361.675781 29.558594 360.683594 C 28.46875 359.695312 27.402344 358.679688 26.359375 357.640625 C 25.320312 356.597656 24.304688 355.53125 23.3125 354.441406 C 22.324219 353.347656 21.363281 352.234375 20.429688 351.09375 C 19.496094 349.957031 18.589844 348.796875 17.710938 347.613281 C 16.832031 346.429688 15.984375 345.226562 15.167969 344 C 14.347656 342.777344 13.5625 341.53125 12.804688 340.269531 C 12.046875 339.003906 11.320312 337.726562 10.628906 336.425781 C 9.933594 335.125 9.269531 333.8125 8.640625 332.480469 C 8.011719 331.148438 7.414062 329.800781 6.851562 328.441406 C 6.289062 327.082031 5.757812 325.707031 5.261719 324.320312 C 4.765625 322.933594 4.304688 321.535156 3.875 320.125 C 3.449219 318.714844 3.054688 317.296875 2.695312 315.867188 C 2.339844 314.4375 2.015625 313.003906 1.730469 311.558594 C 1.441406 310.113281 1.191406 308.664062 0.972656 307.207031 C 0.757812 305.75 0.578125 304.289062 0.433594 302.820312 C 0.289062 301.355469 0.179688 299.886719 0.109375 298.417969 C 0.0351562 296.945312 0 295.472656 0 294 L 0 90 C 0 88.527344 0.0351562 87.054688 0.109375 85.582031 C 0.179688 84.113281 0.289062 82.644531 0.433594 81.179688 C 0.578125 79.710938 0.757812 78.25 0.972656 76.792969 C 1.191406 75.335938 1.441406 73.886719 1.730469 72.441406 C 2.015625 70.996094 2.339844 69.5625 2.695312 68.132812 C 3.054688 66.703125 3.449219 65.285156 3.875 63.875 C 4.304688 62.464844 4.765625 61.066406 5.261719 59.679688 C 5.757812 58.292969 6.289062 56.917969 6.851562 55.558594 C 7.414062 54.199219 8.011719 52.851562 8.640625 51.519531 C 9.269531 50.1875 9.933594 48.875 10.628906 47.574219 C 11.320312 46.273438 12.046875 44.992188 12.804688 43.730469 C 13.5625 42.46875 14.347656 41.222656 15.167969 40 C 15.984375 38.773438 16.832031 37.570312 17.710938 36.386719 C 18.589844 35.203125 19.496094 34.042969 20.429688 32.90625 C 21.363281 31.765625 22.324219 30.652344 23.3125 29.558594 C 24.304688 28.46875 25.320312 27.402344 26.359375 26.359375 C 27.402344 25.320312 28.46875 24.304688 29.558594 23.3125 C 30.652344 22.324219 31.765625 21.363281 32.90625 20.429688 C 34.042969 19.496094 35.203125 18.589844 36.386719 17.710938 C 37.570312 16.832031 38.773438 15.984375 40 15.167969 C 41.222656 14.347656 42.46875 13.5625 43.730469 12.804688 C 44.992188 12.046875 46.273438 11.320312 47.574219 10.628906 C 48.875 9.933594 50.1875 9.269531 51.519531 8.640625 C 52.851562 8.011719 54.199219 7.414062 55.558594 6.851562 C 56.917969 6.289062 58.292969 5.757812 59.679688 5.261719 C 61.066406 4.765625 62.464844 4.304688 63.875 3.875 C 65.285156 3.449219 66.703125 3.054688 68.132812 2.695312 C 69.5625 2.339844 70.996094 2.015625 72.441406 1.730469 C 73.886719 1.441406 75.335938 1.191406 76.792969 0.972656 C 78.25 0.757812 79.710938 0.578125 81.179688 0.433594 C 82.644531 0.289062 84.113281 0.179688 85.582031 0.109375 C 87.054688 0.0351562 88.527344 0 90 0 Z M 90 0 " fill-opacity="1" fill-rule="nonzero"/><path fill="#ff0101" d="M 156.042969 183.871094 C 142.621094 176.121094 132.128906 164.160156 126.199219 149.84375 C 120.269531 135.523438 119.230469 119.648438 123.238281 104.679688 C 127.25 89.710938 136.089844 76.484375 148.382812 67.046875 C 160.679688 57.613281 175.746094 52.5 191.242188 52.5 C 206.738281 52.5 221.804688 57.613281 234.097656 67.046875 C 246.394531 76.484375 255.234375 89.710938 259.242188 104.679688 C 263.257812 119.648438 262.214844 135.523438 256.285156 149.84375 C 250.351562 164.160156 239.863281 176.121094 226.441406 183.871094 L 205.246094 147.15625 C 210.585938 144.074219 214.757812 139.316406 217.117188 133.621094 C 219.476562 127.921875 219.890625 121.609375 218.296875 115.652344 C 216.699219 109.695312 213.183594 104.433594 208.292969 100.679688 C 203.398438 96.929688 197.40625 94.894531 191.242188 94.894531 C 185.074219 94.894531 179.082031 96.929688 174.191406 100.679688 C 169.300781 104.433594 165.785156 109.695312 164.1875 115.652344 C 162.59375 121.609375 163.007812 127.921875 165.367188 133.621094 C 167.726562 139.316406 171.898438 144.074219 177.238281 147.15625 Z M 156.042969 183.871094 " fill-opacity="1" fill-rule="nonzero"/><path fill="#0101ff" d="M 306.800781 200.914062 C 320.222656 208.664062 330.710938 220.625 336.640625 234.941406 C 342.570312 249.257812 343.613281 265.132812 339.601562 280.105469 C 335.589844 295.074219 326.75 308.300781 314.457031 317.734375 C 302.160156 327.171875 287.097656 332.285156 271.597656 332.285156 C 256.101562 332.285156 241.035156 327.171875 228.742188 317.734375 C 216.445312 308.300781 207.609375 295.074219 203.597656 280.105469 C 199.585938 265.132812 200.625 249.257812 206.554688 234.941406 C 212.488281 220.625 222.976562 208.664062 236.398438 200.914062 L 257.59375 237.628906 C 252.253906 240.710938 248.082031 245.46875 245.722656 251.164062 C 243.363281 256.863281 242.949219 263.175781 244.546875 269.132812 C 246.140625 275.089844 249.65625 280.351562 254.546875 284.101562 C 259.441406 287.855469 265.433594 289.890625 271.597656 289.890625 C 277.765625 289.890625 283.757812 287.855469 288.648438 284.101562 C 293.539062 280.351562 297.058594 275.089844 298.652344 269.132812 C 300.246094 263.175781 299.832031 256.863281 297.472656 251.164062 C 295.113281 245.46875 290.941406 240.710938 285.601562 237.628906 Z M 306.800781 200.914062 " fill-opacity="1" fill-rule="nonzero"/><path fill="#01ff01" d="M 182.800781 261.882812 C 182.800781 277.382812 177.6875 292.445312 168.253906 304.738281 C 158.820312 317.035156 145.59375 325.875 130.621094 329.886719 C 115.652344 333.898438 99.777344 332.855469 85.460938 326.925781 C 71.140625 320.992188 59.179688 310.503906 51.433594 297.082031 C 43.683594 283.660156 40.578125 268.058594 42.601562 252.695312 C 44.625 237.328125 51.660156 223.058594 62.621094 212.101562 C 73.578125 201.144531 87.847656 194.109375 103.210938 192.085938 C 118.578125 190.0625 134.179688 193.164062 147.601562 200.914062 L 126.40625 237.628906 C 121.066406 234.542969 114.859375 233.308594 108.746094 234.117188 C 102.632812 234.917969 96.957031 237.71875 92.597656 242.078125 C 88.238281 246.4375 85.4375 252.117188 84.632812 258.226562 C 83.828125 264.339844 85.0625 270.546875 88.144531 275.886719 C 91.230469 281.226562 95.988281 285.398438 101.683594 287.757812 C 107.378906 290.117188 113.695312 290.53125 119.648438 288.9375 C 125.605469 287.339844 130.867188 283.824219 134.621094 278.933594 C 138.375 274.042969 140.410156 268.046875 140.410156 261.882812 Z M 182.800781 261.882812 " fill-opacity="1" fill-rule="nonzero"/></svg>