<svg xmlns="http://www.w3.org/2000/svg" xmlns:xlink="http://www.w3.org/1999/xlink" width="512" zoomAndPan="magnify" viewBox="0 0 384 383.999986" height="512" preserveAspectRatio="xMidYMid meet" version="1.0"><defs><clipPath id="fd39919038"><path d="M 42 43 L 265 43 L 265 267 L 42 267 Z M 42 43 " clip-rule="nonzero"/></clipPath><clipPath id="baa9d140c4"><path d="M 190.917969 43.5 C 114.761719 43.5 119.515625 76.527344 119.515625 76.527344 L 119.601562 110.742188 L 192.277344 110.742188 L 192.277344 121.015625 L 90.734375 121.015625 C 90.734375 121.015625 42 115.488281 42 192.332031 C 42 269.179688 84.535156 266.453125 84.535156 266.453125 L 109.921875 266.453125 L 109.921875 230.792969 C 109.921875 230.792969 108.554688 188.257812 151.777344 188.257812 L 223.859375 188.257812 C 223.859375 188.257812 264.359375 188.914062 264.359375 149.117188 L 264.359375 83.320312 C 264.359375 83.320312 270.507812 43.5 190.917969 43.5 Z M 150.84375 66.507812 C 158.074219 66.507812 163.921875 72.351562 163.921875 79.582031 C 163.921875 86.8125 158.074219 92.660156 150.84375 92.660156 C 143.613281 92.660156 137.769531 86.8125 137.769531 79.582031 C 137.769531 72.351562 143.613281 66.507812 150.84375 66.507812 Z M 150.84375 66.507812 " clip-rule="nonzero"/></clipPath><linearGradient x1="28.566079" gradientTransform="matrix(1.5, 0, 0, 1.5, 0.0000072, 0)" y1="28.428214" x2="180.721125" gradientUnits="userSpaceOnUse" y2="179.064998" id="84543b1ff6"><stop stop-opacity="1" stop-color="rgb(21.998596%, 49.398804%, 72.198486%)" offset="0"/><stop stop-opacity="1" stop-color="rgb(21.99707%, 49.383545%, 72.172546%)" offset="0.125"/><stop stop-opacity="1" stop-color="rgb(21.986389%, 49.27063%, 71.975708%)" offset="0.140625"/><stop stop-opacity="1" stop-color="rgb(21.966553%, 49.073792%, 71.635437%)" offset="0.15625"/><stop stop-opacity="1" stop-color="rgb(21.948242%, 48.876953%, 71.295166%)" offset="0.171875"/><stop stop-opacity="1" stop-color="rgb(21.928406%, 48.680115%, 70.954895%)" offset="0.1875"/><stop stop-opacity="1" stop-color="rgb(21.910095%, 48.483276%, 70.613098%)" offset="0.203125"/><stop stop-opacity="1" stop-color="rgb(21.890259%, 48.286438%, 70.272827%)" offset="0.21875"/><stop stop-opacity="1" stop-color="rgb(21.870422%, 48.0896%, 69.932556%)" offset="0.234375"/><stop stop-opacity="1" stop-color="rgb(21.852112%, 47.892761%, 69.592285%)" offset="0.25"/><stop stop-opacity="1" stop-color="rgb(21.832275%, 47.695923%, 69.250488%)" offset="0.265625"/><stop stop-opacity="1" stop-color="rgb(21.813965%, 47.499084%, 68.910217%)" offset="0.28125"/><stop stop-opacity="1" stop-color="rgb(21.794128%, 47.303772%, 68.569946%)" offset="0.296875"/><stop stop-opacity="1" stop-color="rgb(21.775818%, 47.106934%, 68.229675%)" offset="0.3125"/><stop stop-opacity="1" stop-color="rgb(21.755981%, 46.910095%, 67.887878%)" offset="0.328125"/><stop stop-opacity="1" stop-color="rgb(21.736145%, 46.713257%, 67.547607%)" offset="0.34375"/><stop stop-opacity="1" stop-color="rgb(21.717834%, 46.516418%, 67.207336%)" offset="0.359375"/><stop stop-opacity="1" stop-color="rgb(21.697998%, 46.31958%, 66.867065%)" offset="0.375"/><stop stop-opacity="1" stop-color="rgb(21.679688%, 46.122742%, 66.526794%)" offset="0.390625"/><stop stop-opacity="1" stop-color="rgb(21.659851%, 45.925903%, 66.184998%)" offset="0.40625"/><stop stop-opacity="1" stop-color="rgb(21.641541%, 45.729065%, 65.844727%)" offset="0.421875"/><stop stop-opacity="1" stop-color="rgb(21.621704%, 45.532227%, 65.504456%)" offset="0.4375"/><stop stop-opacity="1" stop-color="rgb(21.601868%, 45.335388%, 65.164185%)" offset="0.453125"/><stop stop-opacity="1" stop-color="rgb(21.583557%, 45.140076%, 64.822388%)" offset="0.46875"/><stop stop-opacity="1" stop-color="rgb(21.563721%, 44.943237%, 64.482117%)" offset="0.484375"/><stop stop-opacity="1" stop-color="rgb(21.54541%, 44.746399%, 64.141846%)" offset="0.494379"/><stop stop-opacity="1" stop-color="rgb(21.536255%, 44.648743%, 63.972473%)" offset="0.5"/><stop stop-opacity="1" stop-color="rgb(21.525574%, 44.549561%, 63.801575%)" offset="0.505621"/><stop stop-opacity="1" stop-color="rgb(21.516418%, 44.451904%, 63.632202%)" offset="0.515625"/><stop stop-opacity="1" stop-color="rgb(21.507263%, 44.352722%, 63.461304%)" offset="0.53125"/><stop stop-opacity="1" stop-color="rgb(21.487427%, 44.155884%, 63.119507%)" offset="0.546875"/><stop stop-opacity="1" stop-color="rgb(21.46759%, 43.959045%, 62.779236%)" offset="0.5625"/><stop stop-opacity="1" stop-color="rgb(21.44928%, 43.762207%, 62.438965%)" offset="0.578125"/><stop stop-opacity="1" stop-color="rgb(21.429443%, 43.565369%, 62.098694%)" offset="0.59375"/><stop stop-opacity="1" stop-color="rgb(21.411133%, 43.36853%, 61.756897%)" offset="0.609375"/><stop stop-opacity="1" stop-color="rgb(21.391296%, 43.173218%, 61.416626%)" offset="0.625"/><stop stop-opacity="1" stop-color="rgb(21.37146%, 42.976379%, 61.076355%)" offset="0.640625"/><stop stop-opacity="1" stop-color="rgb(21.353149%, 42.779541%, 60.736084%)" offset="0.65625"/><stop stop-opacity="1" stop-color="rgb(21.333313%, 42.582703%, 60.395813%)" offset="0.671875"/><stop stop-opacity="1" stop-color="rgb(21.315002%, 42.385864%, 60.054016%)" offset="0.6875"/><stop stop-opacity="1" stop-color="rgb(21.295166%, 42.189026%, 59.713745%)" offset="0.703125"/><stop stop-opacity="1" stop-color="rgb(21.276855%, 41.992188%, 59.373474%)" offset="0.71875"/><stop stop-opacity="1" stop-color="rgb(21.257019%, 41.795349%, 59.033203%)" offset="0.734375"/><stop stop-opacity="1" stop-color="rgb(21.237183%, 41.598511%, 58.691406%)" offset="0.75"/><stop stop-opacity="1" stop-color="rgb(21.218872%, 41.401672%, 58.351135%)" offset="0.765625"/><stop stop-opacity="1" stop-color="rgb(21.203613%, 41.25061%, 58.09021%)" offset="0.78125"/><stop stop-opacity="1" stop-color="rgb(21.199036%, 41.19873%, 57.998657%)" offset="0.8125"/><stop stop-opacity="1" stop-color="rgb(21.199036%, 41.19873%, 57.998657%)" offset="0.875"/><stop stop-opacity="1" stop-color="rgb(21.199036%, 41.19873%, 57.998657%)" offset="1"/></linearGradient><clipPath id="b10c31d5ee"><path d="M 119 118 L 342 118 L 342 342 L 119 342 Z M 119 118 " clip-rule="nonzero"/></clipPath><clipPath id="fc891cf52f"><path d="M 193.082031 341.9375 C 269.238281 341.9375 264.484375 308.910156 264.484375 308.910156 L 264.398438 274.695312 L 191.722656 274.695312 L 191.722656 264.421875 L 293.265625 264.421875 C 293.265625 264.421875 342 269.949219 342 193.105469 C 342 116.257812 299.464844 118.984375 299.464844 118.984375 L 274.078125 118.984375 L 274.078125 154.644531 C 274.078125 154.644531 275.445312 197.179688 232.222656 197.179688 L 160.140625 197.179688 C 160.140625 197.179688 119.640625 196.523438 119.640625 236.320312 L 119.640625 302.117188 C 119.640625 302.117188 113.492188 341.9375 193.082031 341.9375 Z M 233.15625 318.929688 C 225.925781 318.929688 220.078125 313.085938 220.078125 305.855469 C 220.078125 298.621094 225.925781 292.777344 233.15625 292.777344 C 240.386719 292.777344 246.230469 298.621094 246.230469 305.855469 C 246.230469 313.085938 240.386719 318.929688 233.15625 318.929688 Z M 233.15625 318.929688 " clip-rule="nonzero"/></clipPath><linearGradient x1="74.775224" gradientTransform="matrix(1.5, 0, 0, 1.5, 0.0000072, 0)" y1="78.443728" x2="230.329553" gradientUnits="userSpaceOnUse" y2="225.493692" id="1b91d2a23a"><stop stop-opacity="1" stop-color="rgb(100%, 87.799072%, 32.199097%)" offset="0"/><stop stop-opacity="1" stop-color="rgb(100%, 87.799072%, 32.199097%)" offset="0.125"/><stop stop-opacity="1" stop-color="rgb(100%, 87.799072%, 32.199097%)" offset="0.1875"/><stop stop-opacity="1" stop-color="rgb(100%, 87.759399%, 32.15332%)" offset="0.21875"/><stop stop-opacity="1" stop-color="rgb(100%, 87.590027%, 31.959534%)" offset="0.234375"/><stop stop-opacity="1" stop-color="rgb(100%, 87.332153%, 31.661987%)" offset="0.25"/><stop stop-opacity="1" stop-color="rgb(100%, 87.07428%, 31.365967%)" offset="0.265625"/><stop stop-opacity="1" stop-color="rgb(100%, 86.816406%, 31.06842%)" offset="0.28125"/><stop stop-opacity="1" stop-color="rgb(100%, 86.558533%, 30.7724%)" offset="0.296875"/><stop stop-opacity="1" stop-color="rgb(100%, 86.300659%, 30.474854%)" offset="0.3125"/><stop stop-opacity="1" stop-color="rgb(100%, 86.04126%, 30.177307%)" offset="0.328125"/><stop stop-opacity="1" stop-color="rgb(100%, 85.783386%, 29.881287%)" offset="0.34375"/><stop stop-opacity="1" stop-color="rgb(100%, 85.525513%, 29.58374%)" offset="0.359375"/><stop stop-opacity="1" stop-color="rgb(100%, 85.267639%, 29.28772%)" offset="0.375"/><stop stop-opacity="1" stop-color="rgb(100%, 85.009766%, 28.990173%)" offset="0.390625"/><stop stop-opacity="1" stop-color="rgb(100%, 84.751892%, 28.694153%)" offset="0.40625"/><stop stop-opacity="1" stop-color="rgb(100%, 84.494019%, 28.396606%)" offset="0.421875"/><stop stop-opacity="1" stop-color="rgb(100%, 84.236145%, 28.100586%)" offset="0.4375"/><stop stop-opacity="1" stop-color="rgb(100%, 83.978271%, 27.80304%)" offset="0.453125"/><stop stop-opacity="1" stop-color="rgb(100%, 83.718872%, 27.505493%)" offset="0.46875"/><stop stop-opacity="1" stop-color="rgb(100%, 83.460999%, 27.209473%)" offset="0.482836"/><stop stop-opacity="1" stop-color="rgb(100%, 83.332825%, 27.061462%)" offset="0.484375"/><stop stop-opacity="1" stop-color="rgb(100%, 83.203125%, 26.911926%)" offset="0.5"/><stop stop-opacity="1" stop-color="rgb(100%, 82.945251%, 26.615906%)" offset="0.515625"/><stop stop-opacity="1" stop-color="rgb(100%, 82.687378%, 26.318359%)" offset="0.517164"/><stop stop-opacity="1" stop-color="rgb(100%, 82.559204%, 26.170349%)" offset="0.53125"/><stop stop-opacity="1" stop-color="rgb(100%, 82.429504%, 26.022339%)" offset="0.546875"/><stop stop-opacity="1" stop-color="rgb(100%, 82.171631%, 25.724792%)" offset="0.5625"/><stop stop-opacity="1" stop-color="rgb(100%, 81.913757%, 25.428772%)" offset="0.578125"/><stop stop-opacity="1" stop-color="rgb(100%, 81.655884%, 25.131226%)" offset="0.59375"/><stop stop-opacity="1" stop-color="rgb(100%, 81.396484%, 24.835205%)" offset="0.609375"/><stop stop-opacity="1" stop-color="rgb(100%, 81.138611%, 24.537659%)" offset="0.625"/><stop stop-opacity="1" stop-color="rgb(100%, 80.880737%, 24.240112%)" offset="0.640625"/><stop stop-opacity="1" stop-color="rgb(100%, 80.622864%, 23.944092%)" offset="0.65625"/><stop stop-opacity="1" stop-color="rgb(100%, 80.36499%, 23.646545%)" offset="0.671875"/><stop stop-opacity="1" stop-color="rgb(100%, 80.107117%, 23.350525%)" offset="0.6875"/><stop stop-opacity="1" stop-color="rgb(100%, 79.849243%, 23.052979%)" offset="0.703125"/><stop stop-opacity="1" stop-color="rgb(100%, 79.59137%, 22.756958%)" offset="0.71875"/><stop stop-opacity="1" stop-color="rgb(100%, 79.333496%, 22.459412%)" offset="0.734375"/><stop stop-opacity="1" stop-color="rgb(100%, 79.074097%, 22.163391%)" offset="0.75"/><stop stop-opacity="1" stop-color="rgb(100%, 78.816223%, 21.865845%)" offset="0.765625"/><stop stop-opacity="1" stop-color="rgb(100%, 78.55835%, 21.568298%)" offset="0.78125"/><stop stop-opacity="1" stop-color="rgb(100%, 78.300476%, 21.272278%)" offset="0.796875"/><stop stop-opacity="1" stop-color="rgb(100%, 78.042603%, 20.974731%)" offset="0.8125"/><stop stop-opacity="1" stop-color="rgb(100%, 77.784729%, 20.678711%)" offset="0.828125"/><stop stop-opacity="1" stop-color="rgb(100%, 77.526855%, 20.381165%)" offset="0.84375"/><stop stop-opacity="1" stop-color="rgb(100%, 77.268982%, 20.085144%)" offset="0.859375"/><stop stop-opacity="1" stop-color="rgb(100%, 77.011108%, 19.787598%)" offset="0.875"/><stop stop-opacity="1" stop-color="rgb(100%, 76.751709%, 19.491577%)" offset="0.890625"/><stop stop-opacity="1" stop-color="rgb(100%, 76.560974%, 19.270325%)" offset="0.90625"/><stop stop-opacity="1" stop-color="rgb(100%, 76.499939%, 19.198608%)" offset="0.9375"/><stop stop-opacity="1" stop-color="rgb(100%, 76.499939%, 19.198608%)" offset="1"/></linearGradient></defs><path fill="#242938" d="M 90 0 L 294 0 C 295.472656 0 296.945312 0.0351562 298.417969 0.109375 C 299.886719 0.179688 301.355469 0.289062 302.820312 0.433594 C 304.289062 0.578125 305.75 0.757812 307.207031 0.972656 C 308.664062 1.191406 310.113281 1.441406 311.558594 1.730469 C 313.003906 2.015625 314.4375 2.339844 315.867188 2.695312 C 317.296875 3.054688 318.714844 3.449219 320.125 3.875 C 321.535156 4.304688 322.933594 4.765625 324.320312 5.261719 C 325.707031 5.757812 327.082031 6.289062 328.441406 6.851562 C 329.800781 7.414062 331.148438 8.011719 332.480469 8.640625 C 333.8125 9.269531 335.125 9.933594 336.425781 10.628906 C 337.726562 11.320312 339.003906 12.046875 340.269531 12.804688 C 341.53125 13.5625 342.777344 14.347656 344 15.167969 C 345.226562 15.984375 346.429688 16.832031 347.613281 17.710938 C 348.796875 18.589844 349.957031 19.496094 351.09375 20.429688 C 352.234375 21.363281 353.347656 22.324219 354.441406 23.3125 C 355.53125 24.304688 356.597656 25.320312 357.640625 26.359375 C 358.679688 27.402344 359.695312 28.46875 360.6875 29.558594 C 361.675781 30.652344 362.636719 31.765625 363.570312 32.90625 C 364.503906 34.042969 365.410156 35.203125 366.289062 36.386719 C 367.167969 37.570312 368.015625 38.773438 368.832031 40 C 369.652344 41.222656 370.4375 42.46875 371.195312 43.730469 C 371.953125 44.992188 372.679688 46.273438 373.371094 47.574219 C 374.066406 48.875 374.730469 50.1875 375.359375 51.519531 C 375.988281 52.851562 376.585938 54.199219 377.148438 55.558594 C 377.710938 56.917969 378.242188 58.292969 378.738281 59.679688 C 379.234375 61.066406 379.695312 62.464844 380.125 63.875 C 380.550781 65.285156 380.945312 66.703125 381.304688 68.132812 C 381.660156 69.5625 381.984375 70.996094 382.269531 72.441406 C 382.558594 73.886719 382.808594 75.335938 383.027344 76.792969 C 383.242188 78.25 383.421875 79.710938 383.566406 81.179688 C 383.710938 82.644531 383.820312 84.113281 383.890625 85.582031 C 383.964844 87.054688 384 88.527344 384 90 L 384 294 C 384 295.472656 383.964844 296.945312 383.890625 298.417969 C 383.820312 299.886719 383.710938 301.355469 383.566406 302.820312 C 383.421875 304.289062 383.242188 305.75 383.027344 307.207031 C 382.808594 308.664062 382.558594 310.113281 382.269531 311.558594 C 381.984375 313.003906 381.660156 314.4375 381.304688 315.867188 C 380.945312 317.296875 380.550781 318.714844 380.125 320.125 C 379.695312 321.535156 379.234375 322.933594 378.738281 324.320312 C 378.242188 325.707031 377.710938 327.082031 377.148438 328.441406 C 376.585938 329.800781 375.988281 331.148438 375.359375 332.480469 C 374.730469 333.8125 374.066406 335.125 373.371094 336.425781 C 372.679688 337.726562 371.953125 339.003906 371.195312 340.269531 C 370.4375 341.53125 369.652344 342.777344 368.832031 344 C 368.015625 345.226562 367.167969 346.429688 366.289062 347.613281 C 365.410156 348.796875 364.503906 349.957031 363.570312 351.09375 C 362.636719 352.234375 361.675781 353.347656 360.6875 354.441406 C 359.695312 355.53125 358.679688 356.597656 357.640625 357.640625 C 356.597656 358.679688 355.53125 359.695312 354.441406 360.683594 C 353.347656 361.675781 352.234375 362.636719 351.09375 363.570312 C 349.957031 364.503906 348.796875 365.410156 347.613281 366.289062 C 346.429688 367.167969 345.226562 368.015625 344 368.832031 C 342.777344 369.652344 341.53125 370.4375 340.269531 371.195312 C 339.007812 371.953125 337.726562 372.679688 336.425781 373.371094 C 335.125 374.066406 333.8125 374.730469 332.480469 375.359375 C 331.148438 375.988281 329.800781 376.585938 328.441406 377.148438 C 327.082031 377.710938 325.707031 378.242188 324.320312 378.738281 C 322.933594 379.234375 321.535156 379.695312 320.125 380.125 C 318.714844 380.550781 317.296875 380.945312 315.867188 381.304688 C 314.4375 381.660156 313.003906 381.984375 311.558594 382.269531 C 310.113281 382.558594 308.664062 382.808594 307.207031 383.027344 C 305.75 383.242188 304.289062 383.421875 302.820312 383.566406 C 301.355469 383.710938 299.886719 383.820312 298.417969 383.890625 C 296.945312 383.964844 295.472656 384 294 384 L 90 384 C 88.527344 384 87.054688 383.964844 85.582031 383.890625 C 84.113281 383.820312 82.644531 383.710938 81.179688 383.566406 C 79.710938 383.421875 78.25 383.242188 76.792969 383.027344 C 75.335938 382.808594 73.886719 382.558594 72.441406 382.269531 C 70.996094 381.984375 69.5625 381.660156 68.132812 381.304688 C 66.703125 380.945312 65.285156 380.550781 63.875 380.125 C 62.464844 379.695312 61.066406 379.234375 59.679688 378.738281 C 58.292969 378.242188 56.917969 377.710938 55.558594 377.148438 C 54.199219 376.585938 52.851562 375.988281 51.519531 375.359375 C 50.1875 374.730469 48.875 374.066406 47.574219 373.371094 C 46.273438 372.679688 44.992188 371.953125 43.730469 371.195312 C 42.46875 370.4375 41.222656 369.652344 40 368.832031 C 38.773438 368.015625 37.570312 367.167969 36.386719 366.289062 C 35.203125 365.410156 34.042969 364.503906 32.90625 363.570312 C 31.765625 362.636719 30.652344 361.675781 29.558594 360.683594 C 28.46875 359.695312 27.402344 358.679688 26.359375 357.640625 C 25.320312 356.597656 24.304688 355.53125 23.3125 354.441406 C 22.324219 353.347656 21.363281 352.234375 20.429688 351.09375 C 19.496094 349.957031 18.589844 348.796875 17.710938 347.613281 C 16.832031 346.429688 15.984375 345.226562 15.167969 344 C 14.347656 342.777344 13.5625 341.53125 12.804688 340.269531 C 12.046875 339.003906 11.320312 337.726562 10.628906 336.425781 C 9.933594 335.125 9.269531 333.8125 8.640625 332.480469 C 8.011719 331.148438 7.414062 329.800781 6.851562 328.441406 C 6.289062 327.082031 5.757812 325.707031 5.261719 324.320312 C 4.765625 322.933594 4.304688 321.535156 3.875 320.125 C 3.449219 318.714844 3.054688 317.296875 2.695312 315.867188 C 2.339844 314.4375 2.015625 313.003906 1.730469 311.558594 C 1.441406 310.113281 1.191406 308.664062 0.972656 307.207031 C 0.757812 305.75 0.578125 304.289062 0.433594 302.820312 C 0.289062 301.355469 0.179688 299.886719 0.109375 298.417969 C 0.0351562 296.945312 0 295.472656 0 294 L 0 90 C 0 88.527344 0.0351562 87.054688 0.109375 85.582031 C 0.179688 84.113281 0.289062 82.644531 0.433594 81.179688 C 0.578125 79.710938 0.757812 78.25 0.972656 76.792969 C 1.191406 75.335938 1.441406 73.886719 1.730469 72.441406 C 2.015625 70.996094 2.339844 69.5625 2.695312 68.132812 C 3.054688 66.703125 3.449219 65.285156 3.875 63.875 C 4.304688 62.464844 4.765625 61.066406 5.261719 59.679688 C 5.757812 58.292969 6.289062 56.917969 6.851562 55.558594 C 7.414062 54.199219 8.011719 52.851562 8.640625 51.519531 C 9.269531 50.1875 9.933594 48.875 10.628906 47.574219 C 11.320312 46.273438 12.046875 44.992188 12.804688 43.730469 C 13.5625 42.46875 14.347656 41.222656 15.167969 40 C 15.984375 38.773438 16.832031 37.570312 17.710938 36.386719 C 18.589844 35.203125 19.496094 34.042969 20.429688 32.90625 C 21.363281 31.765625 22.324219 30.652344 23.3125 29.558594 C 24.304688 28.46875 25.320312 27.402344 26.359375 26.359375 C 27.402344 25.320312 28.46875 24.304688 29.558594 23.3125 C 30.652344 22.324219 31.765625 21.363281 32.90625 20.429688 C 34.042969 19.496094 35.203125 18.589844 36.386719 17.710938 C 37.570312 16.832031 38.773438 15.984375 40 15.167969 C 41.222656 14.347656 42.46875 13.5625 43.730469 12.804688 C 44.992188 12.046875 46.273438 11.320312 47.574219 10.628906 C 48.875 9.933594 50.1875 9.269531 51.519531 8.640625 C 52.851562 8.011719 54.199219 7.414062 55.558594 6.851562 C 56.917969 6.289062 58.292969 5.757812 59.679688 5.261719 C 61.066406 4.765625 62.464844 4.304688 63.875 3.875 C 65.285156 3.449219 66.703125 3.054688 68.132812 2.695312 C 69.5625 2.339844 70.996094 2.015625 72.441406 1.730469 C 73.886719 1.441406 75.335938 1.191406 76.792969 0.972656 C 78.25 0.757812 79.710938 0.578125 81.179688 0.433594 C 82.644531 0.289062 84.113281 0.179688 85.582031 0.109375 C 87.054688 0.0351562 88.527344 0 90 0 Z M 90 0 " fill-opacity="1" fill-rule="nonzero"/><g clip-path="url(#fd39919038)"><g clip-path="url(#baa9d140c4)"><path fill="url(#84543b1ff6)" d="M 42 43.5 L 42 269.179688 L 270.507812 269.179688 L 270.507812 43.5 Z M 42 43.5 " fill-rule="nonzero"/></g></g><g clip-path="url(#b10c31d5ee)"><g clip-path="url(#fc891cf52f)"><path fill="url(#1b91d2a23a)" d="M 113.492188 116.257812 L 113.492188 341.9375 L 342 341.9375 L 342 116.257812 Z M 113.492188 116.257812 " fill-rule="nonzero"/></g></g></svg>