<svg xmlns="http://www.w3.org/2000/svg" xmlns:xlink="http://www.w3.org/1999/xlink" width="512" zoomAndPan="magnify" viewBox="0 0 384 383.999986" height="512" preserveAspectRatio="xMidYMid meet" version="1.0"><defs><g/><clipPath id="418a979aaf"><path d="M 90 0 L 294 0 C 317.871094 0 340.761719 9.480469 357.640625 26.359375 C 374.519531 43.238281 384 66.128906 384 90 L 384 294 C 384 343.707031 343.707031 384 294 384 L 90 384 C 40.292969 384 0 343.707031 0 294 L 0 90 C 0 40.292969 40.292969 0 90 0 Z M 90 0 " clip-rule="nonzero"/></clipPath></defs><g clip-path="url(#418a979aaf)"><rect x="-38.4" width="460.8" fill="#242938" y="-38.399999" height="460.799983" fill-opacity="1"/></g><g fill="#ffffff" fill-opacity="1"><g transform="translate(27.014945, 269.174405)"><g><path d="M 13.8125 -65.90625 C 13.8125 -82.90625 16.070312 -99.082031 20.59375 -114.4375 C 25.125 -129.800781 31.804688 -143.398438 40.640625 -155.234375 C 49.472656 -167.078125 59.046875 -175.300781 69.359375 -179.90625 L 75.59375 -162.546875 C 64.757812 -154.523438 56.296875 -142.128906 50.203125 -125.359375 C 44.117188 -108.585938 41.078125 -88.992188 41.078125 -66.578125 L 41.078125 -63.125 C 41.078125 -40.632812 44.082031 -20.960938 50.09375 -4.109375 C 56.101562 12.734375 64.601562 25.3125 75.59375 33.625 L 69.359375 50.65625 C 59.265625 46.125 49.859375 38.125 41.140625 26.65625 C 32.421875 15.195312 25.757812 1.972656 21.15625 -13.015625 C 16.550781 -28.015625 14.101562 -43.675781 13.8125 -60 Z M 13.8125 -65.90625 "/></g></g><g transform="translate(107.05789, 269.174405)"><g><path d="M 14.03125 -15.8125 C 14.03125 -20.925781 15.753906 -25.078125 19.203125 -28.265625 C 22.648438 -31.460938 26.972656 -33.0625 32.171875 -33.0625 C 37.441406 -33.0625 41.800781 -31.460938 45.25 -28.265625 C 48.707031 -25.078125 50.4375 -20.925781 50.4375 -15.8125 C 50.4375 -10.757812 48.726562 -6.65625 45.3125 -3.5 C 41.894531 -0.351562 37.515625 1.21875 32.171875 1.21875 C 26.898438 1.21875 22.554688 -0.351562 19.140625 -3.5 C 15.734375 -6.65625 14.03125 -10.757812 14.03125 -15.8125 Z M 14.03125 -15.8125 "/></g></g><g transform="translate(173.296487, 269.174405)"><g><path d="M 37.96875 -107.09375 L 3 -117 L 9.578125 -137.15625 L 44.203125 -123.234375 L 41.96875 -162.09375 L 63.796875 -162.09375 L 61.5625 -122.46875 L 95.296875 -136.15625 L 101.859375 -115.78125 L 66.234375 -105.875 L 89.625 -76.265625 L 71.921875 -63.6875 L 51.65625 -96.1875 L 31.625 -64.796875 L 13.921875 -76.8125 Z M 37.96875 -107.09375 "/></g></g><g transform="translate(276.606436, 269.174405)"><g><path d="M 67.796875 -63.34375 C 67.796875 -46.570312 65.382812 -30.429688 60.5625 -14.921875 C 55.738281 0.585938 48.796875 14.28125 39.734375 26.15625 C 30.679688 38.03125 21 46.195312 10.6875 50.65625 L 4.453125 33.625 C 14.992188 25.675781 23.304688 13.429688 29.390625 -3.109375 C 35.472656 -19.660156 38.628906 -38.703125 38.859375 -60.234375 L 38.859375 -66.125 C 38.859375 -88.320312 35.832031 -107.878906 29.78125 -124.796875 C 23.726562 -141.722656 15.285156 -154.414062 4.453125 -162.875 L 10.6875 -179.90625 C 20.78125 -175.53125 30.296875 -167.585938 39.234375 -156.078125 C 48.179688 -144.578125 55.125 -131.179688 60.0625 -115.890625 C 65 -100.597656 67.578125 -84.753906 67.796875 -68.359375 Z M 67.796875 -63.34375 "/></g></g></g></svg>