<svg xmlns="http://www.w3.org/2000/svg" xmlns:xlink="http://www.w3.org/1999/xlink" width="512" zoomAndPan="magnify" viewBox="0 0 384 383.999986" height="512" preserveAspectRatio="xMidYMid meet" version="1.0"><defs><clipPath id="b95ae264be"><path d="M 90 0 L 294 0 C 317.871094 0 340.761719 9.480469 357.640625 26.359375 C 374.519531 43.238281 384 66.128906 384 90 L 384 294 C 384 343.707031 343.707031 384 294 384 L 90 384 C 40.292969 384 0 343.707031 0 294 L 0 90 C 0 40.292969 40.292969 0 90 0 Z M 90 0 " clip-rule="nonzero"/></clipPath><clipPath id="353d169ea9"><path d="M 283 171 L 322.53125 171 L 322.53125 233 L 283 233 Z M 283 171 " clip-rule="nonzero"/></clipPath><clipPath id="0f013584ba"><path d="M 283 124 L 322.53125 124 L 322.53125 186 L 283 186 Z M 283 124 " clip-rule="nonzero"/></clipPath><clipPath id="9b0c496694"><path d="M 61.53125 223 L 101 223 L 101 283 L 61.53125 283 Z M 61.53125 223 " clip-rule="nonzero"/></clipPath></defs><g clip-path="url(#b95ae264be)"><rect x="-38.4" width="460.8" fill="#242938" y="-38.399999" height="460.799983" fill-opacity="1"/></g><path fill="#f41809" d="M 199.972656 302.441406 L 228.34375 281.984375 C 228.675781 281.742188 229.003906 281.535156 229.332031 281.355469 C 229.660156 281.179688 229.976562 281.035156 230.285156 280.925781 C 230.589844 280.816406 230.882812 280.742188 231.160156 280.707031 C 231.4375 280.671875 231.695312 280.671875 231.929688 280.710938 C 232.164062 280.75 232.375 280.828125 232.558594 280.9375 C 232.746094 281.050781 232.902344 281.195312 233.027344 281.375 C 233.15625 281.558594 233.253906 281.769531 233.316406 282.011719 C 233.382812 282.253906 233.414062 282.523438 233.414062 282.816406 L 233.414062 311.527344 C 233.414062 311.824219 233.382812 312.136719 233.316406 312.472656 C 233.253906 312.808594 233.15625 313.160156 233.027344 313.523438 C 232.902344 313.890625 232.746094 314.261719 232.558594 314.640625 C 232.375 315.019531 232.164062 315.394531 231.929688 315.773438 C 231.695312 316.152344 231.4375 316.523438 231.160156 316.886719 C 230.882812 317.25 230.589844 317.601562 230.285156 317.933594 C 229.976562 318.269531 229.660156 318.582031 229.332031 318.875 C 229.003906 319.167969 228.675781 319.4375 228.34375 319.675781 L 199.972656 340.136719 C 199.640625 340.375 199.3125 340.585938 198.984375 340.761719 C 198.660156 340.941406 198.339844 341.085938 198.035156 341.195312 C 197.726562 341.300781 197.433594 341.375 197.15625 341.410156 C 196.878906 341.445312 196.625 341.445312 196.386719 341.40625 C 196.152344 341.367188 195.941406 341.292969 195.757812 341.179688 C 195.570312 341.070312 195.414062 340.921875 195.289062 340.742188 C 195.160156 340.5625 195.066406 340.351562 195 340.109375 C 194.933594 339.867188 194.902344 339.597656 194.902344 339.300781 L 194.902344 310.59375 C 194.902344 310.296875 194.933594 309.980469 195 309.644531 C 195.066406 309.308594 195.160156 308.960938 195.289062 308.59375 C 195.417969 308.230469 195.570312 307.859375 195.757812 307.480469 C 195.941406 307.101562 196.152344 306.722656 196.386719 306.34375 C 196.625 305.964844 196.878906 305.59375 197.15625 305.230469 C 197.433594 304.867188 197.726562 304.519531 198.035156 304.183594 C 198.339844 303.851562 198.660156 303.535156 198.984375 303.242188 C 199.3125 302.949219 199.640625 302.683594 199.972656 302.441406 " fill-opacity="1" fill-rule="nonzero"/><path fill="#f41809" d="M 201.484375 255.601562 L 228.753906 235.933594 C 229.125 235.667969 229.488281 235.4375 229.851562 235.246094 C 230.214844 235.054688 230.566406 234.90625 230.90625 234.796875 C 231.246094 234.6875 231.570312 234.621094 231.878906 234.597656 C 232.183594 234.574219 232.46875 234.597656 232.730469 234.660156 C 232.988281 234.726562 233.222656 234.832031 233.429688 234.980469 C 233.632812 235.128906 233.804688 235.320312 233.949219 235.546875 C 234.089844 235.777344 234.195312 236.039062 234.265625 236.335938 C 234.339844 236.636719 234.375 236.964844 234.375 237.320312 L 234.375 264.132812 C 234.375 264.488281 234.339844 264.867188 234.265625 265.269531 C 234.195312 265.671875 234.089844 266.089844 233.949219 266.523438 C 233.804688 266.953125 233.632812 267.390625 233.429688 267.835938 C 233.222656 268.28125 232.988281 268.726562 232.730469 269.164062 C 232.46875 269.605469 232.183594 270.035156 231.878906 270.457031 C 231.570312 270.875 231.246094 271.277344 230.90625 271.660156 C 230.566406 272.042969 230.214844 272.398438 229.851562 272.730469 C 229.488281 273.0625 229.125 273.359375 228.753906 273.625 L 201.484375 293.292969 C 201.113281 293.558594 200.75 293.789062 200.386719 293.980469 C 200.023438 294.171875 199.671875 294.320312 199.332031 294.429688 C 198.992188 294.539062 198.667969 294.605469 198.359375 294.628906 C 198.054688 294.652344 197.769531 294.632812 197.507812 294.566406 C 197.25 294.503906 197.015625 294.394531 196.808594 294.246094 C 196.605469 294.097656 196.433594 293.90625 196.292969 293.679688 C 196.148438 293.453125 196.042969 293.1875 195.972656 292.890625 C 195.898438 292.589844 195.863281 292.261719 195.863281 291.90625 L 195.863281 265.097656 C 195.863281 264.738281 195.898438 264.359375 195.972656 263.957031 C 196.042969 263.554688 196.148438 263.136719 196.292969 262.707031 C 196.433594 262.273438 196.605469 261.835938 196.808594 261.390625 C 197.015625 260.945312 197.25 260.503906 197.507812 260.0625 C 197.769531 259.621094 198.054688 259.191406 198.359375 258.769531 C 198.667969 258.351562 198.992188 257.949219 199.332031 257.566406 C 199.671875 257.183594 200.023438 256.828125 200.386719 256.496094 C 200.75 256.167969 201.113281 255.867188 201.484375 255.601562 " fill-opacity="1" fill-rule="nonzero"/><path fill="#f41809" d="M 199.15625 210.902344 L 231.085938 187.875 C 231.304688 187.71875 231.515625 187.613281 231.730469 187.566406 C 231.941406 187.519531 232.148438 187.523438 232.347656 187.585938 C 232.546875 187.648438 232.734375 187.761719 232.914062 187.929688 C 233.09375 188.097656 233.261719 188.316406 233.414062 188.582031 C 233.566406 188.851562 233.703125 189.164062 233.824219 189.523438 C 233.941406 189.882812 234.042969 190.28125 234.125 190.714844 C 234.210938 191.148438 234.273438 191.613281 234.3125 192.109375 C 234.355469 192.605469 234.378906 193.121094 234.378906 193.65625 L 234.378906 215.039062 C 234.378906 215.574219 234.355469 216.117188 234.3125 216.675781 C 234.273438 217.230469 234.210938 217.785156 234.125 218.339844 C 234.042969 218.894531 233.941406 219.4375 233.824219 219.96875 C 233.703125 220.5 233.566406 221.011719 233.414062 221.5 C 233.261719 221.988281 233.09375 222.445312 232.914062 222.875 C 232.734375 223.300781 232.546875 223.6875 232.347656 224.035156 C 232.148438 224.386719 231.941406 224.6875 231.730469 224.945312 C 231.515625 225.203125 231.304688 225.410156 231.085938 225.566406 L 199.15625 248.59375 C 198.9375 248.75 198.726562 248.851562 198.511719 248.902344 C 198.300781 248.949219 198.09375 248.945312 197.894531 248.882812 C 197.695312 248.820312 197.507812 248.707031 197.328125 248.539062 C 197.148438 248.371094 196.980469 248.152344 196.828125 247.882812 C 196.675781 247.617188 196.539062 247.300781 196.417969 246.945312 C 196.300781 246.585938 196.199219 246.1875 196.117188 245.753906 C 196.03125 245.316406 195.96875 244.851562 195.929688 244.359375 C 195.886719 243.863281 195.863281 243.347656 195.863281 242.8125 L 195.863281 221.429688 C 195.863281 220.894531 195.886719 220.347656 195.929688 219.792969 C 195.96875 219.238281 196.03125 218.683594 196.117188 218.128906 C 196.199219 217.574219 196.300781 217.03125 196.417969 216.5 C 196.539062 215.96875 196.675781 215.457031 196.828125 214.96875 C 196.980469 214.480469 197.148438 214.023438 197.328125 213.59375 C 197.507812 213.167969 197.695312 212.78125 197.894531 212.429688 C 198.09375 212.082031 198.300781 211.78125 198.511719 211.523438 C 198.726562 211.265625 198.9375 211.058594 199.15625 210.902344 " fill-opacity="1" fill-rule="nonzero"/><path fill="#f41809" d="M 244.984375 177.578125 L 273.609375 157.101562 C 273.945312 156.863281 274.277344 156.671875 274.605469 156.527344 C 274.933594 156.382812 275.253906 156.289062 275.5625 156.242188 C 275.871094 156.199219 276.167969 156.207031 276.445312 156.265625 C 276.722656 156.320312 276.980469 156.429688 277.21875 156.589844 C 277.453125 156.746094 277.667969 156.953125 277.851562 157.203125 C 278.039062 157.457031 278.195312 157.75 278.324219 158.085938 C 278.453125 158.421875 278.550781 158.792969 278.613281 159.199219 C 278.679688 159.609375 278.710938 160.042969 278.710938 160.507812 L 278.710938 184.09375 C 278.710938 184.554688 278.679688 185.039062 278.613281 185.539062 C 278.550781 186.039062 278.453125 186.550781 278.324219 187.070312 C 278.195312 187.589844 278.039062 188.109375 277.851562 188.625 C 277.667969 189.144531 277.453125 189.652344 277.21875 190.148438 C 276.980469 190.644531 276.722656 191.121094 276.445312 191.578125 C 276.167969 192.035156 275.871094 192.464844 275.5625 192.863281 C 275.253906 193.261719 274.933594 193.621094 274.605469 193.949219 C 274.277344 194.273438 273.945312 194.554688 273.609375 194.796875 L 244.984375 215.273438 C 244.648438 215.511719 244.316406 215.703125 243.988281 215.847656 C 243.660156 215.992188 243.34375 216.089844 243.03125 216.132812 C 242.722656 216.175781 242.429688 216.167969 242.152344 216.109375 C 241.871094 216.054688 241.613281 215.945312 241.378906 215.785156 C 241.140625 215.628906 240.929688 215.425781 240.742188 215.171875 C 240.558594 214.917969 240.402344 214.625 240.273438 214.289062 C 240.144531 213.953125 240.046875 213.582031 239.980469 213.175781 C 239.917969 212.765625 239.882812 212.332031 239.882812 211.867188 L 239.882812 188.28125 C 239.882812 187.820312 239.917969 187.335938 239.980469 186.835938 C 240.046875 186.335938 240.144531 185.824219 240.273438 185.304688 C 240.402344 184.785156 240.558594 184.265625 240.742188 183.75 C 240.929688 183.230469 241.140625 182.722656 241.378906 182.226562 C 241.613281 181.730469 241.871094 181.253906 242.152344 180.796875 C 242.429688 180.339844 242.722656 179.910156 243.03125 179.511719 C 243.34375 179.113281 243.660156 178.753906 243.988281 178.425781 C 244.316406 178.101562 244.648438 177.820312 244.984375 177.578125 " fill-opacity="1" fill-rule="nonzero"/><path fill="#f41809" d="M 243.886719 224.457031 L 274.707031 202.410156 C 274.96875 202.222656 275.230469 202.089844 275.488281 202.011719 C 275.746094 201.9375 275.996094 201.917969 276.238281 201.953125 C 276.480469 201.992188 276.714844 202.085938 276.933594 202.238281 C 277.152344 202.386719 277.351562 202.59375 277.539062 202.851562 C 277.722656 203.109375 277.890625 203.414062 278.035156 203.769531 C 278.183594 204.125 278.304688 204.523438 278.40625 204.960938 C 278.507812 205.402344 278.582031 205.875 278.632812 206.378906 C 278.6875 206.886719 278.710938 207.414062 278.710938 207.96875 L 278.710938 228.8125 C 278.710938 229.367188 278.6875 229.933594 278.632812 230.511719 C 278.582031 231.089844 278.507812 231.671875 278.40625 232.253906 C 278.304688 232.839844 278.183594 233.410156 278.035156 233.976562 C 277.890625 234.539062 277.722656 235.085938 277.539062 235.609375 C 277.351562 236.132812 277.152344 236.625 276.933594 237.089844 C 276.714844 237.554688 276.480469 237.980469 276.238281 238.363281 C 275.996094 238.75 275.746094 239.089844 275.488281 239.378906 C 275.230469 239.671875 274.96875 239.914062 274.707031 240.101562 L 243.886719 262.148438 C 243.625 262.335938 243.363281 262.46875 243.105469 262.542969 C 242.847656 262.621094 242.597656 262.640625 242.355469 262.601562 C 242.113281 262.566406 241.882812 262.46875 241.664062 262.320312 C 241.445312 262.167969 241.242188 261.964844 241.054688 261.707031 C 240.871094 261.449219 240.703125 261.140625 240.558594 260.785156 C 240.410156 260.429688 240.289062 260.03125 240.1875 259.59375 C 240.085938 259.15625 240.011719 258.683594 239.960938 258.175781 C 239.910156 257.671875 239.882812 257.140625 239.882812 256.589844 L 239.882812 235.742188 C 239.882812 235.191406 239.910156 234.625 239.960938 234.046875 C 240.011719 233.464844 240.085938 232.886719 240.1875 232.300781 C 240.289062 231.71875 240.410156 231.144531 240.558594 230.582031 C 240.703125 230.015625 240.871094 229.472656 241.054688 228.949219 C 241.242188 228.425781 241.445312 227.929688 241.664062 227.464844 C 241.882812 227.003906 242.113281 226.578125 242.355469 226.191406 C 242.597656 225.808594 242.847656 225.46875 243.105469 225.175781 C 243.363281 224.882812 243.625 224.644531 243.886719 224.457031 " fill-opacity="1" fill-rule="nonzero"/><path fill="#f41809" d="M 244.574219 269.535156 L 272.105469 249.84375 C 272.472656 249.578125 272.84375 249.375 273.207031 249.230469 C 273.570312 249.085938 273.921875 249.007812 274.265625 248.992188 C 274.609375 248.972656 274.933594 249.023438 275.242188 249.132812 C 275.550781 249.246094 275.835938 249.417969 276.097656 249.652344 C 276.359375 249.890625 276.59375 250.183594 276.800781 250.53125 C 277.007812 250.882812 277.179688 251.28125 277.324219 251.734375 C 277.464844 252.183594 277.570312 252.675781 277.644531 253.210938 C 277.71875 253.746094 277.753906 254.3125 277.753906 254.910156 L 277.753906 274.386719 C 277.753906 274.984375 277.71875 275.601562 277.644531 276.242188 C 277.570312 276.878906 277.464844 277.527344 277.324219 278.179688 C 277.179688 278.832031 277.007812 279.484375 276.800781 280.128906 C 276.59375 280.773438 276.359375 281.402344 276.097656 282.011719 C 275.835938 282.621094 275.550781 283.203125 275.242188 283.757812 C 274.933594 284.308594 274.609375 284.824219 274.265625 285.296875 C 273.921875 285.769531 273.570312 286.195312 273.207031 286.574219 C 272.84375 286.949219 272.472656 287.269531 272.105469 287.535156 L 244.574219 307.230469 C 244.203125 307.496094 243.835938 307.699219 243.472656 307.84375 C 243.109375 307.988281 242.753906 308.066406 242.414062 308.082031 C 242.070312 308.097656 241.742188 308.050781 241.433594 307.941406 C 241.128906 307.828125 240.839844 307.65625 240.578125 307.417969 C 240.316406 307.183594 240.082031 306.890625 239.875 306.542969 C 239.671875 306.191406 239.496094 305.789062 239.355469 305.339844 C 239.210938 304.890625 239.105469 304.394531 239.035156 303.859375 C 238.960938 303.328125 238.925781 302.757812 238.925781 302.160156 L 238.925781 282.6875 C 238.925781 282.089844 238.960938 281.46875 239.035156 280.832031 C 239.105469 280.195312 239.210938 279.546875 239.355469 278.894531 C 239.496094 278.238281 239.671875 277.589844 239.875 276.945312 C 240.082031 276.300781 240.316406 275.671875 240.578125 275.0625 C 240.839844 274.453125 241.128906 273.871094 241.433594 273.316406 C 241.742188 272.765625 242.070312 272.25 242.414062 271.777344 C 242.753906 271.300781 243.109375 270.875 243.472656 270.5 C 243.835938 270.121094 244.203125 269.800781 244.574219 269.535156 " fill-opacity="1" fill-rule="nonzero"/><path fill="#f41809" d="M 288.03125 236.792969 L 316.65625 216.316406 C 316.992188 216.078125 317.324219 215.882812 317.652344 215.742188 C 317.980469 215.597656 318.300781 215.503906 318.609375 215.457031 C 318.917969 215.414062 319.210938 215.421875 319.492188 215.480469 C 319.769531 215.539062 320.027344 215.648438 320.265625 215.808594 C 320.5 215.96875 320.710938 216.171875 320.898438 216.425781 C 321.085938 216.679688 321.242188 216.972656 321.371094 217.3125 C 321.496094 217.648438 321.59375 218.023438 321.660156 218.429688 C 321.726562 218.839844 321.757812 219.277344 321.757812 219.742188 L 321.757812 243.285156 C 321.757812 243.75 321.726562 244.234375 321.660156 244.734375 C 321.59375 245.238281 321.496094 245.75 321.371094 246.269531 C 321.242188 246.792969 321.085938 247.3125 320.898438 247.832031 C 320.710938 248.351562 320.5 248.859375 320.265625 249.355469 C 320.027344 249.855469 319.769531 250.332031 319.492188 250.789062 C 319.210938 251.246094 318.917969 251.675781 318.609375 252.074219 C 318.300781 252.472656 317.980469 252.835938 317.652344 253.160156 C 317.324219 253.488281 316.992188 253.769531 316.65625 254.007812 L 288.03125 274.488281 C 287.695312 274.726562 287.363281 274.917969 287.035156 275.0625 C 286.707031 275.207031 286.386719 275.300781 286.078125 275.34375 C 285.769531 275.386719 285.476562 275.378906 285.195312 275.320312 C 284.917969 275.261719 284.660156 275.152344 284.421875 274.996094 C 284.1875 274.835938 283.976562 274.628906 283.789062 274.375 C 283.601562 274.125 283.445312 273.828125 283.316406 273.492188 C 283.191406 273.152344 283.09375 272.78125 283.027344 272.371094 C 282.960938 271.960938 282.929688 271.527344 282.929688 271.0625 L 282.929688 247.515625 C 282.929688 247.050781 282.960938 246.570312 283.027344 246.066406 C 283.09375 245.5625 283.191406 245.050781 283.316406 244.53125 C 283.445312 244.011719 283.601562 243.492188 283.789062 242.972656 C 283.976562 242.453125 284.1875 241.945312 284.421875 241.445312 C 284.660156 240.949219 284.917969 240.46875 285.195312 240.011719 C 285.476562 239.554688 285.769531 239.128906 286.078125 238.730469 C 286.386719 238.328125 286.707031 237.96875 287.035156 237.640625 C 287.363281 237.316406 287.695312 237.035156 288.03125 236.792969 " fill-opacity="1" fill-rule="nonzero"/><g clip-path="url(#353d169ea9)"><path fill="#f41809" d="M 288.109375 193.714844 L 317.832031 172.453125 C 318.128906 172.242188 318.425781 172.074219 318.71875 171.957031 C 319.011719 171.839844 319.296875 171.773438 319.574219 171.757812 C 319.847656 171.742188 320.113281 171.777344 320.359375 171.863281 C 320.609375 171.945312 320.839844 172.082031 321.050781 172.265625 C 321.261719 172.449219 321.449219 172.679688 321.617188 172.953125 C 321.78125 173.230469 321.921875 173.542969 322.039062 173.898438 C 322.152344 174.257812 322.238281 174.644531 322.296875 175.070312 C 322.355469 175.492188 322.382812 175.941406 322.382812 176.414062 L 322.382812 199.675781 C 322.382812 200.148438 322.355469 200.640625 322.296875 201.148438 C 322.238281 201.652344 322.152344 202.164062 322.039062 202.683594 C 321.921875 203.203125 321.78125 203.722656 321.617188 204.234375 C 321.449219 204.746094 321.261719 205.246094 321.050781 205.730469 C 320.839844 206.21875 320.609375 206.683594 320.359375 207.121094 C 320.113281 207.5625 319.847656 207.972656 319.574219 208.351562 C 319.296875 208.730469 319.011719 209.070312 318.71875 209.375 C 318.425781 209.675781 318.128906 209.933594 317.832031 210.148438 L 288.109375 231.410156 C 287.808594 231.625 287.511719 231.789062 287.21875 231.90625 C 286.925781 232.023438 286.640625 232.089844 286.367188 232.105469 C 286.089844 232.125 285.828125 232.089844 285.578125 232.003906 C 285.332031 231.917969 285.101562 231.785156 284.890625 231.597656 C 284.679688 231.414062 284.488281 231.1875 284.324219 230.910156 C 284.15625 230.636719 284.015625 230.320312 283.902344 229.964844 C 283.789062 229.609375 283.703125 229.21875 283.644531 228.796875 C 283.585938 228.375 283.554688 227.925781 283.554688 227.453125 L 283.554688 204.1875 C 283.554688 203.714844 283.585938 203.226562 283.644531 202.71875 C 283.703125 202.210938 283.789062 201.699219 283.902344 201.179688 C 284.015625 200.660156 284.15625 200.144531 284.324219 199.632812 C 284.488281 199.117188 284.679688 198.617188 284.890625 198.132812 C 285.101562 197.648438 285.332031 197.183594 285.578125 196.742188 C 285.828125 196.300781 286.089844 195.890625 286.367188 195.511719 C 286.640625 195.132812 286.925781 194.792969 287.21875 194.492188 C 287.511719 194.1875 287.808594 193.929688 288.109375 193.714844 " fill-opacity="1" fill-rule="nonzero"/></g><g clip-path="url(#0f013584ba)"><path fill="#f41809" d="M 288.109375 147.167969 L 317.832031 125.90625 C 318.128906 125.695312 318.425781 125.511719 318.71875 125.359375 C 319.011719 125.210938 319.296875 125.09375 319.574219 125.011719 C 319.847656 124.929688 320.113281 124.886719 320.359375 124.875 C 320.609375 124.867188 320.839844 124.894531 321.050781 124.957031 C 321.261719 125.019531 321.449219 125.117188 321.617188 125.25 C 321.78125 125.382812 321.921875 125.550781 322.039062 125.746094 C 322.152344 125.945312 322.238281 126.171875 322.296875 126.429688 C 322.355469 126.683594 322.382812 126.964844 322.382812 127.265625 L 322.382812 155.730469 C 322.382812 156.03125 322.355469 156.351562 322.296875 156.691406 C 322.238281 157.03125 322.152344 157.382812 322.039062 157.742188 C 321.921875 158.105469 321.78125 158.472656 321.617188 158.839844 C 321.449219 159.210938 321.261719 159.582031 321.050781 159.945312 C 320.839844 160.3125 320.609375 160.667969 320.359375 161.011719 C 320.113281 161.359375 319.847656 161.6875 319.574219 162.003906 C 319.296875 162.316406 319.011719 162.605469 318.71875 162.875 C 318.425781 163.144531 318.128906 163.386719 317.832031 163.601562 L 288.109375 184.863281 C 287.808594 185.074219 287.511719 185.257812 287.21875 185.410156 C 286.925781 185.558594 286.640625 185.675781 286.367188 185.757812 C 286.089844 185.839844 285.828125 185.882812 285.578125 185.894531 C 285.332031 185.902344 285.101562 185.875 284.890625 185.8125 C 284.679688 185.75 284.488281 185.652344 284.324219 185.519531 C 284.15625 185.386719 284.015625 185.21875 283.902344 185.023438 C 283.789062 184.824219 283.703125 184.597656 283.644531 184.339844 C 283.585938 184.085938 283.554688 183.808594 283.554688 183.503906 L 283.554688 155.042969 C 283.554688 154.738281 283.585938 154.417969 283.644531 154.078125 C 283.703125 153.738281 283.789062 153.390625 283.902344 153.027344 C 284.015625 152.664062 284.15625 152.300781 284.324219 151.929688 C 284.488281 151.558594 284.679688 151.191406 284.890625 150.824219 C 285.101562 150.457031 285.332031 150.101562 285.578125 149.757812 C 285.828125 149.410156 286.089844 149.082031 286.367188 148.765625 C 286.640625 148.453125 286.925781 148.164062 287.21875 147.894531 C 287.511719 147.625 287.808594 147.382812 288.109375 147.167969 " fill-opacity="1" fill-rule="nonzero"/></g><path fill="#3b3bff" d="M 154.164062 282.832031 L 182.917969 302.144531 C 183.238281 302.363281 183.558594 302.625 183.871094 302.9375 C 184.183594 303.253906 184.488281 303.609375 184.785156 304.007812 C 185.082031 304.410156 185.363281 304.84375 185.628906 305.3125 C 185.894531 305.785156 186.140625 306.28125 186.367188 306.804688 C 186.59375 307.328125 186.796875 307.867188 186.976562 308.425781 C 187.152344 308.980469 187.304688 309.542969 187.425781 310.109375 C 187.546875 310.675781 187.640625 311.238281 187.703125 311.796875 C 187.765625 312.351562 187.796875 312.894531 187.796875 313.417969 L 187.796875 335.117188 C 187.796875 335.644531 187.765625 336.144531 187.703125 336.617188 C 187.640625 337.089844 187.546875 337.527344 187.425781 337.929688 C 187.304688 338.332031 187.152344 338.691406 186.976562 339.007812 C 186.796875 339.324219 186.59375 339.59375 186.367188 339.8125 C 186.140625 340.03125 185.894531 340.199219 185.628906 340.3125 C 185.363281 340.425781 185.082031 340.480469 184.785156 340.484375 C 184.488281 340.484375 184.183594 340.433594 183.871094 340.324219 C 183.558594 340.214844 183.238281 340.054688 182.917969 339.839844 L 154.164062 320.523438 C 153.84375 320.308594 153.523438 320.042969 153.210938 319.730469 C 152.898438 319.417969 152.59375 319.0625 152.296875 318.660156 C 152 318.261719 151.71875 317.828125 151.453125 317.355469 C 151.1875 316.886719 150.941406 316.390625 150.714844 315.867188 C 150.488281 315.34375 150.285156 314.800781 150.105469 314.246094 C 149.929688 313.691406 149.777344 313.128906 149.65625 312.5625 C 149.535156 311.992188 149.441406 311.429688 149.378906 310.875 C 149.316406 310.316406 149.285156 309.777344 149.285156 309.25 L 149.285156 287.550781 C 149.285156 287.027344 149.316406 286.527344 149.378906 286.054688 C 149.441406 285.582031 149.535156 285.144531 149.65625 284.742188 C 149.777344 284.339844 149.929688 283.980469 150.105469 283.660156 C 150.285156 283.34375 150.488281 283.078125 150.714844 282.855469 C 150.941406 282.636719 151.1875 282.472656 151.453125 282.359375 C 151.71875 282.246094 152 282.1875 152.296875 282.1875 C 152.59375 282.183594 152.898438 282.238281 153.210938 282.347656 C 153.523438 282.457031 153.84375 282.617188 154.164062 282.832031 " fill-opacity="1" fill-rule="nonzero"/><path fill="#3b3bff" d="M 154.8125 236.152344 L 183.566406 255.464844 C 183.886719 255.679688 184.203125 255.921875 184.519531 256.1875 C 184.832031 256.449219 185.136719 256.734375 185.433594 257.039062 C 185.730469 257.34375 186.011719 257.660156 186.277344 257.992188 C 186.542969 258.324219 186.789062 258.664062 187.015625 259.007812 C 187.242188 259.355469 187.445312 259.703125 187.625 260.050781 C 187.800781 260.398438 187.953125 260.742188 188.074219 261.078125 C 188.195312 261.414062 188.289062 261.738281 188.351562 262.050781 C 188.414062 262.363281 188.445312 262.65625 188.445312 262.929688 L 188.445312 292.246094 C 188.445312 292.523438 188.414062 292.773438 188.351562 293 C 188.289062 293.230469 188.195312 293.429688 188.074219 293.601562 C 187.953125 293.773438 187.800781 293.914062 187.625 294.023438 C 187.445312 294.128906 187.242188 294.207031 187.015625 294.25 C 186.789062 294.289062 186.542969 294.300781 186.277344 294.273438 C 186.011719 294.246094 185.730469 294.1875 185.433594 294.09375 C 185.136719 294 184.832031 293.875 184.519531 293.71875 C 184.203125 293.558594 183.886719 293.375 183.566406 293.160156 L 154.8125 273.84375 C 154.492188 273.628906 154.171875 273.390625 153.859375 273.125 C 153.546875 272.859375 153.242188 272.574219 152.945312 272.273438 C 152.648438 271.96875 152.367188 271.648438 152.101562 271.316406 C 151.835938 270.988281 151.589844 270.648438 151.363281 270.300781 C 151.136719 269.953125 150.933594 269.605469 150.753906 269.257812 C 150.578125 268.910156 150.425781 268.570312 150.304688 268.230469 C 150.183594 267.894531 150.089844 267.570312 150.027344 267.261719 C 149.964844 266.949219 149.933594 266.65625 149.933594 266.378906 L 149.933594 237.0625 C 149.933594 236.789062 149.964844 236.535156 150.027344 236.308594 C 150.089844 236.082031 150.183594 235.882812 150.304688 235.710938 C 150.425781 235.539062 150.578125 235.398438 150.753906 235.289062 C 150.933594 235.179688 151.136719 235.105469 151.363281 235.0625 C 151.589844 235.019531 151.835938 235.011719 152.101562 235.035156 C 152.367188 235.0625 152.648438 235.121094 152.945312 235.214844 C 153.242188 235.308594 153.546875 235.4375 153.859375 235.59375 C 154.171875 235.75 154.492188 235.9375 154.8125 236.152344 " fill-opacity="1" fill-rule="nonzero"/><path fill="#3b3bff" d="M 154.8125 191.5625 L 183.566406 210.875 C 183.886719 211.089844 184.203125 211.339844 184.519531 211.621094 C 184.832031 211.898438 185.136719 212.207031 185.433594 212.542969 C 185.730469 212.878906 186.011719 213.234375 186.277344 213.613281 C 186.542969 213.992188 186.789062 214.382812 187.015625 214.785156 C 187.242188 215.191406 187.445312 215.601562 187.625 216.019531 C 187.800781 216.433594 187.953125 216.847656 188.074219 217.261719 C 188.195312 217.675781 188.289062 218.078125 188.351562 218.46875 C 188.414062 218.859375 188.445312 219.234375 188.445312 219.59375 L 188.445312 246.402344 C 188.445312 246.761719 188.414062 247.09375 188.351562 247.402344 C 188.289062 247.710938 188.195312 247.988281 188.074219 248.234375 C 187.953125 248.484375 187.800781 248.695312 187.625 248.875 C 187.445312 249.050781 187.242188 249.191406 187.015625 249.292969 C 186.789062 249.390625 186.542969 249.453125 186.277344 249.472656 C 186.011719 249.492188 185.730469 249.46875 185.433594 249.40625 C 185.136719 249.347656 184.832031 249.242188 184.519531 249.101562 C 184.203125 248.960938 183.886719 248.785156 183.566406 248.566406 L 154.8125 229.253906 C 154.492188 229.039062 154.171875 228.789062 153.859375 228.511719 C 153.546875 228.230469 153.242188 227.921875 152.945312 227.585938 C 152.648438 227.25 152.367188 226.894531 152.101562 226.515625 C 151.835938 226.140625 151.589844 225.75 151.363281 225.34375 C 151.136719 224.9375 150.933594 224.527344 150.753906 224.113281 C 150.578125 223.695312 150.425781 223.28125 150.304688 222.867188 C 150.183594 222.457031 150.089844 222.054688 150.027344 221.660156 C 149.964844 221.269531 149.933594 220.894531 149.933594 220.535156 L 149.933594 193.726562 C 149.933594 193.367188 149.964844 193.035156 150.027344 192.726562 C 150.089844 192.417969 150.183594 192.140625 150.304688 191.894531 C 150.425781 191.644531 150.578125 191.433594 150.753906 191.253906 C 150.933594 191.078125 151.136719 190.9375 151.363281 190.839844 C 151.589844 190.738281 151.835938 190.675781 152.101562 190.65625 C 152.367188 190.636719 152.648438 190.660156 152.945312 190.722656 C 153.238281 190.785156 153.546875 190.886719 153.859375 191.027344 C 154.171875 191.167969 154.492188 191.347656 154.8125 191.5625 " fill-opacity="1" fill-rule="nonzero"/><path fill="#3b3bff" d="M 110.808594 253.65625 L 139.5625 272.96875 C 139.882812 273.183594 140.199219 273.441406 140.515625 273.742188 C 140.828125 274.042969 141.132812 274.378906 141.429688 274.75 C 141.726562 275.121094 142.007812 275.523438 142.273438 275.953125 C 142.539062 276.386719 142.785156 276.835938 143.011719 277.308594 C 143.238281 277.78125 143.441406 278.265625 143.617188 278.765625 C 143.796875 279.261719 143.949219 279.757812 144.070312 280.261719 C 144.191406 280.761719 144.285156 281.257812 144.347656 281.742188 C 144.410156 282.230469 144.441406 282.699219 144.441406 283.152344 L 144.441406 307.03125 C 144.441406 307.484375 144.410156 307.914062 144.347656 308.316406 C 144.285156 308.71875 144.191406 309.089844 144.070312 309.425781 C 143.945312 309.761719 143.796875 310.058594 143.617188 310.316406 C 143.441406 310.574219 143.238281 310.785156 143.011719 310.957031 C 142.785156 311.125 142.539062 311.246094 142.273438 311.316406 C 142.007812 311.390625 141.726562 311.414062 141.429688 311.390625 C 141.132812 311.363281 140.828125 311.289062 140.515625 311.167969 C 140.199219 311.046875 139.882812 310.878906 139.5625 310.660156 L 110.808594 291.347656 C 110.488281 291.132812 110.167969 290.875 109.855469 290.574219 C 109.539062 290.277344 109.234375 289.941406 108.941406 289.566406 C 108.644531 289.195312 108.363281 288.792969 108.097656 288.363281 C 107.832031 287.933594 107.582031 287.480469 107.359375 287.007812 C 107.132812 286.535156 106.929688 286.050781 106.75 285.554688 C 106.574219 285.058594 106.421875 284.558594 106.300781 284.054688 C 106.175781 283.554688 106.085938 283.0625 106.023438 282.574219 C 105.960938 282.085938 105.929688 281.617188 105.929688 281.164062 L 105.929688 257.285156 C 105.929688 256.832031 105.960938 256.40625 106.023438 256.003906 C 106.085938 255.597656 106.175781 255.230469 106.300781 254.894531 C 106.421875 254.554688 106.574219 254.257812 106.75 254 C 106.929688 253.742188 107.132812 253.53125 107.359375 253.363281 C 107.582031 253.195312 107.832031 253.074219 108.097656 253 C 108.363281 252.925781 108.644531 252.902344 108.941406 252.925781 C 109.234375 252.953125 109.539062 253.027344 109.855469 253.148438 C 110.167969 253.273438 110.488281 253.441406 110.808594 253.65625 " fill-opacity="1" fill-rule="nonzero"/><path fill="#3b3bff" d="M 110.808594 208.019531 L 139.5625 227.335938 C 139.882812 227.550781 140.199219 227.8125 140.515625 228.117188 C 140.828125 228.421875 141.132812 228.769531 141.429688 229.152344 C 141.726562 229.539062 142.007812 229.953125 142.273438 230.402344 C 142.539062 230.851562 142.785156 231.324219 143.011719 231.820312 C 143.238281 232.316406 143.441406 232.828125 143.617188 233.351562 C 143.796875 233.875 143.945312 234.402344 144.070312 234.933594 C 144.191406 235.464844 144.285156 235.992188 144.347656 236.507812 C 144.410156 237.027344 144.441406 237.53125 144.441406 238.015625 L 144.441406 260.898438 C 144.441406 261.386719 144.410156 261.847656 144.347656 262.28125 C 144.285156 262.714844 144.191406 263.117188 144.070312 263.484375 C 143.945312 263.851562 143.796875 264.175781 143.617188 264.460938 C 143.441406 264.746094 143.238281 264.984375 143.011719 265.175781 C 142.785156 265.367188 142.539062 265.507812 142.273438 265.601562 C 142.007812 265.691406 141.726562 265.730469 141.429688 265.71875 C 141.132812 265.707031 140.828125 265.640625 140.515625 265.523438 C 140.199219 265.410156 139.882812 265.242188 139.5625 265.027344 L 110.808594 245.714844 C 110.488281 245.5 110.167969 245.238281 109.855469 244.933594 C 109.539062 244.625 109.234375 244.28125 108.941406 243.894531 C 108.644531 243.511719 108.363281 243.09375 108.097656 242.644531 C 107.832031 242.195312 107.582031 241.722656 107.359375 241.226562 C 107.132812 240.730469 106.929688 240.222656 106.75 239.699219 C 106.574219 239.175781 106.421875 238.648438 106.300781 238.117188 C 106.175781 237.582031 106.085938 237.058594 106.023438 236.539062 C 105.960938 236.019531 105.929688 235.519531 105.929688 235.03125 L 105.929688 212.148438 C 105.929688 211.664062 105.960938 211.203125 106.023438 210.769531 C 106.085938 210.332031 106.175781 209.933594 106.300781 209.566406 C 106.421875 209.199219 106.574219 208.871094 106.75 208.589844 C 106.929688 208.304688 107.132812 208.066406 107.359375 207.875 C 107.582031 207.683594 107.832031 207.539062 108.097656 207.449219 C 108.363281 207.359375 108.644531 207.320312 108.941406 207.332031 C 109.234375 207.34375 109.539062 207.40625 109.855469 207.523438 C 110.167969 207.640625 110.488281 207.804688 110.808594 208.019531 " fill-opacity="1" fill-rule="nonzero"/><path fill="#3b3bff" d="M 111.121094 164.054688 L 139.875 183.367188 C 140.195312 183.582031 140.515625 183.835938 140.828125 184.121094 C 141.140625 184.410156 141.449219 184.726562 141.742188 185.074219 C 142.039062 185.421875 142.320312 185.792969 142.585938 186.1875 C 142.851562 186.585938 143.097656 186.996094 143.324219 187.425781 C 143.550781 187.851562 143.753906 188.289062 143.933594 188.730469 C 144.109375 189.175781 144.261719 189.617188 144.382812 190.0625 C 144.503906 190.503906 144.597656 190.9375 144.660156 191.363281 C 144.722656 191.785156 144.753906 192.195312 144.753906 192.582031 L 144.753906 218.398438 C 144.753906 218.789062 144.722656 219.152344 144.660156 219.496094 C 144.597656 219.835938 144.503906 220.144531 144.382812 220.421875 C 144.261719 220.699219 144.109375 220.941406 143.933594 221.144531 C 143.753906 221.351562 143.550781 221.515625 143.324219 221.636719 C 143.097656 221.761719 142.851562 221.84375 142.585938 221.878906 C 142.320312 221.917969 142.039062 221.914062 141.742188 221.863281 C 141.449219 221.8125 141.140625 221.722656 140.828125 221.585938 C 140.515625 221.449219 140.195312 221.277344 139.875 221.0625 L 111.121094 201.746094 C 110.800781 201.53125 110.484375 201.28125 110.167969 200.992188 C 109.855469 200.707031 109.550781 200.390625 109.253906 200.039062 C 108.957031 199.691406 108.675781 199.320312 108.410156 198.925781 C 108.144531 198.53125 107.898438 198.117188 107.671875 197.691406 C 107.445312 197.261719 107.242188 196.828125 107.0625 196.382812 C 106.886719 195.9375 106.734375 195.496094 106.613281 195.054688 C 106.492188 194.609375 106.398438 194.175781 106.335938 193.753906 C 106.273438 193.328125 106.242188 192.921875 106.242188 192.53125 L 106.242188 166.714844 C 106.242188 166.328125 106.273438 165.960938 106.335938 165.621094 C 106.398438 165.28125 106.492188 164.972656 106.613281 164.691406 C 106.734375 164.414062 106.886719 164.171875 107.0625 163.96875 C 107.242188 163.765625 107.445312 163.601562 107.671875 163.476562 C 107.898438 163.351562 108.144531 163.273438 108.410156 163.234375 C 108.675781 163.195312 108.957031 163.203125 109.253906 163.253906 C 109.550781 163.300781 109.855469 163.394531 110.167969 163.527344 C 110.484375 163.664062 110.800781 163.839844 111.121094 164.054688 " fill-opacity="1" fill-rule="nonzero"/><g clip-path="url(#9b0c496694)"><path fill="#3b3bff" d="M 66.46875 224.070312 L 95.222656 243.382812 C 95.542969 243.597656 95.863281 243.84375 96.175781 244.121094 C 96.488281 244.394531 96.792969 244.695312 97.089844 245.023438 C 97.386719 245.347656 97.667969 245.691406 97.933594 246.054688 C 98.199219 246.421875 98.445312 246.796875 98.671875 247.183594 C 98.898438 247.570312 99.101562 247.960938 99.28125 248.355469 C 99.457031 248.753906 99.609375 249.144531 99.730469 249.535156 C 99.851562 249.925781 99.945312 250.304688 100.007812 250.671875 C 100.070312 251.039062 100.101562 251.390625 100.101562 251.722656 L 100.101562 279.289062 C 100.101562 279.621094 100.070312 279.929688 100.007812 280.214844 C 99.945312 280.5 99.851562 280.753906 99.730469 280.976562 C 99.609375 281.203125 99.457031 281.394531 99.28125 281.550781 C 99.101562 281.707031 98.898438 281.828125 98.671875 281.910156 C 98.445312 281.992188 98.199219 282.039062 97.933594 282.042969 C 97.667969 282.046875 97.386719 282.015625 97.089844 281.945312 C 96.792969 281.871094 96.488281 281.765625 96.175781 281.617188 C 95.863281 281.472656 95.542969 281.292969 95.222656 281.074219 L 66.46875 261.761719 C 66.148438 261.546875 65.832031 261.300781 65.515625 261.023438 C 65.203125 260.75 64.898438 260.449219 64.601562 260.121094 C 64.304688 259.796875 64.023438 259.453125 63.757812 259.089844 C 63.492188 258.722656 63.246094 258.347656 63.019531 257.960938 C 62.792969 257.574219 62.589844 257.183594 62.410156 256.789062 C 62.234375 256.390625 62.082031 256 61.960938 255.609375 C 61.839844 255.21875 61.746094 254.839844 61.683594 254.472656 C 61.621094 254.105469 61.589844 253.753906 61.589844 253.421875 L 61.589844 225.855469 C 61.589844 225.523438 61.621094 225.214844 61.683594 224.929688 C 61.746094 224.648438 61.839844 224.390625 61.960938 224.167969 C 62.082031 223.941406 62.234375 223.75 62.410156 223.59375 C 62.589844 223.4375 62.792969 223.316406 63.019531 223.234375 C 63.246094 223.152344 63.492188 223.109375 63.757812 223.101562 C 64.023438 223.097656 64.304688 223.128906 64.601562 223.199219 C 64.898438 223.273438 65.203125 223.378906 65.515625 223.527344 C 65.832031 223.671875 66.148438 223.855469 66.46875 224.070312 " fill-opacity="1" fill-rule="nonzero"/></g><path fill="#3b3bff" d="M 67.117188 180.308594 L 95.871094 199.621094 C 96.191406 199.835938 96.511719 200.082031 96.824219 200.355469 C 97.136719 200.628906 97.441406 200.925781 97.738281 201.246094 C 98.035156 201.566406 98.316406 201.902344 98.582031 202.257812 C 98.847656 202.617188 99.09375 202.980469 99.320312 203.359375 C 99.546875 203.738281 99.75 204.117188 99.929688 204.5 C 100.105469 204.886719 100.257812 205.265625 100.378906 205.644531 C 100.5 206.019531 100.59375 206.386719 100.65625 206.738281 C 100.71875 207.09375 100.75 207.429688 100.75 207.75 L 100.75 235.742188 C 100.75 236.058594 100.71875 236.355469 100.65625 236.625 C 100.59375 236.894531 100.5 237.136719 100.378906 237.347656 C 100.257812 237.558594 100.105469 237.738281 99.929688 237.882812 C 99.75 238.027344 99.546875 238.136719 99.320312 238.210938 C 99.09375 238.285156 98.847656 238.320312 98.582031 238.316406 C 98.316406 238.316406 98.035156 238.277344 97.738281 238.199219 C 97.441406 238.121094 97.136719 238.007812 96.824219 237.859375 C 96.511719 237.710938 96.191406 237.53125 95.871094 237.316406 L 67.117188 218 C 66.796875 217.785156 66.476562 217.542969 66.164062 217.269531 C 65.851562 216.996094 65.546875 216.699219 65.25 216.378906 C 64.953125 216.058594 64.671875 215.71875 64.40625 215.363281 C 64.140625 215.007812 63.894531 214.640625 63.667969 214.261719 C 63.441406 213.886719 63.238281 213.503906 63.058594 213.121094 C 62.882812 212.734375 62.730469 212.355469 62.609375 211.980469 C 62.488281 211.601562 62.394531 211.238281 62.332031 210.882812 C 62.269531 210.527344 62.238281 210.191406 62.238281 209.875 L 62.238281 181.882812 C 62.238281 181.5625 62.269531 181.269531 62.332031 181 C 62.394531 180.726562 62.488281 180.488281 62.609375 180.273438 C 62.730469 180.0625 62.882812 179.882812 63.058594 179.738281 C 63.238281 179.59375 63.441406 179.484375 63.667969 179.410156 C 63.894531 179.339844 64.140625 179.304688 64.40625 179.304688 C 64.671875 179.308594 64.953125 179.347656 65.25 179.421875 C 65.546875 179.5 65.851562 179.613281 66.164062 179.761719 C 66.476562 179.910156 66.796875 180.09375 67.117188 180.308594 " fill-opacity="1" fill-rule="nonzero"/><path fill="#3b3bff" d="M 67.117188 135.296875 L 95.871094 154.613281 C 96.191406 154.828125 96.511719 155.070312 96.824219 155.335938 C 97.136719 155.601562 97.441406 155.886719 97.738281 156.195312 C 98.035156 156.5 98.316406 156.820312 98.582031 157.15625 C 98.847656 157.492188 99.09375 157.835938 99.320312 158.1875 C 99.546875 158.539062 99.75 158.890625 99.929688 159.246094 C 100.105469 159.597656 100.257812 159.949219 100.378906 160.289062 C 100.5 160.632812 100.59375 160.964844 100.65625 161.28125 C 100.71875 161.601562 100.75 161.902344 100.75 162.183594 L 100.75 191.289062 C 100.75 191.570312 100.71875 191.828125 100.65625 192.0625 C 100.59375 192.296875 100.5 192.503906 100.378906 192.679688 C 100.257812 192.859375 100.105469 193.007812 99.929688 193.121094 C 99.75 193.234375 99.546875 193.316406 99.320312 193.363281 C 99.09375 193.410156 98.847656 193.425781 98.582031 193.402344 C 98.316406 193.378906 98.035156 193.324219 97.738281 193.234375 C 97.441406 193.140625 97.136719 193.019531 96.824219 192.863281 C 96.511719 192.707031 96.191406 192.519531 95.871094 192.304688 L 67.117188 172.992188 C 66.796875 172.777344 66.476562 172.535156 66.164062 172.269531 C 65.851562 172.003906 65.546875 171.71875 65.25 171.410156 C 64.953125 171.105469 64.671875 170.78125 64.40625 170.445312 C 64.140625 170.113281 63.894531 169.769531 63.667969 169.417969 C 63.441406 169.066406 63.238281 168.710938 63.058594 168.359375 C 62.882812 168.003906 62.730469 167.65625 62.609375 167.3125 C 62.488281 166.96875 62.394531 166.640625 62.332031 166.320312 C 62.269531 166.003906 62.238281 165.703125 62.238281 165.421875 L 62.238281 136.316406 C 62.238281 136.035156 62.269531 135.777344 62.332031 135.542969 C 62.394531 135.308594 62.488281 135.101562 62.609375 134.921875 C 62.730469 134.746094 62.882812 134.597656 63.058594 134.484375 C 63.238281 134.367188 63.441406 134.285156 63.667969 134.238281 C 63.894531 134.191406 64.140625 134.179688 64.40625 134.203125 C 64.671875 134.222656 64.953125 134.28125 65.25 134.371094 C 65.546875 134.460938 65.851562 134.585938 66.164062 134.742188 C 66.476562 134.898438 66.796875 135.082031 67.117188 135.296875 " fill-opacity="1" fill-rule="nonzero"/><path fill="#ffe200" d="M 105.414062 100.960938 L 137.441406 121.328125 C 137.628906 121.445312 137.78125 121.589844 137.894531 121.757812 C 138.007812 121.925781 138.082031 122.113281 138.113281 122.320312 C 138.148438 122.53125 138.140625 122.757812 138.09375 123 C 138.046875 123.242188 137.960938 123.496094 137.835938 123.761719 C 137.710938 124.027344 137.546875 124.300781 137.347656 124.582031 C 137.148438 124.863281 136.914062 125.144531 136.648438 125.425781 C 136.382812 125.710938 136.089844 125.988281 135.765625 126.265625 C 135.445312 126.539062 135.101562 126.808594 134.734375 127.0625 L 109.472656 144.820312 C 109.105469 145.078125 108.726562 145.320312 108.328125 145.550781 C 107.933594 145.777344 107.53125 145.988281 107.121094 146.179688 C 106.710938 146.371094 106.300781 146.542969 105.894531 146.691406 C 105.484375 146.835938 105.085938 146.960938 104.691406 147.058594 C 104.300781 147.152344 103.925781 147.222656 103.566406 147.269531 C 103.207031 147.3125 102.871094 147.328125 102.554688 147.316406 C 102.242188 147.304688 101.957031 147.261719 101.703125 147.195312 C 101.445312 147.128906 101.222656 147.035156 101.035156 146.917969 L 69.007812 126.550781 C 68.820312 126.429688 68.667969 126.285156 68.558594 126.117188 C 68.445312 125.953125 68.371094 125.761719 68.335938 125.554688 C 68.304688 125.34375 68.308594 125.121094 68.355469 124.878906 C 68.402344 124.636719 68.488281 124.378906 68.617188 124.113281 C 68.742188 123.847656 68.902344 123.574219 69.105469 123.292969 C 69.304688 123.015625 69.535156 122.734375 69.800781 122.449219 C 70.066406 122.164062 70.363281 121.886719 70.683594 121.609375 C 71.007812 121.335938 71.351562 121.070312 71.714844 120.8125 L 96.980469 103.054688 C 97.34375 102.796875 97.726562 102.554688 98.121094 102.324219 C 98.515625 102.097656 98.917969 101.886719 99.328125 101.695312 C 99.738281 101.503906 100.148438 101.332031 100.558594 101.1875 C 100.964844 101.039062 101.367188 100.917969 101.757812 100.820312 C 102.148438 100.722656 102.527344 100.652344 102.886719 100.609375 C 103.246094 100.566406 103.582031 100.550781 103.894531 100.5625 C 104.207031 100.574219 104.492188 100.613281 104.75 100.679688 C 105.003906 100.746094 105.226562 100.839844 105.414062 100.960938 " fill-opacity="1" fill-rule="nonzero"/><path fill="#ffe200" d="M 148.980469 129.796875 L 181.007812 150.164062 C 181.195312 150.28125 181.347656 150.425781 181.460938 150.59375 C 181.574219 150.761719 181.644531 150.949219 181.679688 151.15625 C 181.714844 151.367188 181.707031 151.589844 181.660156 151.832031 C 181.613281 152.078125 181.527344 152.332031 181.402344 152.597656 C 181.273438 152.863281 181.113281 153.136719 180.914062 153.417969 C 180.714844 153.695312 180.480469 153.980469 180.214844 154.261719 C 179.949219 154.546875 179.652344 154.824219 179.332031 155.101562 C 179.007812 155.375 178.664062 155.640625 178.300781 155.898438 L 153.035156 173.65625 C 152.671875 173.914062 152.289062 174.15625 151.894531 174.386719 C 151.5 174.613281 151.097656 174.824219 150.6875 175.015625 C 150.277344 175.207031 149.867188 175.378906 149.457031 175.523438 C 149.050781 175.671875 148.648438 175.796875 148.257812 175.890625 C 147.867188 175.988281 147.492188 176.058594 147.132812 176.101562 C 146.773438 176.148438 146.433594 176.164062 146.121094 176.148438 C 145.808594 176.136719 145.523438 176.097656 145.265625 176.03125 C 145.011719 175.964844 144.789062 175.871094 144.601562 175.75 L 112.574219 155.386719 C 112.386719 155.265625 112.234375 155.121094 112.121094 154.953125 C 112.007812 154.785156 111.9375 154.597656 111.902344 154.390625 C 111.867188 154.179688 111.875 153.957031 111.921875 153.714844 C 111.96875 153.472656 112.054688 153.214844 112.179688 152.949219 C 112.304688 152.683594 112.46875 152.410156 112.667969 152.128906 C 112.867188 151.851562 113.101562 151.566406 113.367188 151.285156 C 113.632812 151 113.929688 150.722656 114.25 150.445312 C 114.570312 150.171875 114.914062 149.90625 115.28125 149.648438 L 140.542969 131.890625 C 140.910156 131.632812 141.292969 131.390625 141.6875 131.160156 C 142.082031 130.933594 142.484375 130.722656 142.894531 130.53125 C 143.304688 130.339844 143.714844 130.167969 144.121094 130.023438 C 144.53125 129.875 144.933594 129.753906 145.324219 129.65625 C 145.714844 129.558594 146.089844 129.488281 146.449219 129.445312 C 146.808594 129.398438 147.148438 129.382812 147.460938 129.398438 C 147.773438 129.410156 148.058594 129.449219 148.316406 129.515625 C 148.570312 129.582031 148.792969 129.675781 148.980469 129.796875 " fill-opacity="1" fill-rule="nonzero"/><path fill="#ffe200" d="M 193.707031 158.222656 L 225.734375 178.589844 C 225.921875 178.707031 226.074219 178.851562 226.1875 179.019531 C 226.300781 179.1875 226.375 179.375 226.40625 179.582031 C 226.441406 179.792969 226.433594 180.019531 226.386719 180.261719 C 226.339844 180.503906 226.253906 180.757812 226.128906 181.023438 C 226.003906 181.289062 225.839844 181.5625 225.640625 181.84375 C 225.441406 182.125 225.207031 182.40625 224.941406 182.6875 C 224.675781 182.972656 224.382812 183.25 224.058594 183.527344 C 223.738281 183.800781 223.394531 184.070312 223.027344 184.324219 L 197.765625 202.082031 C 197.398438 202.339844 197.019531 202.582031 196.621094 202.8125 C 196.226562 203.039062 195.824219 203.25 195.414062 203.441406 C 195.003906 203.636719 194.59375 203.804688 194.1875 203.953125 C 193.777344 204.097656 193.378906 204.222656 192.984375 204.320312 C 192.59375 204.417969 192.21875 204.488281 191.859375 204.53125 C 191.5 204.574219 191.164062 204.589844 190.847656 204.578125 C 190.535156 204.566406 190.25 204.523438 189.996094 204.457031 C 189.738281 204.390625 189.515625 204.296875 189.328125 204.179688 L 157.300781 183.8125 C 157.113281 183.691406 156.960938 183.546875 156.847656 183.378906 C 156.734375 183.214844 156.664062 183.023438 156.628906 182.816406 C 156.59375 182.605469 156.601562 182.382812 156.648438 182.140625 C 156.695312 181.898438 156.78125 181.644531 156.90625 181.375 C 157.035156 181.109375 157.195312 180.835938 157.394531 180.554688 C 157.597656 180.277344 157.828125 179.996094 158.09375 179.710938 C 158.359375 179.429688 158.65625 179.148438 158.976562 178.871094 C 159.300781 178.597656 159.644531 178.332031 160.007812 178.074219 L 185.273438 160.316406 C 185.636719 160.058594 186.019531 159.816406 186.414062 159.589844 C 186.808594 159.359375 187.210938 159.148438 187.621094 158.957031 C 188.03125 158.765625 188.441406 158.59375 188.851562 158.449219 C 189.257812 158.300781 189.660156 158.179688 190.050781 158.082031 C 190.441406 157.984375 190.816406 157.914062 191.175781 157.871094 C 191.539062 157.828125 191.875 157.8125 192.1875 157.824219 C 192.5 157.835938 192.785156 157.875 193.042969 157.941406 C 193.296875 158.007812 193.519531 158.101562 193.707031 158.222656 " fill-opacity="1" fill-rule="nonzero"/><path fill="#ffe200" d="M 149.542969 70.359375 L 181.570312 90.726562 C 181.757812 90.84375 181.910156 90.988281 182.023438 91.15625 C 182.136719 91.324219 182.210938 91.511719 182.242188 91.722656 C 182.277344 91.929688 182.269531 92.15625 182.222656 92.398438 C 182.175781 92.640625 182.089844 92.894531 181.964844 93.160156 C 181.839844 93.425781 181.675781 93.699219 181.476562 93.980469 C 181.277344 94.261719 181.042969 94.542969 180.777344 94.824219 C 180.511719 95.109375 180.21875 95.386719 179.894531 95.664062 C 179.574219 95.941406 179.230469 96.207031 178.863281 96.464844 L 153.601562 114.21875 C 153.234375 114.476562 152.855469 114.71875 152.457031 114.949219 C 152.0625 115.179688 151.660156 115.386719 151.25 115.578125 C 150.839844 115.773438 150.429688 115.941406 150.023438 116.089844 C 149.613281 116.234375 149.214844 116.359375 148.820312 116.457031 C 148.429688 116.554688 148.054688 116.625 147.695312 116.667969 C 147.335938 116.710938 147 116.726562 146.683594 116.714844 C 146.371094 116.703125 146.085938 116.664062 145.832031 116.59375 C 145.574219 116.527344 145.351562 116.433594 145.164062 116.316406 L 113.136719 95.949219 C 112.949219 95.828125 112.796875 95.683594 112.683594 95.519531 C 112.574219 95.351562 112.5 95.164062 112.464844 94.953125 C 112.429688 94.746094 112.4375 94.519531 112.484375 94.277344 C 112.53125 94.035156 112.617188 93.78125 112.742188 93.511719 C 112.871094 93.246094 113.03125 92.972656 113.230469 92.695312 C 113.433594 92.414062 113.664062 92.132812 113.929688 91.847656 C 114.195312 91.566406 114.492188 91.285156 114.8125 91.011719 C 115.136719 90.734375 115.480469 90.46875 115.84375 90.210938 L 141.109375 72.453125 C 141.472656 72.195312 141.855469 71.953125 142.25 71.726562 C 142.644531 71.496094 143.046875 71.285156 143.457031 71.09375 C 143.867188 70.902344 144.277344 70.734375 144.6875 70.585938 C 145.09375 70.4375 145.496094 70.316406 145.886719 70.21875 C 146.277344 70.121094 146.652344 70.050781 147.011719 70.007812 C 147.375 69.964844 147.710938 69.949219 148.023438 69.960938 C 148.335938 69.972656 148.621094 70.011719 148.878906 70.078125 C 149.132812 70.144531 149.355469 70.238281 149.542969 70.359375 " fill-opacity="1" fill-rule="nonzero"/><path fill="#ffe200" d="M 193.660156 98.390625 L 225.6875 118.757812 C 225.878906 118.875 226.027344 119.019531 226.140625 119.1875 C 226.253906 119.355469 226.328125 119.542969 226.359375 119.75 C 226.394531 119.960938 226.386719 120.1875 226.339844 120.429688 C 226.292969 120.671875 226.207031 120.925781 226.082031 121.191406 C 225.957031 121.457031 225.792969 121.730469 225.59375 122.011719 C 225.394531 122.292969 225.160156 122.574219 224.894531 122.855469 C 224.628906 123.140625 224.335938 123.417969 224.011719 123.695312 C 223.691406 123.96875 223.347656 124.238281 222.980469 124.496094 L 197.71875 142.25 C 197.351562 142.507812 196.972656 142.75 196.574219 142.980469 C 196.179688 143.207031 195.777344 143.417969 195.367188 143.609375 C 194.957031 143.804688 194.546875 143.972656 194.140625 144.121094 C 193.730469 144.265625 193.332031 144.390625 192.941406 144.488281 C 192.546875 144.585938 192.171875 144.65625 191.8125 144.699219 C 191.453125 144.742188 191.117188 144.757812 190.800781 144.746094 C 190.488281 144.734375 190.203125 144.691406 189.949219 144.625 C 189.691406 144.558594 189.46875 144.464844 189.28125 144.347656 L 157.253906 123.980469 C 157.066406 123.859375 156.917969 123.714844 156.804688 123.546875 C 156.691406 123.382812 156.617188 123.191406 156.582031 122.984375 C 156.550781 122.777344 156.554688 122.550781 156.601562 122.308594 C 156.648438 122.066406 156.734375 121.8125 156.863281 121.542969 C 156.988281 121.277344 157.152344 121.003906 157.351562 120.726562 C 157.550781 120.445312 157.78125 120.164062 158.046875 119.878906 C 158.316406 119.597656 158.609375 119.316406 158.929688 119.039062 C 159.253906 118.765625 159.597656 118.5 159.964844 118.242188 L 185.226562 100.484375 C 185.59375 100.226562 185.972656 99.984375 186.367188 99.757812 C 186.761719 99.527344 187.167969 99.316406 187.578125 99.125 C 187.984375 98.933594 188.394531 98.765625 188.804688 98.617188 C 189.210938 98.46875 189.613281 98.347656 190.003906 98.25 C 190.394531 98.152344 190.773438 98.082031 191.132812 98.039062 C 191.492188 97.996094 191.828125 97.980469 192.140625 97.992188 C 192.457031 98.003906 192.738281 98.042969 192.996094 98.109375 C 193.25 98.175781 193.472656 98.269531 193.660156 98.390625 " fill-opacity="1" fill-rule="nonzero"/><path fill="#ffe200" d="M 239.328125 127.4375 L 271.355469 147.804688 C 271.542969 147.925781 271.695312 148.066406 271.808594 148.234375 C 271.921875 148.402344 271.992188 148.589844 272.027344 148.800781 C 272.0625 149.007812 272.054688 149.234375 272.007812 149.476562 C 271.960938 149.71875 271.875 149.972656 271.75 150.238281 C 271.625 150.507812 271.460938 150.78125 271.261719 151.058594 C 271.0625 151.339844 270.828125 151.621094 270.5625 151.90625 C 270.296875 152.1875 270.003906 152.46875 269.679688 152.742188 C 269.359375 153.019531 269.015625 153.285156 268.648438 153.542969 L 243.386719 171.300781 C 243.019531 171.554688 242.636719 171.800781 242.242188 172.027344 C 241.847656 172.257812 241.445312 172.46875 241.035156 172.660156 C 240.625 172.851562 240.214844 173.019531 239.808594 173.167969 C 239.398438 173.316406 239 173.4375 238.605469 173.535156 C 238.214844 173.632812 237.839844 173.703125 237.480469 173.746094 C 237.121094 173.789062 236.785156 173.804688 236.46875 173.792969 C 236.15625 173.78125 235.871094 173.742188 235.617188 173.675781 C 235.359375 173.609375 235.136719 173.515625 234.949219 173.394531 L 202.921875 153.027344 C 202.734375 152.90625 202.582031 152.765625 202.46875 152.597656 C 202.355469 152.429688 202.285156 152.242188 202.25 152.03125 C 202.214844 151.824219 202.222656 151.597656 202.269531 151.355469 C 202.316406 151.113281 202.402344 150.859375 202.527344 150.59375 C 202.65625 150.328125 202.816406 150.054688 203.015625 149.773438 C 203.21875 149.492188 203.449219 149.210938 203.714844 148.925781 C 203.980469 148.644531 204.277344 148.363281 204.597656 148.089844 C 204.921875 147.8125 205.265625 147.546875 205.628906 147.289062 L 230.894531 129.535156 C 231.257812 129.277344 231.640625 129.035156 232.035156 128.804688 C 232.429688 128.574219 232.832031 128.367188 233.242188 128.171875 C 233.652344 127.980469 234.0625 127.8125 234.472656 127.664062 C 234.878906 127.515625 235.28125 127.394531 235.671875 127.296875 C 236.0625 127.199219 236.4375 127.128906 236.796875 127.085938 C 237.15625 127.042969 237.496094 127.027344 237.808594 127.039062 C 238.121094 127.050781 238.40625 127.089844 238.664062 127.160156 C 238.917969 127.226562 239.140625 127.320312 239.328125 127.4375 " fill-opacity="1" fill-rule="nonzero"/><path fill="#ffe200" d="M 192.382812 40.246094 L 224.410156 60.613281 C 224.597656 60.734375 224.75 60.878906 224.863281 61.046875 C 224.976562 61.210938 225.046875 61.402344 225.082031 61.609375 C 225.117188 61.820312 225.109375 62.042969 225.0625 62.285156 C 225.015625 62.527344 224.929688 62.78125 224.804688 63.050781 C 224.679688 63.316406 224.515625 63.589844 224.316406 63.871094 C 224.117188 64.148438 223.882812 64.429688 223.617188 64.714844 C 223.351562 65 223.058594 65.277344 222.734375 65.554688 C 222.414062 65.828125 222.070312 66.09375 221.703125 66.351562 L 196.441406 84.109375 C 196.074219 84.367188 195.691406 84.609375 195.296875 84.839844 C 194.902344 85.066406 194.5 85.277344 194.089844 85.46875 C 193.679688 85.660156 193.269531 85.832031 192.863281 85.976562 C 192.453125 86.125 192.054688 86.246094 191.660156 86.34375 C 191.269531 86.441406 190.894531 86.511719 190.535156 86.554688 C 190.175781 86.597656 189.839844 86.613281 189.523438 86.601562 C 189.210938 86.589844 188.925781 86.550781 188.671875 86.484375 C 188.414062 86.417969 188.191406 86.324219 188.003906 86.203125 L 155.976562 65.835938 C 155.789062 65.71875 155.636719 65.574219 155.523438 65.40625 C 155.410156 65.238281 155.339844 65.050781 155.304688 64.84375 C 155.269531 64.632812 155.277344 64.40625 155.324219 64.164062 C 155.371094 63.921875 155.457031 63.667969 155.582031 63.402344 C 155.710938 63.136719 155.871094 62.863281 156.070312 62.582031 C 156.273438 62.300781 156.503906 62.019531 156.769531 61.738281 C 157.035156 61.453125 157.332031 61.175781 157.652344 60.898438 C 157.976562 60.625 158.320312 60.355469 158.683594 60.101562 L 183.949219 42.34375 C 184.3125 42.085938 184.695312 41.84375 185.089844 41.613281 C 185.484375 41.386719 185.886719 41.175781 186.296875 40.984375 C 186.707031 40.792969 187.117188 40.621094 187.527344 40.472656 C 187.933594 40.328125 188.335938 40.203125 188.726562 40.105469 C 189.117188 40.011719 189.492188 39.941406 189.851562 39.894531 C 190.210938 39.851562 190.550781 39.835938 190.863281 39.847656 C 191.175781 39.859375 191.460938 39.902344 191.71875 39.96875 C 191.972656 40.035156 192.195312 40.128906 192.382812 40.246094 " fill-opacity="1" fill-rule="nonzero"/><path fill="#ffe200" d="M 237.761719 68.242188 L 269.789062 88.609375 C 269.980469 88.726562 270.128906 88.871094 270.242188 89.039062 C 270.355469 89.207031 270.429688 89.394531 270.460938 89.601562 C 270.496094 89.8125 270.488281 90.039062 270.441406 90.28125 C 270.394531 90.523438 270.308594 90.777344 270.183594 91.042969 C 270.058594 91.308594 269.894531 91.582031 269.695312 91.863281 C 269.496094 92.144531 269.261719 92.425781 268.996094 92.707031 C 268.730469 92.992188 268.4375 93.269531 268.113281 93.546875 C 267.792969 93.820312 267.449219 94.089844 267.082031 94.34375 L 241.820312 112.101562 C 241.453125 112.359375 241.074219 112.601562 240.679688 112.832031 C 240.28125 113.058594 239.878906 113.269531 239.46875 113.460938 C 239.058594 113.652344 238.652344 113.824219 238.242188 113.972656 C 237.832031 114.117188 237.433594 114.242188 237.042969 114.335938 C 236.648438 114.433594 236.273438 114.503906 235.914062 114.550781 C 235.554688 114.59375 235.21875 114.609375 234.90625 114.597656 C 234.589844 114.582031 234.304688 114.542969 234.050781 114.476562 C 233.792969 114.410156 233.574219 114.316406 233.382812 114.195312 L 201.355469 93.832031 C 201.167969 93.710938 201.019531 93.566406 200.90625 93.398438 C 200.792969 93.230469 200.71875 93.042969 200.683594 92.835938 C 200.652344 92.625 200.65625 92.402344 200.703125 92.160156 C 200.75 91.917969 200.839844 91.660156 200.964844 91.394531 C 201.089844 91.128906 201.253906 90.855469 201.453125 90.574219 C 201.652344 90.296875 201.882812 90.011719 202.152344 89.730469 C 202.417969 89.445312 202.710938 89.167969 203.03125 88.890625 C 203.355469 88.617188 203.699219 88.351562 204.066406 88.09375 L 229.328125 70.335938 C 229.695312 70.078125 230.074219 69.835938 230.46875 69.605469 C 230.867188 69.378906 231.269531 69.167969 231.679688 68.976562 C 232.089844 68.785156 232.496094 68.613281 232.90625 68.46875 C 233.316406 68.320312 233.714844 68.199219 234.105469 68.101562 C 234.5 68.003906 234.875 67.933594 235.234375 67.890625 C 235.59375 67.847656 235.929688 67.828125 236.242188 67.84375 C 236.558594 67.855469 236.84375 67.894531 237.097656 67.960938 C 237.351562 68.027344 237.574219 68.121094 237.761719 68.242188 " fill-opacity="1" fill-rule="nonzero"/><path fill="#ffe200" d="M 282.199219 97.304688 L 314.226562 117.671875 C 314.414062 117.792969 314.5625 117.9375 314.675781 118.101562 C 314.789062 118.269531 314.863281 118.460938 314.898438 118.667969 C 314.929688 118.875 314.925781 119.101562 314.878906 119.34375 C 314.832031 119.585938 314.746094 119.839844 314.617188 120.109375 C 314.492188 120.375 314.332031 120.648438 314.128906 120.925781 C 313.929688 121.207031 313.699219 121.488281 313.433594 121.773438 C 313.164062 122.054688 312.871094 122.335938 312.550781 122.609375 C 312.226562 122.886719 311.882812 123.152344 311.519531 123.410156 L 286.253906 141.167969 C 285.890625 141.425781 285.507812 141.667969 285.113281 141.894531 C 284.71875 142.125 284.316406 142.335938 283.90625 142.527344 C 283.496094 142.71875 283.085938 142.886719 282.675781 143.035156 C 282.269531 143.183594 281.867188 143.304688 281.476562 143.402344 C 281.085938 143.5 280.707031 143.570312 280.347656 143.613281 C 279.988281 143.65625 279.652344 143.671875 279.339844 143.660156 C 279.027344 143.648438 278.742188 143.609375 278.484375 143.542969 C 278.230469 143.476562 278.007812 143.382812 277.820312 143.261719 L 245.792969 122.894531 C 245.605469 122.777344 245.453125 122.632812 245.339844 122.464844 C 245.226562 122.296875 245.152344 122.109375 245.121094 121.902344 C 245.085938 121.691406 245.09375 121.464844 245.140625 121.222656 C 245.1875 120.980469 245.273438 120.726562 245.398438 120.460938 C 245.523438 120.195312 245.6875 119.921875 245.886719 119.640625 C 246.085938 119.359375 246.320312 119.078125 246.585938 118.796875 C 246.851562 118.511719 247.144531 118.234375 247.46875 117.957031 C 247.789062 117.679688 248.132812 117.414062 248.5 117.15625 L 273.761719 99.402344 C 274.128906 99.144531 274.507812 98.902344 274.90625 98.671875 C 275.300781 98.445312 275.703125 98.234375 276.113281 98.042969 C 276.523438 97.847656 276.933594 97.679688 277.339844 97.53125 C 277.75 97.386719 278.148438 97.261719 278.542969 97.164062 C 278.933594 97.066406 279.308594 96.996094 279.667969 96.953125 C 280.027344 96.910156 280.363281 96.894531 280.679688 96.90625 C 280.992188 96.917969 281.277344 96.957031 281.53125 97.027344 C 281.789062 97.09375 282.011719 97.1875 282.199219 97.304688 " fill-opacity="1" fill-rule="nonzero"/></svg>