<svg xmlns="http://www.w3.org/2000/svg" xmlns:xlink="http://www.w3.org/1999/xlink" width="512" zoomAndPan="magnify" viewBox="0 0 384 383.999986" height="512" preserveAspectRatio="xMidYMid meet" version="1.0"><defs><clipPath id="f38d213562"><path d="M 141 103.5 L 305 103.5 L 305 265.289062 L 141 265.289062 Z M 141 103.5 " clip-rule="nonzero"/></clipPath></defs><path fill="#242938" d="M 90 0 L 294 0 C 295.472656 0 296.945312 0.0351562 298.417969 0.109375 C 299.886719 0.179688 301.355469 0.289062 302.820312 0.433594 C 304.289062 0.578125 305.75 0.757812 307.207031 0.972656 C 308.664062 1.191406 310.113281 1.441406 311.558594 1.730469 C 313.003906 2.015625 314.4375 2.339844 315.867188 2.695312 C 317.296875 3.054688 318.714844 3.449219 320.125 3.875 C 321.535156 4.304688 322.933594 4.765625 324.320312 5.261719 C 325.707031 5.757812 327.082031 6.289062 328.441406 6.851562 C 329.800781 7.414062 331.148438 8.011719 332.480469 8.640625 C 333.8125 9.269531 335.125 9.933594 336.425781 10.628906 C 337.726562 11.320312 339.003906 12.046875 340.269531 12.804688 C 341.53125 13.5625 342.777344 14.347656 344 15.167969 C 345.226562 15.984375 346.429688 16.832031 347.613281 17.710938 C 348.796875 18.589844 349.957031 19.496094 351.09375 20.429688 C 352.234375 21.363281 353.347656 22.324219 354.441406 23.3125 C 355.53125 24.304688 356.597656 25.320312 357.640625 26.359375 C 358.679688 27.402344 359.695312 28.46875 360.6875 29.558594 C 361.675781 30.652344 362.636719 31.765625 363.570312 32.90625 C 364.503906 34.042969 365.410156 35.203125 366.289062 36.386719 C 367.167969 37.570312 368.015625 38.773438 368.832031 40 C 369.652344 41.222656 370.4375 42.46875 371.195312 43.730469 C 371.953125 44.992188 372.679688 46.273438 373.371094 47.574219 C 374.066406 48.875 374.730469 50.1875 375.359375 51.519531 C 375.988281 52.851562 376.585938 54.199219 377.148438 55.558594 C 377.710938 56.917969 378.242188 58.292969 378.738281 59.679688 C 379.234375 61.066406 379.695312 62.464844 380.125 63.875 C 380.550781 65.285156 380.945312 66.703125 381.304688 68.132812 C 381.660156 69.5625 381.984375 70.996094 382.269531 72.441406 C 382.558594 73.886719 382.808594 75.335938 383.027344 76.792969 C 383.242188 78.25 383.421875 79.710938 383.566406 81.179688 C 383.710938 82.644531 383.820312 84.113281 383.890625 85.582031 C 383.964844 87.054688 384 88.527344 384 90 L 384 294 C 384 295.472656 383.964844 296.945312 383.890625 298.417969 C 383.820312 299.886719 383.710938 301.355469 383.566406 302.820312 C 383.421875 304.289062 383.242188 305.75 383.027344 307.207031 C 382.808594 308.664062 382.558594 310.113281 382.269531 311.558594 C 381.984375 313.003906 381.660156 314.4375 381.304688 315.867188 C 380.945312 317.296875 380.550781 318.714844 380.125 320.125 C 379.695312 321.535156 379.234375 322.933594 378.738281 324.320312 C 378.242188 325.707031 377.710938 327.082031 377.148438 328.441406 C 376.585938 329.800781 375.988281 331.148438 375.359375 332.480469 C 374.730469 333.8125 374.066406 335.125 373.371094 336.425781 C 372.679688 337.726562 371.953125 339.003906 371.195312 340.269531 C 370.4375 341.53125 369.652344 342.777344 368.832031 344 C 368.015625 345.226562 367.167969 346.429688 366.289062 347.613281 C 365.410156 348.796875 364.503906 349.957031 363.570312 351.09375 C 362.636719 352.234375 361.675781 353.347656 360.6875 354.441406 C 359.695312 355.53125 358.679688 356.597656 357.640625 357.640625 C 356.597656 358.679688 355.53125 359.695312 354.441406 360.683594 C 353.347656 361.675781 352.234375 362.636719 351.09375 363.570312 C 349.957031 364.503906 348.796875 365.410156 347.613281 366.289062 C 346.429688 367.167969 345.226562 368.015625 344 368.832031 C 342.777344 369.652344 341.53125 370.4375 340.269531 371.195312 C 339.007812 371.953125 337.726562 372.679688 336.425781 373.371094 C 335.125 374.066406 333.8125 374.730469 332.480469 375.359375 C 331.148438 375.988281 329.800781 376.585938 328.441406 377.148438 C 327.082031 377.710938 325.707031 378.242188 324.320312 378.738281 C 322.933594 379.234375 321.535156 379.695312 320.125 380.125 C 318.714844 380.550781 317.296875 380.945312 315.867188 381.304688 C 314.4375 381.660156 313.003906 381.984375 311.558594 382.269531 C 310.113281 382.558594 308.664062 382.808594 307.207031 383.027344 C 305.75 383.242188 304.289062 383.421875 302.820312 383.566406 C 301.355469 383.710938 299.886719 383.820312 298.417969 383.890625 C 296.945312 383.964844 295.472656 384 294 384 L 90 384 C 88.527344 384 87.054688 383.964844 85.582031 383.890625 C 84.113281 383.820312 82.644531 383.710938 81.179688 383.566406 C 79.710938 383.421875 78.25 383.242188 76.792969 383.027344 C 75.335938 382.808594 73.886719 382.558594 72.441406 382.269531 C 70.996094 381.984375 69.5625 381.660156 68.132812 381.304688 C 66.703125 380.945312 65.285156 380.550781 63.875 380.125 C 62.464844 379.695312 61.066406 379.234375 59.679688 378.738281 C 58.292969 378.242188 56.917969 377.710938 55.558594 377.148438 C 54.199219 376.585938 52.851562 375.988281 51.519531 375.359375 C 50.1875 374.730469 48.875 374.066406 47.574219 373.371094 C 46.273438 372.679688 44.992188 371.953125 43.730469 371.195312 C 42.46875 370.4375 41.222656 369.652344 40 368.832031 C 38.773438 368.015625 37.570312 367.167969 36.386719 366.289062 C 35.203125 365.410156 34.042969 364.503906 32.90625 363.570312 C 31.765625 362.636719 30.652344 361.675781 29.558594 360.683594 C 28.46875 359.695312 27.402344 358.679688 26.359375 357.640625 C 25.320312 356.597656 24.304688 355.53125 23.3125 354.441406 C 22.324219 353.347656 21.363281 352.234375 20.429688 351.09375 C 19.496094 349.957031 18.589844 348.796875 17.710938 347.613281 C 16.832031 346.429688 15.984375 345.226562 15.167969 344 C 14.347656 342.777344 13.5625 341.53125 12.804688 340.269531 C 12.046875 339.003906 11.320312 337.726562 10.628906 336.425781 C 9.933594 335.125 9.269531 333.8125 8.640625 332.480469 C 8.011719 331.148438 7.414062 329.800781 6.851562 328.441406 C 6.289062 327.082031 5.757812 325.707031 5.261719 324.320312 C 4.765625 322.933594 4.304688 321.535156 3.875 320.125 C 3.449219 318.714844 3.054688 317.296875 2.695312 315.867188 C 2.339844 314.4375 2.015625 313.003906 1.730469 311.558594 C 1.441406 310.113281 1.191406 308.664062 0.972656 307.207031 C 0.757812 305.75 0.578125 304.289062 0.433594 302.820312 C 0.289062 301.355469 0.179688 299.886719 0.109375 298.417969 C 0.0351562 296.945312 0 295.472656 0 294 L 0 90 C 0 88.527344 0.0351562 87.054688 0.109375 85.582031 C 0.179688 84.113281 0.289062 82.644531 0.433594 81.179688 C 0.578125 79.710938 0.757812 78.25 0.972656 76.792969 C 1.191406 75.335938 1.441406 73.886719 1.730469 72.441406 C 2.015625 70.996094 2.339844 69.5625 2.695312 68.132812 C 3.054688 66.703125 3.449219 65.285156 3.875 63.875 C 4.304688 62.464844 4.765625 61.066406 5.261719 59.679688 C 5.757812 58.292969 6.289062 56.917969 6.851562 55.558594 C 7.414062 54.199219 8.011719 52.851562 8.640625 51.519531 C 9.269531 50.1875 9.933594 48.875 10.628906 47.574219 C 11.320312 46.273438 12.046875 44.992188 12.804688 43.730469 C 13.5625 42.46875 14.347656 41.222656 15.167969 40 C 15.984375 38.773438 16.832031 37.570312 17.710938 36.386719 C 18.589844 35.203125 19.496094 34.042969 20.429688 32.90625 C 21.363281 31.765625 22.324219 30.652344 23.3125 29.558594 C 24.304688 28.46875 25.320312 27.402344 26.359375 26.359375 C 27.402344 25.320312 28.46875 24.304688 29.558594 23.3125 C 30.652344 22.324219 31.765625 21.363281 32.90625 20.429688 C 34.042969 19.496094 35.203125 18.589844 36.386719 17.710938 C 37.570312 16.832031 38.773438 15.984375 40 15.167969 C 41.222656 14.347656 42.46875 13.5625 43.730469 12.804688 C 44.992188 12.046875 46.273438 11.320312 47.574219 10.628906 C 48.875 9.933594 50.1875 9.269531 51.519531 8.640625 C 52.851562 8.011719 54.199219 7.414062 55.558594 6.851562 C 56.917969 6.289062 58.292969 5.757812 59.679688 5.261719 C 61.066406 4.765625 62.464844 4.304688 63.875 3.875 C 65.285156 3.449219 66.703125 3.054688 68.132812 2.695312 C 69.5625 2.339844 70.996094 2.015625 72.441406 1.730469 C 73.886719 1.441406 75.335938 1.191406 76.792969 0.972656 C 78.25 0.757812 79.710938 0.578125 81.179688 0.433594 C 82.644531 0.289062 84.113281 0.179688 85.582031 0.109375 C 87.054688 0.0351562 88.527344 0 90 0 Z M 90 0 " fill-opacity="1" fill-rule="nonzero"/><g clip-path="url(#f38d213562)"><path fill="#f89939" d="M 272.109375 240.980469 C 308.746094 204.34375 314.835938 151.035156 285.707031 121.910156 C 256.585938 92.785156 203.277344 98.875 166.640625 135.511719 C 130.003906 172.144531 140.601562 242.140625 153.042969 254.582031 C 163.09375 264.632812 235.472656 277.617188 272.109375 240.980469 Z M 272.109375 240.980469 " fill-opacity="1" fill-rule="nonzero"/></g><path fill="#3499cd" d="M 121.773438 188.042969 C 100.515625 166.789062 69.585938 163.25 52.683594 180.148438 C 35.785156 197.050781 39.316406 227.988281 60.574219 249.238281 C 81.835938 270.5 122.449219 264.351562 129.660156 257.128906 C 135.5 251.300781 143.035156 209.300781 121.773438 188.042969 Z M 121.773438 188.042969 " fill-opacity="1" fill-rule="nonzero"/><path fill="#010101" d="M 195.109375 232.003906 C 191.355469 235.457031 188.0625 238.007812 185.230469 239.648438 C 182.398438 241.292969 179.699219 242.113281 177.128906 242.113281 C 174.175781 242.113281 171.789062 240.96875 169.980469 238.675781 C 168.171875 236.378906 167.269531 233.304688 167.269531 229.433594 C 167.269531 223.632812 168.527344 216.671875 171.039062 208.554688 C 173.550781 200.429688 176.605469 192.945312 180.195312 186.09375 L 190.71875 182.199219 C 191.050781 182.089844 191.300781 182.03125 191.46875 182.03125 C 192.265625 182.03125 192.925781 182.621094 193.433594 183.792969 C 193.945312 184.96875 194.199219 186.550781 194.199219 188.539062 C 194.199219 194.171875 192.90625 199.628906 190.304688 204.90625 C 187.707031 210.183594 183.648438 215.816406 178.125 221.808594 C 177.902344 224.683594 177.792969 226.65625 177.792969 227.734375 C 177.792969 230.140625 178.234375 232.042969 179.117188 233.453125 C 180 234.863281 181.175781 235.566406 182.636719 235.566406 C 184.132812 235.566406 185.71875 235.03125 187.40625 233.953125 C 189.085938 232.875 191.65625 230.636719 195.109375 227.238281 Z M 179.242188 215.804688 C 182.75 211.902344 185.597656 207.53125 187.777344 202.691406 C 189.960938 197.851562 191.050781 193.6875 191.050781 190.199219 C 191.050781 189.179688 190.898438 188.355469 190.597656 187.734375 C 190.292969 187.113281 189.902344 186.800781 189.433594 186.800781 C 188.417969 186.800781 186.929688 189.34375 184.980469 194.433594 C 183.03125 199.523438 181.121094 206.644531 179.242188 215.804688 Z M 179.242188 215.804688 " fill-opacity="1" fill-rule="nonzero"/><path fill="#010101" d="M 226.105469 232 C 222.597656 235.457031 219.449219 238.007812 216.660156 239.648438 C 213.867188 241.292969 210.792969 242.113281 207.421875 242.113281 C 203.664062 242.113281 200.632812 240.910156 198.320312 238.511719 C 196.015625 236.101562 194.863281 232.941406 194.863281 229.019531 C 194.863281 223.164062 196.894531 217.867188 200.960938 213.128906 C 205.015625 208.390625 209.519531 206.023438 214.464844 206.023438 C 217.035156 206.023438 219.089844 206.6875 220.636719 208.015625 C 222.183594 209.339844 222.957031 211.078125 222.957031 213.234375 C 222.957031 218.953125 216.882812 223.589844 204.726562 227.15625 C 205.832031 232.539062 208.71875 235.234375 213.386719 235.234375 C 215.210938 235.234375 216.949219 234.746094 218.605469 233.765625 C 220.265625 232.785156 222.761719 230.605469 226.105469 227.238281 Z M 204.394531 224.335938 C 211.464844 222.347656 215 218.675781 215 213.316406 C 215 210.664062 214.03125 209.339844 212.101562 209.339844 C 210.277344 209.339844 208.539062 210.726562 206.882812 213.503906 C 205.222656 216.277344 204.394531 219.886719 204.394531 224.335938 Z M 204.394531 224.335938 " fill-opacity="1" fill-rule="nonzero"/><path fill="#010101" d="M 270.355469 232.003906 C 265.9375 236.199219 262.773438 238.9375 260.871094 240.210938 C 258.964844 241.480469 257.140625 242.113281 255.398438 242.113281 C 251.035156 242.113281 248.976562 238.261719 249.226562 230.554688 C 246.464844 234.503906 243.914062 237.417969 241.578125 239.300781 C 239.246094 241.175781 236.839844 242.113281 234.347656 242.113281 C 231.921875 242.113281 229.855469 240.976562 228.15625 238.699219 C 226.453125 236.417969 225.609375 233.625 225.609375 230.304688 C 225.609375 226.164062 226.746094 222.214844 229.023438 218.453125 C 231.304688 214.695312 234.226562 211.660156 237.789062 209.339844 C 241.351562 207.019531 244.5 205.859375 247.234375 205.859375 C 250.6875 205.859375 253.105469 207.449219 254.488281 210.621094 L 262.953125 205.945312 L 265.28125 205.945312 L 261.621094 218.082031 C 259.742188 224.1875 258.800781 228.375 258.800781 230.636719 C 258.800781 233.011719 259.640625 234.199219 261.328125 234.199219 C 262.402344 234.199219 263.589844 233.628906 264.886719 232.480469 C 266.1875 231.332031 268.007812 229.585938 270.355469 227.238281 Z M 240.027344 234.285156 C 242.789062 234.285156 245.390625 231.929688 247.839844 227.21875 C 250.285156 222.507812 251.507812 218.160156 251.507812 214.183594 C 251.507812 212.640625 251.160156 211.429688 250.472656 210.5625 C 249.777344 209.6875 248.851562 209.257812 247.695312 209.257812 C 244.933594 209.257812 242.3125 211.601562 239.84375 216.300781 C 237.371094 220.996094 236.132812 225.320312 236.132812 229.265625 C 236.132812 230.761719 236.5 231.96875 237.234375 232.894531 C 237.964844 233.820312 238.890625 234.285156 240.027344 234.285156 Z M 240.027344 234.285156 " fill-opacity="1" fill-rule="nonzero"/><path fill="#010101" d="M 301.308594 232.003906 C 294.375 238.796875 289.027344 242.195312 285.273438 242.195312 C 283.585938 242.195312 282.164062 241.484375 281.003906 240.066406 C 279.847656 238.640625 279.265625 236.878906 279.265625 234.78125 C 279.265625 230.882812 281.351562 225.664062 285.523438 219.117188 C 283.476562 220.167969 281.242188 220.898438 278.8125 221.3125 C 277.015625 224.628906 274.195312 228.191406 270.359375 232 L 269.40625 232 L 269.40625 228.277344 C 271.558594 226.039062 273.507812 223.632812 275.25 221.0625 C 272.871094 220.015625 271.683594 218.453125 271.683594 216.386719 C 271.683594 214.253906 272.40625 211.984375 273.859375 209.5625 C 275.308594 207.148438 277.304688 205.941406 279.847656 205.941406 C 282.003906 205.941406 283.078125 207.042969 283.078125 209.253906 C 283.078125 210.996094 282.457031 213.480469 281.210938 216.714844 C 285.796875 216.214844 289.804688 212.710938 293.230469 206.1875 L 297 206.023438 L 293.144531 216.628906 C 291.542969 221.105469 290.507812 224.152344 290.039062 225.765625 C 289.570312 227.378906 289.335938 228.8125 289.335938 230.054688 C 289.335938 231.214844 289.605469 232.144531 290.140625 232.828125 C 290.679688 233.527344 291.40625 233.867188 292.320312 233.867188 C 293.3125 233.867188 294.265625 233.527344 295.175781 232.855469 C 296.089844 232.171875 298.132812 230.300781 301.3125 227.238281 L 301.3125 232.003906 Z M 301.308594 232.003906 " fill-opacity="1" fill-rule="nonzero"/><path fill="#010101" d="M 342 232.003906 C 335.621094 238.746094 330.148438 242.113281 325.589844 242.113281 C 323.742188 242.113281 322.25 241.464844 321.117188 240.167969 C 319.980469 238.867188 319.414062 237.128906 319.414062 234.949219 C 319.414062 231.992188 320.632812 227.476562 323.0625 221.398438 C 324.363281 218.140625 325.011719 216.066406 325.011719 215.183594 C 325.011719 214.300781 324.664062 213.855469 323.976562 213.855469 C 323.59375 213.855469 323.078125 214.050781 322.441406 214.433594 C 321.859375 214.824219 321.183594 215.367188 320.410156 216.054688 C 319.722656 216.6875 318.945312 217.460938 318.089844 218.371094 C 317.34375 219.148438 316.542969 220.035156 315.691406 221.023438 L 313.367188 223.71875 C 312.347656 224.960938 311.710938 226.273438 311.464844 227.652344 C 311.046875 230 310.769531 232.15625 310.632812 234.121094 C 310.546875 235.582031 310.507812 237.554688 310.507812 240.046875 L 301.351562 242.199219 C 301.046875 238.46875 300.894531 235.691406 300.894531 233.871094 C 300.894531 229.421875 301.410156 225.210938 302.449219 221.234375 C 303.484375 217.253906 305.144531 212.78125 307.441406 207.808594 L 317.550781 205.859375 C 315.425781 211.578125 314.03125 216.078125 313.367188 219.367188 C 317.894531 214.3125 321.488281 210.8125 324.148438 208.863281 C 326.808594 206.914062 329.175781 205.945312 331.242188 205.945312 C 332.648438 205.945312 333.824219 206.476562 334.757812 207.535156 C 335.699219 208.597656 336.167969 209.933594 336.167969 211.527344 C 336.167969 214.175781 334.980469 218.539062 332.605469 224.621094 C 330.976562 228.789062 330.160156 231.496094 330.160156 232.746094 C 330.160156 234.40625 330.839844 235.238281 332.195312 235.238281 C 334.214844 235.238281 337.488281 232.570312 342 227.242188 Z M 342 232.003906 " fill-opacity="1" fill-rule="nonzero"/><path fill="#ffffff" d="M 210.789062 185.585938 C 210.851562 186.316406 211.035156 186.878906 211.335938 187.265625 C 211.886719 187.972656 212.847656 188.328125 214.210938 188.328125 C 215.023438 188.328125 215.742188 188.152344 216.359375 187.804688 C 216.976562 187.445312 217.285156 186.898438 217.285156 186.15625 C 217.285156 185.597656 217.035156 185.171875 216.542969 184.878906 C 216.222656 184.699219 215.597656 184.492188 214.664062 184.253906 L 212.921875 183.816406 C 211.808594 183.542969 210.984375 183.234375 210.457031 182.890625 C 209.515625 182.296875 209.042969 181.476562 209.042969 180.425781 C 209.042969 179.191406 209.488281 178.191406 210.371094 177.429688 C 211.265625 176.664062 212.464844 176.28125 213.96875 176.28125 C 215.933594 176.28125 217.351562 176.859375 218.222656 178.015625 C 218.765625 178.746094 219.03125 179.535156 219.015625 180.378906 L 216.945312 180.378906 C 216.902344 179.882812 216.726562 179.433594 216.417969 179.027344 C 215.914062 178.449219 215.042969 178.160156 213.796875 178.160156 C 212.96875 178.160156 212.339844 178.320312 211.90625 178.636719 C 211.488281 178.953125 211.273438 179.371094 211.273438 179.890625 C 211.273438 180.460938 211.554688 180.917969 212.113281 181.257812 C 212.441406 181.460938 212.921875 181.640625 213.554688 181.792969 L 215.003906 182.148438 C 216.582031 182.527344 217.636719 182.898438 218.175781 183.257812 C 219.027344 183.816406 219.453125 184.699219 219.453125 185.902344 C 219.453125 187.0625 219.011719 188.070312 218.125 188.914062 C 217.246094 189.757812 215.90625 190.179688 214.101562 190.179688 C 212.160156 190.179688 210.78125 189.742188 209.96875 188.863281 C 209.164062 187.976562 208.734375 186.886719 208.679688 185.585938 Z M 227 176.246094 C 228.472656 176.246094 229.667969 176.605469 230.585938 177.320312 C 231.511719 178.035156 232.066406 179.265625 232.253906 181.015625 L 230.121094 181.015625 C 229.992188 180.207031 229.695312 179.542969 229.230469 179.015625 C 228.769531 178.476562 228.027344 178.210938 227 178.210938 C 225.601562 178.210938 224.605469 178.890625 224.003906 180.257812 C 223.609375 181.144531 223.414062 182.238281 223.414062 183.535156 C 223.414062 184.84375 223.695312 185.945312 224.246094 186.839844 C 224.800781 187.734375 225.667969 188.179688 226.855469 188.179688 C 227.765625 188.179688 228.484375 187.90625 229.011719 187.351562 C 229.546875 186.792969 229.917969 186.027344 230.121094 185.0625 L 232.253906 185.0625 C 232.011719 186.792969 231.402344 188.058594 230.425781 188.863281 C 229.449219 189.660156 228.203125 190.058594 226.683594 190.058594 C 224.976562 190.058594 223.617188 189.4375 222.601562 188.195312 C 221.585938 186.941406 221.074219 185.382812 221.074219 183.511719 C 221.074219 181.222656 221.632812 179.4375 222.746094 178.160156 C 223.859375 176.882812 225.277344 176.246094 227 176.246094 Z M 234.449219 176.683594 L 236.679688 176.683594 L 236.679688 189.679688 L 234.449219 189.679688 Z M 234.449219 171.773438 L 236.679688 171.773438 L 236.679688 174.257812 L 234.449219 174.257812 Z M 239.960938 171.773438 L 242.070312 171.773438 L 242.070312 182.171875 L 247.699219 176.625 L 250.503906 176.625 L 245.507812 181.511719 L 250.785156 189.679688 L 247.980469 189.679688 L 243.910156 183.097656 L 242.070312 184.78125 L 242.070312 189.679688 L 239.960938 189.679688 Z M 252.492188 176.683594 L 254.722656 176.683594 L 254.722656 189.679688 L 252.492188 189.679688 Z M 252.492188 171.773438 L 254.722656 171.773438 L 254.722656 174.257812 L 252.492188 174.257812 Z M 258.492188 172.980469 L 260.710938 172.980469 L 260.710938 176.625 L 262.792969 176.625 L 262.792969 178.414062 L 260.710938 178.414062 L 260.710938 186.9375 C 260.710938 187.394531 260.863281 187.699219 261.171875 187.851562 C 261.34375 187.941406 261.628906 187.984375 262.027344 187.984375 C 262.132812 187.984375 262.246094 187.984375 262.367188 187.984375 C 262.488281 187.976562 262.628906 187.964844 262.792969 187.949219 L 262.792969 189.679688 C 262.542969 189.753906 262.277344 189.808594 262 189.839844 C 261.734375 189.871094 261.441406 189.886719 261.121094 189.886719 C 260.101562 189.886719 259.402344 189.628906 259.039062 189.109375 C 258.671875 188.578125 258.492188 187.898438 258.492188 187.058594 L 258.492188 178.414062 L 256.722656 178.414062 L 256.722656 176.625 L 258.492188 176.625 Z M 258.492188 172.980469 " fill-opacity="1" fill-rule="nonzero"/></svg>