<svg xmlns="http://www.w3.org/2000/svg" xmlns:xlink="http://www.w3.org/1999/xlink" width="512" zoomAndPan="magnify" viewBox="0 0 384 383.999986" height="512" preserveAspectRatio="xMidYMid meet" version="1.0"><defs><clipPath id="495be024c6"><path d="M 0 294 L 0 90 C 0 87.050781 0.144531 84.113281 0.433594 81.179688 C 0.722656 78.246094 1.152344 75.332031 1.730469 72.441406 C 2.304688 69.550781 3.019531 66.695312 3.875 63.875 C 4.730469 61.054688 5.722656 58.28125 6.851562 55.558594 C 7.980469 52.835938 9.238281 50.175781 10.628906 47.574219 C 12.015625 44.976562 13.53125 42.449219 15.167969 40 C 16.804688 37.546875 18.558594 35.183594 20.429688 32.90625 C 22.300781 30.625 24.277344 28.445312 26.359375 26.359375 C 28.445312 24.277344 30.625 22.300781 32.90625 20.429688 C 35.183594 18.558594 37.546875 16.804688 40 15.167969 C 42.449219 13.53125 44.976562 12.015625 47.574219 10.628906 C 50.175781 9.238281 52.835938 7.980469 55.558594 6.851562 C 58.28125 5.722656 61.054688 4.730469 63.875 3.875 C 66.695312 3.019531 69.550781 2.304688 72.441406 1.730469 C 75.332031 1.152344 78.246094 0.722656 81.179688 0.433594 C 84.113281 0.144531 87.050781 0 90 0 L 294 0 C 296.949219 0 299.886719 0.144531 302.820312 0.433594 C 305.753906 0.722656 308.667969 1.152344 311.558594 1.730469 C 314.449219 2.304688 317.304688 3.019531 320.125 3.875 C 322.945312 4.730469 325.71875 5.722656 328.441406 6.851562 C 331.164062 7.980469 333.824219 9.238281 336.425781 10.628906 C 339.023438 12.015625 341.550781 13.53125 344 15.167969 C 346.453125 16.804688 348.816406 18.558594 351.09375 20.429688 C 353.375 22.300781 355.554688 24.277344 357.640625 26.359375 C 359.722656 28.445312 361.699219 30.625 363.570312 32.90625 C 365.441406 35.183594 367.195312 37.546875 368.832031 40 C 370.46875 42.449219 371.984375 44.976562 373.371094 47.574219 C 374.761719 50.175781 376.019531 52.835938 377.148438 55.558594 C 378.277344 58.28125 379.269531 61.054688 380.125 63.875 C 380.980469 66.695312 381.695312 69.550781 382.269531 72.441406 C 382.84375 75.332031 383.277344 78.246094 383.566406 81.179688 C 383.855469 84.113281 384 87.050781 384 90 L 384 294 C 384 296.949219 383.855469 299.886719 383.566406 302.820312 C 383.277344 305.753906 382.84375 308.667969 382.269531 311.558594 C 381.695312 314.449219 380.980469 317.304688 380.125 320.125 C 379.269531 322.945312 378.277344 325.71875 377.148438 328.441406 C 376.019531 331.164062 374.761719 333.824219 373.371094 336.425781 C 371.984375 339.023438 370.46875 341.550781 368.832031 344 C 367.195312 346.453125 365.441406 348.816406 363.570312 351.09375 C 361.699219 353.375 359.722656 355.554688 357.640625 357.640625 C 355.554688 359.722656 353.375 361.699219 351.09375 363.570312 C 348.816406 365.441406 346.453125 367.195312 344 368.832031 C 341.550781 370.46875 339.023438 371.984375 336.425781 373.371094 C 333.824219 374.761719 331.164062 376.019531 328.441406 377.148438 C 325.71875 378.277344 322.945312 379.269531 320.125 380.125 C 317.304688 380.980469 314.449219 381.695312 311.558594 382.269531 C 308.667969 382.84375 305.753906 383.277344 302.820312 383.566406 C 299.886719 383.855469 296.949219 384 294 384 L 90 384 C 87.050781 384 84.113281 383.855469 81.179688 383.566406 C 78.246094 383.277344 75.332031 382.84375 72.441406 382.269531 C 69.550781 381.695312 66.695312 380.980469 63.875 380.125 C 61.054688 379.269531 58.28125 378.277344 55.558594 377.148438 C 52.835938 376.019531 50.175781 374.761719 47.574219 373.371094 C 44.976562 371.984375 42.449219 370.46875 40 368.832031 C 37.546875 367.195312 35.183594 365.441406 32.90625 363.570312 C 30.625 361.699219 28.445312 359.722656 26.359375 357.640625 C 24.277344 355.554688 22.300781 353.375 20.429688 351.09375 C 18.558594 348.816406 16.804688 346.453125 15.167969 344 C 13.53125 341.550781 12.015625 339.023438 10.628906 336.425781 C 9.238281 333.824219 7.980469 331.164062 6.851562 328.441406 C 5.722656 325.71875 4.730469 322.945312 3.875 320.125 C 3.019531 317.304688 2.304688 314.449219 1.730469 311.558594 C 1.152344 308.667969 0.722656 305.753906 0.433594 302.820312 C 0.144531 299.886719 0 296.949219 0 294 Z M 0 294 " clip-rule="nonzero"/></clipPath></defs><g clip-path="url(#495be024c6)"><path fill="#59b943" d="M 90 0 L 294 0 C 295.472656 0 296.945312 0.0351562 298.417969 0.109375 C 299.886719 0.179688 301.355469 0.289062 302.820312 0.433594 C 304.289062 0.578125 305.75 0.757812 307.207031 0.972656 C 308.664062 1.191406 310.113281 1.441406 311.558594 1.730469 C 313.003906 2.015625 314.4375 2.339844 315.867188 2.695312 C 317.296875 3.054688 318.714844 3.449219 320.125 3.875 C 321.535156 4.304688 322.933594 4.765625 324.320312 5.261719 C 325.707031 5.757812 327.082031 6.289062 328.441406 6.851562 C 329.800781 7.414062 331.148438 8.011719 332.480469 8.640625 C 333.8125 9.269531 335.125 9.933594 336.425781 10.628906 C 337.726562 11.320312 339.003906 12.046875 340.269531 12.804688 C 341.53125 13.5625 342.777344 14.347656 344 15.167969 C 345.226562 15.984375 346.429688 16.832031 347.613281 17.710938 C 348.796875 18.589844 349.957031 19.496094 351.09375 20.429688 C 352.234375 21.363281 353.347656 22.324219 354.441406 23.3125 C 355.53125 24.304688 356.597656 25.320312 357.640625 26.359375 C 358.679688 27.402344 359.695312 28.46875 360.6875 29.558594 C 361.675781 30.652344 362.636719 31.765625 363.570312 32.90625 C 364.503906 34.042969 365.410156 35.203125 366.289062 36.386719 C 367.167969 37.570312 368.015625 38.773438 368.832031 40 C 369.652344 41.222656 370.4375 42.46875 371.195312 43.730469 C 371.953125 44.992188 372.679688 46.273438 373.371094 47.574219 C 374.066406 48.875 374.730469 50.1875 375.359375 51.519531 C 375.988281 52.851562 376.585938 54.199219 377.148438 55.558594 C 377.710938 56.917969 378.242188 58.292969 378.738281 59.679688 C 379.234375 61.066406 379.695312 62.464844 380.125 63.875 C 380.550781 65.285156 380.945312 66.703125 381.304688 68.132812 C 381.660156 69.5625 381.984375 70.996094 382.269531 72.441406 C 382.558594 73.886719 382.808594 75.335938 383.027344 76.792969 C 383.242188 78.25 383.421875 79.710938 383.566406 81.179688 C 383.710938 82.644531 383.820312 84.113281 383.890625 85.582031 C 383.964844 87.054688 384 88.527344 384 90 L 384 294 C 384 295.472656 383.964844 296.945312 383.890625 298.417969 C 383.820312 299.886719 383.710938 301.355469 383.566406 302.820312 C 383.421875 304.289062 383.242188 305.75 383.027344 307.207031 C 382.808594 308.664062 382.558594 310.113281 382.269531 311.558594 C 381.984375 313.003906 381.660156 314.4375 381.304688 315.867188 C 380.945312 317.296875 380.550781 318.714844 380.125 320.125 C 379.695312 321.535156 379.234375 322.933594 378.738281 324.320312 C 378.242188 325.707031 377.710938 327.082031 377.148438 328.441406 C 376.585938 329.800781 375.988281 331.148438 375.359375 332.480469 C 374.730469 333.8125 374.066406 335.125 373.371094 336.425781 C 372.679688 337.726562 371.953125 339.003906 371.195312 340.269531 C 370.4375 341.53125 369.652344 342.777344 368.832031 344 C 368.015625 345.226562 367.167969 346.429688 366.289062 347.613281 C 365.410156 348.796875 364.503906 349.957031 363.570312 351.09375 C 362.636719 352.234375 361.675781 353.347656 360.6875 354.441406 C 359.695312 355.53125 358.679688 356.597656 357.640625 357.640625 C 356.597656 358.679688 355.53125 359.695312 354.441406 360.683594 C 353.347656 361.675781 352.234375 362.636719 351.09375 363.570312 C 349.957031 364.503906 348.796875 365.410156 347.613281 366.289062 C 346.429688 367.167969 345.226562 368.015625 344 368.832031 C 342.777344 369.652344 341.53125 370.4375 340.269531 371.195312 C 339.007812 371.953125 337.726562 372.679688 336.425781 373.371094 C 335.125 374.066406 333.8125 374.730469 332.480469 375.359375 C 331.148438 375.988281 329.800781 376.585938 328.441406 377.148438 C 327.082031 377.710938 325.707031 378.242188 324.320312 378.738281 C 322.933594 379.234375 321.535156 379.695312 320.125 380.125 C 318.714844 380.550781 317.296875 380.945312 315.867188 381.304688 C 314.4375 381.660156 313.003906 381.984375 311.558594 382.269531 C 310.113281 382.558594 308.664062 382.808594 307.207031 383.027344 C 305.75 383.242188 304.289062 383.421875 302.820312 383.566406 C 301.355469 383.710938 299.886719 383.820312 298.417969 383.890625 C 296.945312 383.964844 295.472656 384 294 384 L 90 384 C 88.527344 384 87.054688 383.964844 85.582031 383.890625 C 84.113281 383.820312 82.644531 383.710938 81.179688 383.566406 C 79.710938 383.421875 78.25 383.242188 76.792969 383.027344 C 75.335938 382.808594 73.886719 382.558594 72.441406 382.269531 C 70.996094 381.984375 69.5625 381.660156 68.132812 381.304688 C 66.703125 380.945312 65.285156 380.550781 63.875 380.125 C 62.464844 379.695312 61.066406 379.234375 59.679688 378.738281 C 58.292969 378.242188 56.917969 377.710938 55.558594 377.148438 C 54.199219 376.585938 52.851562 375.988281 51.519531 375.359375 C 50.1875 374.730469 48.875 374.066406 47.574219 373.371094 C 46.273438 372.679688 44.992188 371.953125 43.730469 371.195312 C 42.46875 370.4375 41.222656 369.652344 40 368.832031 C 38.773438 368.015625 37.570312 367.167969 36.386719 366.289062 C 35.203125 365.410156 34.042969 364.503906 32.90625 363.570312 C 31.765625 362.636719 30.652344 361.675781 29.558594 360.683594 C 28.46875 359.695312 27.402344 358.679688 26.359375 357.640625 C 25.320312 356.597656 24.304688 355.53125 23.3125 354.441406 C 22.324219 353.347656 21.363281 352.234375 20.429688 351.09375 C 19.496094 349.957031 18.589844 348.796875 17.710938 347.613281 C 16.832031 346.429688 15.984375 345.226562 15.167969 344 C 14.347656 342.777344 13.5625 341.53125 12.804688 340.269531 C 12.046875 339.003906 11.320312 337.726562 10.628906 336.425781 C 9.933594 335.125 9.269531 333.8125 8.640625 332.480469 C 8.011719 331.148438 7.414062 329.800781 6.851562 328.441406 C 6.289062 327.082031 5.757812 325.707031 5.261719 324.320312 C 4.765625 322.933594 4.304688 321.535156 3.875 320.125 C 3.449219 318.714844 3.054688 317.296875 2.695312 315.867188 C 2.339844 314.4375 2.015625 313.003906 1.730469 311.558594 C 1.441406 310.113281 1.191406 308.664062 0.972656 307.207031 C 0.757812 305.75 0.578125 304.289062 0.433594 302.820312 C 0.289062 301.355469 0.179688 299.886719 0.109375 298.417969 C 0.0351562 296.945312 0 295.472656 0 294 L 0 90 C 0 88.527344 0.0351562 87.054688 0.109375 85.582031 C 0.179688 84.113281 0.289062 82.644531 0.433594 81.179688 C 0.578125 79.710938 0.757812 78.25 0.972656 76.792969 C 1.191406 75.335938 1.441406 73.886719 1.730469 72.441406 C 2.015625 70.996094 2.339844 69.5625 2.695312 68.132812 C 3.054688 66.703125 3.449219 65.285156 3.875 63.875 C 4.304688 62.464844 4.765625 61.066406 5.261719 59.679688 C 5.757812 58.292969 6.289062 56.917969 6.851562 55.558594 C 7.414062 54.199219 8.011719 52.851562 8.640625 51.519531 C 9.269531 50.1875 9.933594 48.875 10.628906 47.574219 C 11.320312 46.273438 12.046875 44.992188 12.804688 43.730469 C 13.5625 42.46875 14.347656 41.222656 15.167969 40 C 15.984375 38.773438 16.832031 37.570312 17.710938 36.386719 C 18.589844 35.203125 19.496094 34.042969 20.429688 32.90625 C 21.363281 31.765625 22.324219 30.652344 23.3125 29.558594 C 24.304688 28.46875 25.320312 27.402344 26.359375 26.359375 C 27.402344 25.320312 28.46875 24.304688 29.558594 23.3125 C 30.652344 22.324219 31.765625 21.363281 32.90625 20.429688 C 34.042969 19.496094 35.203125 18.589844 36.386719 17.710938 C 37.570312 16.832031 38.773438 15.984375 40 15.167969 C 41.222656 14.347656 42.46875 13.5625 43.730469 12.804688 C 44.992188 12.046875 46.273438 11.320312 47.574219 10.628906 C 48.875 9.933594 50.1875 9.269531 51.519531 8.640625 C 52.851562 8.011719 54.199219 7.414062 55.558594 6.851562 C 56.917969 6.289062 58.292969 5.757812 59.679688 5.261719 C 61.066406 4.765625 62.464844 4.304688 63.875 3.875 C 65.285156 3.449219 66.703125 3.054688 68.132812 2.695312 C 69.5625 2.339844 70.996094 2.015625 72.441406 1.730469 C 73.886719 1.441406 75.335938 1.191406 76.792969 0.972656 C 78.25 0.757812 79.710938 0.578125 81.179688 0.433594 C 82.644531 0.289062 84.113281 0.179688 85.582031 0.109375 C 87.054688 0.0351562 88.527344 0 90 0 Z M 90 0 " fill-opacity="1" fill-rule="nonzero"/><path fill="#ffffff" d="M 350.664062 -9 L 384 -9 L 384 391.5 L 380.902344 391.5 C 381.683594 391.5 382.433594 391.191406 382.988281 390.636719 C 383.542969 390.085938 383.851562 389.335938 383.851562 388.554688 L 383.851562 50.605469 C 384.089844 49.917969 384.039062 49.164062 383.71875 48.511719 C 383.398438 47.859375 382.828125 47.363281 382.140625 47.128906 C 381.453125 46.894531 380.695312 46.941406 380.042969 47.261719 C 379.390625 47.582031 378.890625 48.148438 378.65625 48.835938 L 254.644531 187.714844 C 254.289062 188.097656 253.859375 188.402344 253.382812 188.613281 C 252.90625 188.820312 252.386719 188.925781 251.867188 188.925781 C 251.347656 188.925781 250.828125 188.820312 250.351562 188.613281 C 249.875 188.402344 249.445312 188.097656 249.089844 187.714844 L 185.785156 122.574219 C 185.25 121.90625 184.957031 121.078125 184.957031 120.21875 C 184.957031 119.363281 185.25 118.53125 185.785156 117.863281 L 206.691406 91.125 C 207.039062 90.636719 207.5 90.242188 208.035156 89.96875 C 208.570312 89.695312 209.160156 89.554688 209.761719 89.554688 C 210.363281 89.554688 210.953125 89.695312 211.488281 89.96875 C 212.019531 90.242188 212.484375 90.636719 212.832031 91.125 L 248.265625 130.234375 C 248.617188 130.652344 249.0625 130.992188 249.5625 131.226562 C 250.0625 131.457031 250.605469 131.578125 251.160156 131.578125 C 251.710938 131.578125 252.253906 131.457031 252.753906 131.226562 C 253.253906 130.992188 253.695312 130.652344 254.050781 130.234375 L 352.789062 -4.757812 C 353.066406 -5.160156 353.226562 -5.625 353.261719 -6.105469 C 353.296875 -6.589844 353.199219 -7.070312 352.980469 -7.503906 C 352.765625 -7.9375 352.433594 -8.304688 352.027344 -8.566406 C 351.621094 -8.832031 351.148438 -8.980469 350.664062 -9 Z M 2.953125 -9 L 0 -9 L 0 -6.054688 C 0 -6.835938 0.3125 -7.585938 0.863281 -8.136719 C 1.417969 -8.691406 2.167969 -9 2.953125 -9 Z M 0 388.554688 L 0 391.5 L 2.953125 391.5 C 2.167969 391.5 1.417969 391.191406 0.863281 390.636719 C 0.3125 390.085938 0 389.335938 0 388.554688 Z M 253.453125 244.558594 C 246.121094 244.339844 238.972656 246.867188 233.429688 251.640625 C 227.882812 256.414062 224.351562 263.089844 223.53125 270.332031 C 223.492188 270.472656 223.492188 270.621094 223.519531 270.761719 C 223.550781 270.90625 223.613281 271.035156 223.707031 271.152344 C 223.796875 271.261719 223.914062 271.351562 224.046875 271.414062 C 224.179688 271.472656 224.324219 271.503906 224.46875 271.5 L 282.554688 271.5 C 282.6875 271.5 282.820312 271.472656 282.941406 271.417969 C 283.066406 271.363281 283.175781 271.285156 283.261719 271.1875 C 283.351562 271.085938 283.417969 270.96875 283.457031 270.84375 C 283.496094 270.714844 283.507812 270.582031 283.492188 270.449219 C 282.921875 263.074219 279.445312 256.21875 273.824219 251.371094 C 268.199219 246.523438 260.878906 244.078125 253.453125 244.558594 Z M 39.210938 324.003906 C 57.875 340.359375 82.195312 348.808594 107.007812 347.5625 L 106.886719 347.5625 C 151.652344 347.5625 173.265625 324.710938 173.265625 294.789062 C 173.265625 257.265625 138.347656 248.90625 110.804688 242.3125 C 92.875 238.015625 78.070312 234.472656 78.070312 224.113281 C 78.070312 214.21875 86.574219 207.503906 101.691406 207.503906 C 118.148438 207.351562 134.160156 212.839844 147.046875 223.054688 C 147.425781 223.378906 147.871094 223.621094 148.347656 223.769531 C 148.828125 223.917969 149.332031 223.964844 149.832031 223.910156 C 150.328125 223.855469 150.808594 223.699219 151.246094 223.449219 C 151.679688 223.203125 152.058594 222.867188 152.359375 222.464844 L 166.886719 202.324219 C 167.542969 201.640625 167.910156 200.734375 167.910156 199.789062 C 167.910156 198.847656 167.542969 197.9375 166.886719 197.257812 C 149.414062 183.09375 127.382812 175.726562 104.878906 176.527344 C 65.667969 176.527344 42.046875 199.378906 42.046875 226.824219 C 42.046875 263.726562 75.644531 271.683594 102.96875 278.15625 C 121.699219 282.589844 137.476562 286.328125 137.476562 298.207031 C 137.476562 307.628906 128.03125 316.582031 108.660156 316.582031 C 90.269531 316.640625 72.542969 309.734375 59.054688 297.265625 C 58.636719 297.011719 58.171875 296.84375 57.691406 296.769531 C 57.207031 296.699219 56.714844 296.722656 56.242188 296.84375 C 55.769531 296.964844 55.324219 297.179688 54.933594 297.472656 C 54.546875 297.769531 54.21875 298.136719 53.976562 298.558594 L 39.210938 319.175781 C 38.621094 319.84375 38.296875 320.699219 38.296875 321.589844 C 38.296875 322.480469 38.621094 323.335938 39.210938 324.003906 Z M 314.894531 291.476562 C 315.058594 291.070312 315.128906 290.632812 315.113281 290.199219 L 314.996094 286.429688 C 314.996094 246.257812 290.074219 218.8125 253.34375 218.8125 C 244.867188 218.667969 236.449219 220.234375 228.597656 223.425781 C 220.746094 226.613281 213.625 231.359375 207.664062 237.367188 C 201.703125 243.382812 197.023438 250.535156 193.914062 258.402344 C 190.804688 266.265625 189.324219 274.679688 189.5625 283.128906 C 189.222656 291.789062 190.699219 300.421875 193.894531 308.480469 C 197.09375 316.539062 201.949219 323.839844 208.140625 329.917969 C 214.335938 335.996094 221.734375 340.714844 229.863281 343.773438 C 237.996094 346.832031 246.675781 348.164062 255.351562 347.679688 C 272.71875 348.117188 289.742188 342.816406 303.777344 332.601562 C 304.414062 332.09375 304.835938 331.363281 304.96875 330.558594 C 305.101562 329.753906 304.925781 328.929688 304.484375 328.246094 L 293.855469 312.8125 C 293.609375 312.433594 293.285156 312.113281 292.90625 311.871094 C 292.527344 311.625 292.097656 311.464844 291.652344 311.398438 C 291.207031 311.332031 290.75 311.359375 290.316406 311.484375 C 289.878906 311.605469 289.476562 311.816406 289.128906 312.105469 C 280.261719 318.328125 269.734375 321.773438 258.894531 322.003906 C 250.632812 322.679688 242.414062 320.253906 235.859375 315.199219 C 229.300781 310.140625 224.878906 302.820312 223.460938 294.671875 C 223.445312 294.535156 223.457031 294.394531 223.496094 294.257812 C 223.535156 294.121094 223.597656 293.996094 223.6875 293.886719 C 223.773438 293.777344 223.882812 293.6875 224.007812 293.617188 C 224.132812 293.550781 224.265625 293.507812 224.40625 293.496094 L 311.804688 293.496094 C 312.246094 293.511719 312.683594 293.4375 313.09375 293.277344 C 313.5 293.117188 313.871094 292.875 314.183594 292.566406 C 314.492188 292.257812 314.734375 291.886719 314.894531 291.476562 Z M 314.894531 291.476562 " fill-opacity="1" fill-rule="evenodd"/></g></svg>