<svg xmlns="http://www.w3.org/2000/svg" xmlns:xlink="http://www.w3.org/1999/xlink" width="512" zoomAndPan="magnify" viewBox="0 0 384 383.999986" height="512" preserveAspectRatio="xMidYMid meet" version="1.0"><path fill="#0073aa" d="M 90 0 L 294 0 C 295.472656 0 296.945312 0.0351562 298.417969 0.109375 C 299.886719 0.179688 301.355469 0.289062 302.820312 0.433594 C 304.289062 0.578125 305.75 0.757812 307.207031 0.972656 C 308.664062 1.191406 310.113281 1.441406 311.558594 1.730469 C 313.003906 2.015625 314.4375 2.339844 315.867188 2.695312 C 317.296875 3.054688 318.714844 3.449219 320.125 3.875 C 321.535156 4.304688 322.933594 4.765625 324.320312 5.261719 C 325.707031 5.757812 327.082031 6.289062 328.441406 6.851562 C 329.800781 7.414062 331.148438 8.011719 332.480469 8.640625 C 333.8125 9.269531 335.125 9.933594 336.425781 10.628906 C 337.726562 11.320312 339.003906 12.046875 340.269531 12.804688 C 341.53125 13.5625 342.777344 14.347656 344 15.167969 C 345.226562 15.984375 346.429688 16.832031 347.613281 17.710938 C 348.796875 18.589844 349.957031 19.496094 351.09375 20.429688 C 352.234375 21.363281 353.347656 22.324219 354.441406 23.3125 C 355.53125 24.304688 356.597656 25.320312 357.640625 26.359375 C 358.679688 27.402344 359.695312 28.46875 360.6875 29.558594 C 361.675781 30.652344 362.636719 31.765625 363.570312 32.90625 C 364.503906 34.042969 365.410156 35.203125 366.289062 36.386719 C 367.167969 37.570312 368.015625 38.773438 368.832031 40 C 369.652344 41.222656 370.4375 42.46875 371.195312 43.730469 C 371.953125 44.992188 372.679688 46.273438 373.371094 47.574219 C 374.066406 48.875 374.730469 50.1875 375.359375 51.519531 C 375.988281 52.851562 376.585938 54.199219 377.148438 55.558594 C 377.710938 56.917969 378.242188 58.292969 378.738281 59.679688 C 379.234375 61.066406 379.695312 62.464844 380.125 63.875 C 380.550781 65.285156 380.945312 66.703125 381.304688 68.132812 C 381.660156 69.5625 381.984375 70.996094 382.269531 72.441406 C 382.558594 73.886719 382.808594 75.335938 383.027344 76.792969 C 383.242188 78.25 383.421875 79.710938 383.566406 81.179688 C 383.710938 82.644531 383.820312 84.113281 383.890625 85.582031 C 383.964844 87.054688 384 88.527344 384 90 L 384 294 C 384 295.472656 383.964844 296.945312 383.890625 298.417969 C 383.820312 299.886719 383.710938 301.355469 383.566406 302.820312 C 383.421875 304.289062 383.242188 305.75 383.027344 307.207031 C 382.808594 308.664062 382.558594 310.113281 382.269531 311.558594 C 381.984375 313.003906 381.660156 314.4375 381.304688 315.867188 C 380.945312 317.296875 380.550781 318.714844 380.125 320.125 C 379.695312 321.535156 379.234375 322.933594 378.738281 324.320312 C 378.242188 325.707031 377.710938 327.082031 377.148438 328.441406 C 376.585938 329.800781 375.988281 331.148438 375.359375 332.480469 C 374.730469 333.8125 374.066406 335.125 373.371094 336.425781 C 372.679688 337.726562 371.953125 339.003906 371.195312 340.269531 C 370.4375 341.53125 369.652344 342.777344 368.832031 344 C 368.015625 345.226562 367.167969 346.429688 366.289062 347.613281 C 365.410156 348.796875 364.503906 349.957031 363.570312 351.09375 C 362.636719 352.234375 361.675781 353.347656 360.6875 354.441406 C 359.695312 355.53125 358.679688 356.597656 357.640625 357.640625 C 356.597656 358.679688 355.53125 359.695312 354.441406 360.683594 C 353.347656 361.675781 352.234375 362.636719 351.09375 363.570312 C 349.957031 364.503906 348.796875 365.410156 347.613281 366.289062 C 346.429688 367.167969 345.226562 368.015625 344 368.832031 C 342.777344 369.652344 341.53125 370.4375 340.269531 371.195312 C 339.007812 371.953125 337.726562 372.679688 336.425781 373.371094 C 335.125 374.066406 333.8125 374.730469 332.480469 375.359375 C 331.148438 375.988281 329.800781 376.585938 328.441406 377.148438 C 327.082031 377.710938 325.707031 378.242188 324.320312 378.738281 C 322.933594 379.234375 321.535156 379.695312 320.125 380.125 C 318.714844 380.550781 317.296875 380.945312 315.867188 381.304688 C 314.4375 381.660156 313.003906 381.984375 311.558594 382.269531 C 310.113281 382.558594 308.664062 382.808594 307.207031 383.027344 C 305.75 383.242188 304.289062 383.421875 302.820312 383.566406 C 301.355469 383.710938 299.886719 383.820312 298.417969 383.890625 C 296.945312 383.964844 295.472656 384 294 384 L 90 384 C 88.527344 384 87.054688 383.964844 85.582031 383.890625 C 84.113281 383.820312 82.644531 383.710938 81.179688 383.566406 C 79.710938 383.421875 78.25 383.242188 76.792969 383.027344 C 75.335938 382.808594 73.886719 382.558594 72.441406 382.269531 C 70.996094 381.984375 69.5625 381.660156 68.132812 381.304688 C 66.703125 380.945312 65.285156 380.550781 63.875 380.125 C 62.464844 379.695312 61.066406 379.234375 59.679688 378.738281 C 58.292969 378.242188 56.917969 377.710938 55.558594 377.148438 C 54.199219 376.585938 52.851562 375.988281 51.519531 375.359375 C 50.1875 374.730469 48.875 374.066406 47.574219 373.371094 C 46.273438 372.679688 44.992188 371.953125 43.730469 371.195312 C 42.46875 370.4375 41.222656 369.652344 40 368.832031 C 38.773438 368.015625 37.570312 367.167969 36.386719 366.289062 C 35.203125 365.410156 34.042969 364.503906 32.90625 363.570312 C 31.765625 362.636719 30.652344 361.675781 29.558594 360.683594 C 28.46875 359.695312 27.402344 358.679688 26.359375 357.640625 C 25.320312 356.597656 24.304688 355.53125 23.3125 354.441406 C 22.324219 353.347656 21.363281 352.234375 20.429688 351.09375 C 19.496094 349.957031 18.589844 348.796875 17.710938 347.613281 C 16.832031 346.429688 15.984375 345.226562 15.167969 344 C 14.347656 342.777344 13.5625 341.53125 12.804688 340.269531 C 12.046875 339.003906 11.320312 337.726562 10.628906 336.425781 C 9.933594 335.125 9.269531 333.8125 8.640625 332.480469 C 8.011719 331.148438 7.414062 329.800781 6.851562 328.441406 C 6.289062 327.082031 5.757812 325.707031 5.261719 324.320312 C 4.765625 322.933594 4.304688 321.535156 3.875 320.125 C 3.449219 318.714844 3.054688 317.296875 2.695312 315.867188 C 2.339844 314.4375 2.015625 313.003906 1.730469 311.558594 C 1.441406 310.113281 1.191406 308.664062 0.972656 307.207031 C 0.757812 305.75 0.578125 304.289062 0.433594 302.820312 C 0.289062 301.355469 0.179688 299.886719 0.109375 298.417969 C 0.0351562 296.945312 0 295.472656 0 294 L 0 90 C 0 88.527344 0.0351562 87.054688 0.109375 85.582031 C 0.179688 84.113281 0.289062 82.644531 0.433594 81.179688 C 0.578125 79.710938 0.757812 78.25 0.972656 76.792969 C 1.191406 75.335938 1.441406 73.886719 1.730469 72.441406 C 2.015625 70.996094 2.339844 69.5625 2.695312 68.132812 C 3.054688 66.703125 3.449219 65.285156 3.875 63.875 C 4.304688 62.464844 4.765625 61.066406 5.261719 59.679688 C 5.757812 58.292969 6.289062 56.917969 6.851562 55.558594 C 7.414062 54.199219 8.011719 52.851562 8.640625 51.519531 C 9.269531 50.1875 9.933594 48.875 10.628906 47.574219 C 11.320312 46.273438 12.046875 44.992188 12.804688 43.730469 C 13.5625 42.46875 14.347656 41.222656 15.167969 40 C 15.984375 38.773438 16.832031 37.570312 17.710938 36.386719 C 18.589844 35.203125 19.496094 34.042969 20.429688 32.90625 C 21.363281 31.765625 22.324219 30.652344 23.3125 29.558594 C 24.304688 28.46875 25.320312 27.402344 26.359375 26.359375 C 27.402344 25.320312 28.46875 24.304688 29.558594 23.3125 C 30.652344 22.324219 31.765625 21.363281 32.90625 20.429688 C 34.042969 19.496094 35.203125 18.589844 36.386719 17.710938 C 37.570312 16.832031 38.773438 15.984375 40 15.167969 C 41.222656 14.347656 42.46875 13.5625 43.730469 12.804688 C 44.992188 12.046875 46.273438 11.320312 47.574219 10.628906 C 48.875 9.933594 50.1875 9.269531 51.519531 8.640625 C 52.851562 8.011719 54.199219 7.414062 55.558594 6.851562 C 56.917969 6.289062 58.292969 5.757812 59.679688 5.261719 C 61.066406 4.765625 62.464844 4.304688 63.875 3.875 C 65.285156 3.449219 66.703125 3.054688 68.132812 2.695312 C 69.5625 2.339844 70.996094 2.015625 72.441406 1.730469 C 73.886719 1.441406 75.335938 1.191406 76.792969 0.972656 C 78.25 0.757812 79.710938 0.578125 81.179688 0.433594 C 82.644531 0.289062 84.113281 0.179688 85.582031 0.109375 C 87.054688 0.0351562 88.527344 0 90 0 Z M 90 0 " fill-opacity="1" fill-rule="nonzero"/><path fill="#ffffff" d="M 63.320312 191.992188 C 63.320312 242.921875 92.921875 286.941406 135.839844 307.796875 L 74.460938 139.625 C 67.320312 155.628906 63.320312 173.335938 63.320312 191.992188 Z M 63.320312 191.992188 " fill-opacity="1" fill-rule="nonzero"/><path fill="#ffffff" d="M 278.863281 185.496094 C 278.863281 169.597656 273.148438 158.582031 268.25 150.011719 C 261.726562 139.410156 255.613281 130.433594 255.613281 119.835938 C 255.613281 108.007812 264.585938 96.996094 277.222656 96.996094 C 277.792969 96.996094 278.332031 97.066406 278.890625 97.101562 C 255.996094 76.125 225.496094 63.320312 191.996094 63.320312 C 147.042969 63.320312 107.492188 86.386719 84.484375 121.320312 C 87.503906 121.410156 90.347656 121.472656 92.765625 121.472656 C 106.226562 121.472656 127.058594 119.839844 127.058594 119.839844 C 133.996094 119.433594 134.8125 129.621094 127.882812 130.441406 C 127.882812 130.441406 120.914062 131.261719 113.15625 131.667969 L 160.015625 271.042969 L 188.171875 186.589844 L 168.125 131.660156 C 161.199219 131.253906 154.632812 130.433594 154.632812 130.433594 C 147.699219 130.027344 148.511719 119.425781 155.445312 119.835938 C 155.445312 119.835938 176.695312 121.46875 189.339844 121.46875 C 202.796875 121.46875 223.632812 119.835938 223.632812 119.835938 C 230.574219 119.425781 231.386719 129.613281 224.457031 130.433594 C 224.457031 130.433594 217.472656 131.253906 209.730469 131.660156 L 256.230469 269.984375 L 269.066406 227.09375 C 274.628906 209.296875 278.863281 196.511719 278.863281 185.496094 Z M 278.863281 185.496094 " fill-opacity="1" fill-rule="nonzero"/><path fill="#ffffff" d="M 194.253906 203.246094 L 155.648438 315.433594 C 167.171875 318.820312 179.367188 320.675781 191.996094 320.675781 C 206.980469 320.675781 221.351562 318.082031 234.726562 313.378906 C 234.382812 312.828125 234.066406 312.246094 233.8125 311.605469 Z M 194.253906 203.246094 " fill-opacity="1" fill-rule="nonzero"/><path fill="#ffffff" d="M 304.902344 130.257812 C 305.457031 134.355469 305.769531 138.753906 305.769531 143.488281 C 305.769531 156.542969 303.332031 171.222656 295.984375 189.578125 L 256.679688 303.214844 C 294.9375 280.90625 320.667969 239.464844 320.667969 191.992188 C 320.667969 169.621094 314.953125 148.585938 304.902344 130.257812 Z M 304.902344 130.257812 " fill-opacity="1" fill-rule="nonzero"/><path fill="#ffffff" d="M 191.996094 42 C 109.289062 42 42 109.285156 42 191.992188 C 42 274.707031 109.289062 341.988281 191.996094 341.988281 C 274.699219 341.988281 342 274.707031 342 191.992188 C 341.996094 109.285156 274.699219 42 191.996094 42 Z M 191.996094 335.113281 C 113.082031 335.113281 48.878906 270.910156 48.878906 191.992188 C 48.878906 113.078125 113.082031 48.878906 191.996094 48.878906 C 270.90625 48.878906 335.109375 113.078125 335.109375 191.992188 C 335.109375 270.910156 270.90625 335.113281 191.996094 335.113281 Z M 191.996094 335.113281 " fill-opacity="1" fill-rule="nonzero"/></svg>